<svg preserveAspectRatio="none" width="100%" height="100%" overflow="visible" viewBox="0 0 58 55" fill="none" xmlns="http://www.w3.org/2000/svg">
<path id="Vector" d="M57.8694 27.1817L53.9582 23.2128C53.8095 23.0639 53.5773 23.0227 53.3835 23.113L45.0682 26.9931C44.9011 27.0723 44.7958 27.2339 44.7958 27.4098C44.7958 27.5857 44.9028 27.7489 45.0682 27.8281L53.3835 31.7161C53.452 31.7494 53.5255 31.7637 53.599 31.7637C53.7277 31.7637 53.8563 31.7161 53.9499 31.6242L57.8611 27.8249C58.0432 27.6475 58.0465 27.3639 57.8694 27.1817ZM53.4971 30.7338L46.3948 27.4114L53.4904 24.0985L56.8352 27.4922L53.4988 30.7338H53.4971ZM50.1021 32.8093C50.0169 32.9757 49.8432 33.0723 49.6611 33.0723C49.5892 33.0723 49.5157 33.0565 49.4472 33.0264L41.5396 29.4014L40.9097 29.1114C40.7627 29.0433 40.6674 28.9165 40.6424 28.7755C40.6524 28.69 40.6624 28.6044 40.6691 28.5204C40.7042 28.1846 40.7192 27.8455 40.7192 27.5017C40.7192 27.0565 40.6908 26.6208 40.6374 26.1898C40.6357 26.1835 40.6357 26.1772 40.6357 26.1708C40.6173 25.9855 40.7226 25.7985 40.9097 25.7129L41.5112 25.4373L49.4489 21.798C49.6928 21.6871 49.9869 21.7821 50.1038 22.015C50.2208 22.2463 50.1205 22.5236 49.8766 22.6345L41.6448 26.4069C41.6799 26.7681 41.6983 27.1325 41.6983 27.5017C41.6983 27.8122 41.6849 28.1196 41.6615 28.4254L49.8766 32.1914C50.1205 32.3023 50.2208 32.5796 50.1038 32.8109L50.1021 32.8093ZM12.9331 26.9931L4.61777 23.113C4.42397 23.0211 4.19173 23.0639 4.04304 23.2128L0.131816 27.1817C-0.0469534 27.3623 -0.0436139 27.6459 0.140168 27.8249L4.05139 31.6242C4.14662 31.7161 4.27359 31.7637 4.40224 31.7637C4.47575 31.7637 4.54927 31.7478 4.61777 31.7161L12.9331 27.8281C13.1001 27.7489 13.2054 27.5873 13.2054 27.4098C13.2054 27.2324 13.0985 27.0723 12.9331 26.9931ZM4.50416 30.7338L1.16935 27.4922L4.51252 24.0985L11.6082 27.4114L4.50583 30.7338H4.50416ZM33.4431 3.84074L29.4367 0.131734C29.2512 -0.0409617 28.9522 -0.0441304 28.76 0.123813L24.5748 3.83282C24.4161 3.97383 24.3743 4.19406 24.4696 4.37784L28.5612 12.2632C28.6431 12.4217 28.8152 12.5215 29.0006 12.5215C29.1861 12.5215 29.3582 12.4201 29.44 12.2632L33.5417 4.37784C33.6353 4.19881 33.5952 3.98175 33.4431 3.84074ZM29.0023 11.0053L25.5088 4.27644L29.0875 1.10612L32.5042 4.26852L29.0023 11.0037V11.0053ZM31.0757 39.3449L34.9201 46.8896C35.037 47.1225 34.9368 47.3998 34.6929 47.5107C34.6244 47.5424 34.5508 47.5566 34.479 47.5566C34.2969 47.5566 34.1231 47.46 34.0379 47.2936L30.0465 39.4605C29.7157 39.4874 29.3799 39.4985 29.0424 39.4985C28.6765 39.4985 28.3156 39.4827 27.9581 39.4542L23.9617 47.292C23.8765 47.46 23.7027 47.5551 23.5206 47.5551C23.4487 47.5551 23.3752 47.5392 23.3067 47.5091C23.0628 47.3982 22.9625 47.1209 23.0795 46.888L26.9306 39.3306C21.5925 38.4766 17.3806 34.4428 16.5419 29.3602L8.55405 33.0232C8.48555 33.0549 8.41203 33.0692 8.34019 33.0692C8.15975 33.0692 7.98432 32.9709 7.89911 32.8062C7.78216 32.5748 7.8824 32.2976 8.128 32.1867L16.4249 28.381C16.4015 28.0895 16.3898 27.7948 16.3898 27.4969C16.3898 27.1405 16.4065 26.7887 16.44 26.4402L8.12634 22.6282C7.88074 22.5173 7.7805 22.24 7.89745 22.0087C8.0144 21.7758 8.30845 21.6807 8.55238 21.7916L16.5703 25.469C17.4725 20.4655 21.6494 16.5078 26.9306 15.6633L23.0795 8.10586C22.9625 7.87296 23.0628 7.59569 23.3067 7.48479C23.5506 7.37388 23.8447 7.46895 23.9617 7.70185L27.9581 15.5397C28.3156 15.5096 28.6765 15.4954 29.0424 15.4954C29.3799 15.4954 29.7157 15.508 30.0465 15.5334L34.0379 7.70026C34.1549 7.46736 34.4489 7.3723 34.6929 7.4832C34.9368 7.59411 35.037 7.87137 34.9201 8.10428L31.0757 15.649C36.3803 16.465 40.5889 20.4196 41.5095 25.4293L40.908 25.705C40.7209 25.7922 40.6157 25.9775 40.634 26.1629C39.939 20.6826 35.0053 16.4222 29.0424 16.4222C22.605 16.4222 17.3689 21.3892 17.3689 27.4938C17.3689 33.5984 22.605 38.5653 29.0424 38.5653C35.027 38.5653 39.9724 34.2749 40.6407 28.7692C40.6674 28.9102 40.761 29.037 40.908 29.1051L41.5379 29.395C40.6808 34.4824 36.4371 38.5146 31.0757 39.3401V39.3449ZM33.54 50.6224L29.4384 42.737C29.3565 42.5785 29.1844 42.4787 28.999 42.4787C28.8135 42.4787 28.6414 42.5801 28.5596 42.737L24.4679 50.6224C24.371 50.8062 24.4144 51.0264 24.5732 51.1674L28.7584 54.8764C28.8536 54.9588 28.9722 55 29.0925 55C29.2128 55 29.3398 54.9572 29.4334 54.8685L33.4398 51.1595C33.5918 51.0185 33.6303 50.8014 33.5384 50.6224H33.54ZM29.0858 53.8941L25.5071 50.7238L29.0006 43.995L32.5025 50.7301L29.0858 53.8925V53.8941ZM54.4711 3.9263C54.4678 3.67755 54.2606 3.47634 53.9983 3.46841L48.2744 3.28463C48.0872 3.27512 47.9235 3.3686 47.8316 3.51753L39.9841 16.4507C39.8738 16.6329 39.9056 16.8627 40.0626 17.0116C40.1562 17.1019 40.2815 17.1479 40.4085 17.1479C40.492 17.1479 40.5772 17.1273 40.6524 17.0861L54.2957 9.64587C54.4494 9.5619 54.5447 9.40504 54.5413 9.23868L54.4745 3.92947L54.4711 3.9263ZM41.7384 15.4177L48.5333 4.21941L53.4988 4.37943L53.5556 8.97251L41.7384 15.4177ZM17.7949 37.9981C17.6379 37.8492 17.3956 37.8191 17.2035 37.9237L3.5652 45.367C3.40815 45.4526 3.31292 45.6126 3.3196 45.7853L3.5134 51.2134C3.52176 51.4621 3.73394 51.6601 3.99625 51.6617L9.59492 51.7251H9.59994C9.77704 51.7251 9.93743 51.6364 10.0243 51.4922L17.8701 38.5543C17.9804 38.3736 17.9486 38.1439 17.7916 37.995L17.7949 37.9981ZM9.32092 50.7951L4.47743 50.7412L4.30868 46.0341L16.1175 39.5888L9.32092 50.7951ZM54.2272 45.4304L40.5873 37.9871C40.3951 37.8841 40.1528 37.9126 39.9958 38.0615C39.8387 38.2104 39.8087 38.4402 39.9173 38.6224L47.7631 51.5587C47.85 51.7045 48.0137 51.7932 48.1875 51.7932H48.1942L53.7928 51.7299C54.0535 51.7267 54.2673 51.5286 54.2757 51.2815L54.4695 45.8519C54.4762 45.6792 54.3809 45.5191 54.2239 45.4336L54.2272 45.4304ZM53.315 50.803L48.4715 50.8585L41.6749 39.6506L53.4837 46.0958L53.315 50.803ZM17.9436 16.3874L10.0945 3.45257C10.0043 3.30364 9.83718 3.21333 9.65339 3.21967L3.92776 3.40346C3.66712 3.41138 3.4566 3.61418 3.45493 3.86134L3.3881 9.17056C3.38643 9.34008 3.47999 9.49535 3.6337 9.57932L17.277 17.0195C17.3539 17.0607 17.4374 17.0813 17.5209 17.0813C17.6479 17.0813 17.7749 17.0354 17.8685 16.9451C18.0255 16.7961 18.0556 16.5664 17.947 16.3842L17.9436 16.3874ZM4.3705 8.9123L4.42898 4.31922L9.39276 4.1592L16.1893 15.3575L4.3705 8.9123Z" fill="var(--fill-0, white)"/>
</svg>
