<svg preserveAspectRatio="none" width="100%" height="100%" overflow="visible" viewBox="0 0 44 52" fill="none" xmlns="http://www.w3.org/2000/svg">
<path id="Vector" d="M43.9941 26.2113C43.9895 26.1829 43.9834 26.1546 43.9726 26.1277C43.9634 26.1008 43.9511 26.0754 43.9358 26.05C43.9281 26.0366 43.9204 26.0231 43.9097 26.0112C43.9051 26.0052 43.9005 25.9993 43.8958 25.9933L43.882 25.9783L22.3534 0.164269C22.269 0.0612274 22.1369 0 21.9987 0C21.8605 0 21.7315 0.0612274 21.644 0.164269L10.9849 12.9444L10.9618 12.9727L0.101554 25.9948C-0.0351204 26.159 -0.0335864 26.395 0.104624 26.5563L21.6486 51.8402C21.733 51.9418 21.8636 52 21.9987 52C22.1338 52 22.2628 51.9418 22.3504 51.8402L43.8728 26.5817L43.8943 26.5563C43.9066 26.5413 43.9173 26.5264 43.9281 26.5115C43.9358 26.4995 43.9434 26.4876 43.9496 26.4741C43.9527 26.4682 43.9557 26.4622 43.9588 26.4562C43.9665 26.4398 43.9742 26.4234 43.9788 26.4054C43.9818 26.398 43.9834 26.392 43.9849 26.3845C43.9895 26.3711 43.9911 26.3577 43.9941 26.3442L43.9987 26.3129C44.0018 26.2785 43.9987 26.2427 43.9957 26.2098L43.9941 26.2113ZM41.4956 24.5253C36.9055 21.7761 27.2507 15.9938 23.625 13.8329H32.5779L41.4971 24.5253H41.4956ZM22.4548 1.69495L31.8377 12.9444H22.4548V1.69495ZM22.4548 14.1749C25.1699 15.7892 35.3637 21.8955 41.9317 25.829H22.4548V14.1749ZM21.5426 1.69495V12.9444H12.1612L21.5426 1.69495ZM11.421 13.8314H20.3755C16.7498 15.9923 7.09039 21.7775 2.50334 24.5253L11.4225 13.8314H11.421ZM21.5426 14.1779V25.829H2.06875C8.63835 21.8925 18.8398 15.7847 21.5426 14.1779ZM21.5426 26.7176V50.3245L1.42684 26.7176H21.5426ZM22.4548 50.3245V26.7176H42.5721L22.4548 50.3245Z" fill="var(--fill-0, white)"/>
</svg>
