<svg preserveAspectRatio="none" width="100%" height="100%" overflow="visible" viewBox="0 0 13 16" fill="none" xmlns="http://www.w3.org/2000/svg">
<path id="Vector" d="M6.50052 5.32067C5.70626 5.32067 5.03301 5.06285 4.48078 4.54722C3.92786 4.03093 3.65139 3.40197 3.65139 2.66034C3.65139 1.9187 3.92751 1.28974 4.47974 0.773456C5.03197 0.25717 5.70556 -0.000648193 6.50052 1.22378e-06C7.29548 0.00065064 7.96908 0.258469 8.52131 0.773456C9.07354 1.28844 9.34965 1.9174 9.34965 2.66034C9.34965 3.40327 9.07354 4.0319 8.52131 4.54624C7.96908 5.06058 7.29548 5.31872 6.50052 5.32067ZM6.50052 4.34655C7.00198 4.34655 7.42832 4.18289 7.77955 3.85559C8.13078 3.52828 8.3064 3.13019 8.3064 2.66131C8.3064 2.19243 8.13078 1.79434 7.77955 1.46703C7.42832 1.13973 7.00198 0.975425 6.50052 0.974126C5.99906 0.972827 5.57272 1.1368 5.22149 1.46606C4.87026 1.79531 4.69465 2.19341 4.69465 2.66034C4.69465 3.12727 4.87026 3.52536 5.22149 3.85461C5.57272 4.18387 5.99906 4.34785 6.50052 4.34655ZM5.73582 15.697L0.803306 11.0894C0.535538 10.8401 0.334885 10.553 0.201348 10.2283C0.0678114 9.9036 0.000695503 9.55162 0 9.17236C0 8.42683 0.274724 7.79819 0.824171 7.28645C1.37362 6.77471 2.0486 6.51917 2.84913 6.51982C3.23861 6.51982 3.59819 6.58703 3.92786 6.72146C4.25752 6.85654 4.56285 7.05526 4.84383 7.31763L6.50052 8.86454L8.15825 7.31763C8.42533 7.0676 8.72822 6.87213 9.06693 6.7312C9.40564 6.59028 9.77008 6.51982 10.1603 6.51982C10.9531 6.51982 11.625 6.77569 12.1758 7.28743C12.7253 7.79917 13 8.42748 13 9.17236C13 9.55162 12.9336 9.9036 12.8007 10.2283C12.6679 10.553 12.4669 10.8404 12.1977 11.0904L7.26523 15.697C7.14977 15.8042 7.02876 15.8815 6.90218 15.9289C6.7749 15.9763 6.64101 16 6.50052 16C6.36003 16 6.22649 15.9763 6.09991 15.9289C5.97333 15.8815 5.85197 15.8042 5.73582 15.697ZM6.50052 15.02L11.4476 10.4007C11.6312 10.2299 11.762 10.0416 11.8399 9.83574C11.9185 9.63052 11.9578 9.41492 11.9578 9.18892C11.9578 8.73693 11.7832 8.34143 11.4341 8.00244C11.0849 7.66344 10.6568 7.49394 10.1498 7.49394C9.91614 7.49394 9.70297 7.52771 9.51031 7.59525C9.31766 7.66279 9.13022 7.78358 8.948 7.95763L6.50052 10.2429L4.09269 7.99562C3.96611 7.86963 3.80266 7.75436 3.60236 7.6498C3.40066 7.5459 3.15237 7.49394 2.85748 7.49394C2.34628 7.49394 1.91611 7.66182 1.56697 7.99757C1.21783 8.33331 1.0436 8.72524 1.0443 9.17333C1.0443 9.39738 1.08429 9.61331 1.16427 9.82113C1.24495 10.0289 1.37501 10.2182 1.55445 10.389L6.50052 15.02Z" fill="var(--fill-0, white)"/>
</svg>
