<svg preserveAspectRatio="none" width="100%" height="100%" overflow="visible" viewBox="0 0 94 28" fill="none" xmlns="http://www.w3.org/2000/svg">
<path id="Vector" d="M84.6438 24.5508C79.7809 24.5508 75.6377 22.6891 75.0931 18.2399C75.089 18.2068 75.0919 18.1733 75.1014 18.1414C75.111 18.1094 75.1271 18.0795 75.1488 18.0536C75.1706 18.0276 75.1974 18.006 75.2279 17.99C75.2584 17.9741 75.2919 17.9641 75.3265 17.9606L80.3547 17.3277C80.3918 17.3238 80.4293 17.327 80.4651 17.3371C80.5008 17.3472 80.5342 17.364 80.5631 17.3865C80.592 17.409 80.616 17.4368 80.6337 17.4682C80.6514 17.4997 80.6623 17.5341 80.666 17.5697C80.8702 19.785 82.5041 20.7903 84.7605 20.7903C87.0169 20.7903 88.3785 19.9432 88.3785 18.4539C88.3785 17.1322 86.7835 16.6482 83.5156 15.8756C79.4794 14.9448 75.735 13.744 75.735 9.60191C75.735 5.17124 79.8101 3.43993 84.3423 3.43993C88.8745 3.43993 92.7745 4.88269 93.4262 9.27613C93.4347 9.34251 93.4162 9.40948 93.3746 9.46319C93.333 9.5169 93.2713 9.55323 93.2025 9.56468L88.3396 10.3559C88.3018 10.3611 88.2632 10.3589 88.2263 10.3494C88.1894 10.3399 88.1549 10.3233 88.1249 10.3007C88.0949 10.2781 88.07 10.2498 88.0517 10.2177C88.0335 10.1856 88.0222 10.1503 88.0186 10.1139C87.7949 8.06607 86.4333 7.14457 84.4298 7.14457C82.7084 7.14457 81.2787 7.7496 81.2787 9.15512C81.2787 10.5606 82.7959 11.0167 85.6066 11.6125C89.3413 12.4223 94 13.381 94 18.1282C94 22.8753 89.5553 24.5508 84.6438 24.5508ZM71.8058 5.37602C73.4786 6.98633 73.6926 9.16443 73.6926 11.78V24.1226C73.6926 24.1564 73.6855 24.1898 73.6717 24.221C73.6579 24.2521 73.6377 24.2802 73.6123 24.3037C73.5868 24.3271 73.5567 24.3454 73.5237 24.3575C73.4907 24.3696 73.4555 24.3752 73.4202 24.3739H68.0419C67.9713 24.3739 67.9035 24.3478 67.8527 24.3009C67.8019 24.254 67.7721 24.1901 67.7696 24.1226V12.264C67.7696 10.4024 67.6042 9.4716 66.6803 8.59663C66.3116 8.28316 65.8766 8.04941 65.405 7.91127C64.9334 7.77314 64.4362 7.73386 63.9473 7.79613C62.1481 7.79613 60.057 8.95965 60.057 13.1018V24.1226C60.0545 24.1901 60.0247 24.254 59.9739 24.3009C59.9231 24.3478 59.8553 24.3739 59.7847 24.3739H54.4355C54.365 24.3739 54.2971 24.3478 54.2463 24.3009C54.1955 24.254 54.1657 24.1901 54.1632 24.1226V4.23112C54.1632 4.162 54.1919 4.09571 54.243 4.04683C54.294 3.99795 54.3633 3.9705 54.4355 3.9705H59.7069C59.7422 3.97047 59.7772 3.97727 59.8097 3.99048C59.8422 4.00368 59.8716 4.02303 59.8961 4.04737C59.9206 4.0717 59.9398 4.10051 59.9524 4.13209C59.965 4.16366 59.9708 4.19735 59.9695 4.23112V6.41853C59.9718 6.4461 59.9833 6.47224 60.0022 6.49317C60.0211 6.5141 60.0464 6.52873 60.0746 6.53495C60.1028 6.54117 60.1323 6.53866 60.1588 6.52777C60.1854 6.51688 60.2076 6.49818 60.2224 6.47438C61.4089 4.3149 63.6556 3.48647 66.1843 3.48647C68.9075 3.48647 70.4636 4.0915 71.8058 5.37602ZM49.5143 6.04621C51.5567 8.03815 52.5779 11.054 52.6654 14.8796C52.6655 14.9472 52.6381 15.0121 52.5891 15.0607C52.5402 15.1093 52.4734 15.1378 52.4028 15.1402L37.5808 15.5963C37.5454 15.5975 37.5107 15.6055 37.4786 15.6198C37.4465 15.6342 37.4178 15.6545 37.3942 15.6797C37.3706 15.705 37.3526 15.7345 37.3412 15.7665C37.3298 15.7986 37.3252 15.8325 37.3279 15.8663C37.5516 19.0683 39.273 20.66 42.3464 20.5203C44.9334 20.4366 46.2367 19.3196 46.6452 17.3556C46.6585 17.2931 46.6937 17.2369 46.745 17.1963C46.7963 17.1556 46.8606 17.133 46.9272 17.1322L52.0916 17.4114C52.1304 17.4145 52.168 17.4255 52.2019 17.4437C52.2359 17.4619 52.2653 17.4868 52.2884 17.5168C52.3114 17.5467 52.3275 17.5811 52.3355 17.6175C52.3435 17.6539 52.3432 17.6916 52.3348 17.7279C51.1871 22.0748 47.7734 24.3367 42.4728 24.4949C39.6653 24.6998 36.8877 23.8293 34.7506 22.0748C32.6692 20.2132 31.58 17.6255 31.4632 14.2374C31.366 11.0261 32.1927 8.26154 34.1865 6.30684C35.1793 5.3652 36.3601 4.62446 37.6584 4.12872C38.9567 3.63299 40.3459 3.39241 41.7434 3.42132C43.1586 3.31236 44.582 3.48978 45.9208 3.94203C47.2597 4.39427 48.484 5.11121 49.5143 6.04621ZM41.8698 7.36796C41.1674 7.32572 40.4647 7.44771 39.8226 7.72339C39.1804 7.99907 38.6179 8.42017 38.1838 8.95034C37.639 9.68358 37.3037 10.5403 37.2112 11.4356C37.2084 11.4709 37.2135 11.5064 37.226 11.5398C37.2386 11.5731 37.2584 11.6035 37.2841 11.629C37.3098 11.6545 37.3409 11.6745 37.3753 11.6877C37.4096 11.7009 37.4465 11.707 37.4835 11.7055L46.2367 11.4449C46.2739 11.444 46.3105 11.4355 46.344 11.42C46.3775 11.4046 46.4072 11.3825 46.4311 11.3552C46.455 11.3279 46.4726 11.2961 46.4827 11.2618C46.4927 11.2275 46.4951 11.1916 46.4896 11.1564C46.3928 10.1179 45.9456 9.13772 45.2155 8.36393C44.7615 7.98339 44.2292 7.69815 43.653 7.5266C43.0767 7.35505 42.4693 7.30101 41.8698 7.36796ZM12.4396 0.293788L4.38668 12.9901C4.3694 13.0113 4.34728 13.0285 4.322 13.0404C4.29671 13.0522 4.26894 13.0584 4.24079 13.0584C4.21265 13.0584 4.18487 13.0522 4.15959 13.0404C4.13431 13.0285 4.11218 13.0113 4.09491 12.9901C3.38492 12.1896 0.739513 8.75487 4.0171 5.62734C6.45549 3.40258 9.21296 1.52202 12.2062 0.0424682C12.241 0.0128442 12.2867 -0.00232804 12.3332 0.000290378C12.3797 0.0029088 12.4233 0.0231028 12.4542 0.0564298C12.4852 0.0897568 12.501 0.133488 12.4983 0.178001C12.4955 0.222514 12.4744 0.264164 12.4396 0.293788ZM11.9922 27.9296C12.0245 27.9617 12.0687 27.9802 12.1152 27.9811C12.1617 27.982 12.2067 27.9651 12.2402 27.9343C12.2738 27.9034 12.2931 27.8611 12.294 27.8165C12.295 27.772 12.2774 27.729 12.2451 27.6969C10.4458 25.0813 4.46449 16.3968 3.63779 15.0472C2.8111 13.6975 1.21608 11.6125 1.07992 9.77877C1.07072 9.74219 1.04893 9.70965 1.01805 9.68637C0.987178 9.66309 0.949018 9.65044 0.909714 9.65044C0.870411 9.65044 0.83225 9.66309 0.801377 9.68637C0.770503 9.70965 0.748712 9.74219 0.739513 9.77877C0.632529 10.058 0.51582 10.3838 0.408837 10.7654C-0.234655 13.0953 -0.11627 15.5581 0.748033 17.8216C1.61234 20.0851 3.181 22.0406 5.24255 23.4245L11.9728 27.9296H11.9922ZM13.101 27.7062L21.1539 15.0099C21.1712 14.9887 21.1933 14.9715 21.2186 14.9596C21.2439 14.9478 21.2717 14.9416 21.2998 14.9416C21.328 14.9416 21.3557 14.9478 21.381 14.9596C21.4063 14.9715 21.4284 14.9887 21.4457 15.0099C22.1557 15.8197 24.8011 19.2451 21.5235 22.3727C19.0851 24.5974 16.3276 26.478 13.3344 27.9575C13.2996 27.9872 13.2539 28.0023 13.2074 27.9997C13.1609 27.9971 13.1173 27.9769 13.0864 27.9436C13.0554 27.9102 13.0396 27.8665 13.0423 27.822C13.0451 27.7775 13.0662 27.7358 13.101 27.7062ZM13.5484 0.0703914C13.5161 0.0382987 13.4719 0.0197799 13.4254 0.0189071C13.3789 0.0180342 13.3339 0.0348798 13.3004 0.0657381C13.2668 0.0965965 13.2475 0.13894 13.2466 0.183453C13.2456 0.227966 13.2632 0.271002 13.2955 0.303095C15.0948 2.92799 21.0761 11.6404 21.9125 12.9528C22.7489 14.2653 24.3245 16.3968 24.4607 18.2585C24.4699 18.295 24.4917 18.3276 24.5225 18.3509C24.5534 18.3741 24.5916 18.3868 24.6309 18.3868C24.6702 18.3868 24.7083 18.3741 24.7392 18.3509C24.7701 18.3276 24.7919 18.295 24.8011 18.2585C24.9081 17.9792 25.0248 17.6534 25.1318 17.2718C25.7838 14.9338 25.6668 12.4603 24.7965 10.1883C23.9263 7.91625 22.3453 5.9563 20.2689 4.57552L13.5484 0.0703914Z" fill="var(--fill-0, white)"/>
</svg>
