<svg preserveAspectRatio="none" width="100%" height="100%" overflow="visible" viewBox="0 0 9 9" fill="none" xmlns="http://www.w3.org/2000/svg">
<path id="Vector 4706" d="M0.146447 8.14645C-0.0488155 8.34171 -0.0488155 8.65829 0.146447 8.85355C0.341709 9.04882 0.658291 9.04882 0.853553 8.85355L0.5 8.5L0.146447 8.14645ZM9 0.5C9 0.223858 8.77614 0 8.5 0H4C3.72386 0 3.5 0.223858 3.5 0.5C3.5 0.776142 3.72386 1 4 1H8V5C8 5.27614 8.22386 5.5 8.5 5.5C8.77614 5.5 9 5.27614 9 5V0.5ZM0.5 8.5L0.853553 8.85355L8.85355 0.853553L8.5 0.5L8.14645 0.146447L0.146447 8.14645L0.5 8.5Z" fill="var(--stroke-0, white)"/>
</svg>
