<svg preserveAspectRatio="none" width="100%" height="100%" overflow="visible" viewBox="0 0 58 52" fill="none" xmlns="http://www.w3.org/2000/svg">
<path id="Vector" d="M53.6709 22.9825C55.4561 21.2104 56.7063 18.6787 57.3881 15.4568C58.2247 11.4965 58.2042 6.46028 57.3219 0.485769L57.2492 0L41.798 4.06018L41.7128 4.14795L29.0001 17.1245L16.2874 4.14795L16.2022 4.06018L0.749361 0L0.676754 0.485769C-0.20401 6.46028 -0.22453 11.4965 0.612038 15.4568C1.29392 18.6787 2.54561 21.2104 4.32924 22.9825C6.56114 25.198 9.05348 25.6807 10.3778 25.7685L5.6346 31.8746L0.913518 52L20.0378 45.4035L26.3673 32.4966C26.4036 38.1049 26.7998 45.3793 28.3703 50.1871L28.3861 50.2355L29.0001 51.2252L29.6141 50.2355L29.6299 50.1871C31.2004 45.3793 31.5966 38.1049 31.6329 32.4966L37.9624 45.4035L57.0867 52L52.3656 31.8731L47.6224 25.767C48.9467 25.6792 51.439 25.1964 53.6709 22.981V22.9825ZM26.3704 30.4642L19.3827 44.7119L2.15416 50.6562L6.47275 32.2439L11.5016 25.7685L26.4872 25.7306C26.4415 26.8187 26.3862 28.4758 26.3704 30.4642ZM26.5677 23.9177C26.5488 24.125 26.5346 24.5442 26.5267 24.8665L11.0502 24.9059L11.0407 24.918C10.2941 24.9377 7.44822 24.8332 4.97955 22.3832C2.37514 19.7985 -0.319235 14.0101 1.50069 1.09412L15.7176 4.83045L28.4224 17.7964L28.1809 22.5618C28.1619 22.5618 28.1398 22.5648 28.1193 22.5678C26.8882 22.6344 26.6135 23.4198 26.5677 23.9177ZM29.0017 49.1732C26.9434 41.9683 27.2323 29.7379 27.3948 25.7276C27.4059 25.4507 27.4153 25.2146 27.4264 25.0209C27.4264 25.0073 27.4264 24.9921 27.4264 24.977C27.4343 24.638 27.4469 24.1871 27.4659 23.9964C27.4659 23.9752 27.4706 23.954 27.4738 23.9343C27.4738 23.9147 27.4769 23.895 27.4816 23.8768H27.4848C27.5385 23.615 27.701 23.4486 28.1635 23.4289C28.1793 23.4289 28.1967 23.4289 28.2125 23.4289C28.233 23.4289 28.2567 23.4289 28.2788 23.4289H29.9614C29.9361 23.4289 29.9108 23.4289 29.8856 23.435C30.116 23.4501 30.2676 23.5061 30.3654 23.5923C30.4065 23.6302 30.4396 23.671 30.4649 23.7195C30.4886 23.7618 30.5091 23.8072 30.5185 23.8557C30.528 23.8935 30.5343 23.9313 30.5343 23.9722V23.9782C30.5343 23.9782 30.5375 23.9934 30.5375 23.9994C30.5548 24.1916 30.5691 24.6411 30.5769 24.98C30.5769 24.9952 30.5769 25.0103 30.5769 25.0239C30.588 25.2176 30.5975 25.4552 30.6085 25.7306C30.7711 29.7409 31.0599 41.9699 29.0017 49.1762V49.1732ZM51.5306 32.2439L55.8492 50.6562L38.6206 44.7119L31.6329 30.4642C31.6171 28.4758 31.5603 26.8172 31.5161 25.7306L46.5017 25.7685L51.5306 32.2439ZM46.9626 24.918L46.9531 24.9059L31.4766 24.8665C31.4688 24.5442 31.4561 24.125 31.4356 23.9177C31.3883 23.4213 31.1152 22.6344 29.884 22.5678C29.8635 22.5648 29.8414 22.5633 29.8225 22.5618L29.581 17.7964L42.2857 4.83045L56.5026 1.09412C58.3226 14.0116 55.6282 19.8 53.0254 22.3817C50.5567 24.8317 47.7108 24.9362 46.9642 24.9165L46.9626 24.918Z" fill="var(--fill-0, white)"/>
</svg>
