<svg preserveAspectRatio="none" width="100%" height="100%" overflow="visible" viewBox="0 0 18.2001 19.2" fill="none" xmlns="http://www.w3.org/2000/svg">
<path id="Vector" d="M8.92813 0.0501953C9.03956 0.0504189 9.13121 0.138717 9.13125 0.250391V0.978906C9.13125 0.98825 9.12946 0.997365 9.12832 1.00625C9.12949 1.01523 9.13124 1.02415 9.13125 1.03359V6.16934C10.5417 6.25092 11.7237 7.17532 12.1615 8.43691C12.5585 8.46243 13.7595 8.54568 14.9584 8.68789C16.3022 8.84723 17.081 9.00921 17.5307 9.16738C17.9784 9.32491 18.1167 9.48524 18.1449 9.65273C18.1727 9.82041 18.0772 9.95189 17.9525 10.0492C17.8275 10.1468 17.6619 10.2194 17.5238 10.2738L17.515 10.2777H17.5131C16.1382 10.8149 13.8244 11.0114 11.9486 11.0785C11.4051 12.0869 10.3541 12.7918 9.13125 12.8627V18.9496C9.13121 19.0613 9.03956 19.1496 8.92813 19.1498C8.81649 19.1498 8.72406 19.0614 8.72402 18.9496V18.223C3.92332 18.1166 0.0501953 14.2534 0.0501953 9.51504C0.0502728 4.77678 3.92337 0.913447 8.72402 0.807031V0.250391C8.72406 0.138576 8.81649 0.0501953 8.92813 0.0501953ZM8.72402 1.15762C4.11819 1.26399 0.405742 4.97313 0.405664 9.51504C0.405664 14.057 4.11815 17.7661 8.72402 17.8725V14.2689C6.14468 14.1639 4.07852 12.073 4.07852 9.51504C4.07859 6.95713 6.14472 4.86616 8.72402 4.76113V1.15762ZM8.72402 5.11172C6.33963 5.21589 4.43406 7.15197 4.43398 9.51504C4.43398 11.8782 6.33959 13.8142 8.72402 13.9184V12.8627C6.93482 12.7589 5.51016 11.2984 5.51016 9.51504C5.51023 7.73169 6.93486 6.27112 8.72402 6.16738V5.11172ZM11.4701 11.0922C10.3977 11.1193 9.52102 11.1074 9.13125 11.098V12.4604C10.1159 12.396 10.97 11.8658 11.4701 11.0922ZM8.92813 6.56289C7.26673 6.56307 5.91738 7.88876 5.91738 9.51602C5.91743 11.1257 7.15813 12.3578 8.725 12.4594V10.2084C8.72503 10.1539 8.74783 10.1028 8.7875 10.0648C8.82704 10.0271 8.8811 10.0083 8.93301 10.0092H8.93398C9.56473 10.0259 10.8564 10.0311 11.9027 9.9584C11.925 9.81396 11.9388 9.66674 11.9389 9.51602L11.9242 9.23184C11.9065 9.04491 11.8702 8.86336 11.8178 8.68789L11.8158 8.68105V8.68008C11.4474 7.45833 10.2928 6.56289 8.92813 6.56289ZM11.809 10.3666C10.7723 10.4331 9.60241 10.4206 9.13125 10.4125V10.6977C9.53413 10.7058 10.5127 10.7182 11.6928 10.682C11.7376 10.5797 11.7763 10.4745 11.809 10.3666ZM12.308 9.03359C12.4493 9.05439 12.6701 9.09021 12.8969 9.14004C13.1892 9.20408 13.4069 9.27124 13.557 9.35C13.707 9.42872 13.7984 9.52349 13.8227 9.64395L13.8295 9.70449C13.8297 9.76476 13.8106 9.82283 13.7748 9.87637C13.7516 9.91094 13.7215 9.94344 13.685 9.97402L13.5551 10.0609C13.4274 10.1308 13.235 10.1865 13.0053 10.2309C12.7835 10.2737 12.5224 10.3059 12.2416 10.3314C12.2127 10.445 12.1768 10.5563 12.1361 10.6654C13.9597 10.5922 16.118 10.396 17.3744 9.90176C17.5606 9.82836 17.6557 9.76961 17.7035 9.73184C17.7159 9.72202 17.7234 9.71209 17.7299 9.70547C17.7218 9.69782 17.7101 9.68641 17.6918 9.67422C17.638 9.63843 17.5364 9.58779 17.348 9.52676C16.9697 9.40425 16.2496 9.24382 14.8842 9.08242C13.8209 8.9571 12.7593 8.87825 12.2738 8.84512C12.2868 8.90743 12.2989 8.97006 12.308 9.03359ZM12.3461 9.51504V9.56484H12.3432C12.3414 9.68598 12.3323 9.80548 12.3178 9.92324C12.5487 9.90041 12.7575 9.87393 12.932 9.84023C13.1226 9.80342 13.2682 9.76095 13.3568 9.7123C13.3611 9.70994 13.3647 9.70576 13.3686 9.70352C13.3476 9.69284 13.3222 9.68051 13.2914 9.66836C13.2225 9.64118 13.1338 9.61227 13.0307 9.58438C12.8389 9.53253 12.5983 9.48456 12.3441 9.4457C12.3447 9.46897 12.3461 9.49215 12.3461 9.51504ZM15.2143 2.15859C15.5845 2.15859 15.8871 2.45415 15.8871 2.81973C15.887 3.18517 15.5844 3.47988 15.2143 3.47988C14.8443 3.47963 14.5425 3.18502 14.5424 2.81973C14.5424 2.45431 14.8442 2.15885 15.2143 2.15859Z" fill="var(--fill-0, white)" stroke="var(--stroke-0, white)" stroke-width="0.1"/>
</svg>
