<svg preserveAspectRatio="none" width="100%" height="100%" overflow="visible" viewBox="0 0 12.5159 12.5159" fill="none" xmlns="http://www.w3.org/2000/svg">
<path id="Vector 4705" d="M0.219671 11.2355C-0.0732229 11.5284 -0.0732236 12.0033 0.219669 12.2962C0.512562 12.5891 0.987436 12.5891 1.28033 12.2962L0.75 11.7659L0.219671 11.2355ZM12.5159 0.75001C12.5159 0.335796 12.1801 9.53674e-06 11.7659 9.0003e-06L5.01587 0C4.60166 -5.36442e-07 4.26587 0.335785 4.26587 0.749999C4.26587 1.16421 4.60166 1.5 5.01587 1.5L11.0159 1.50001L11.0159 7.50001C11.0159 7.91422 11.3516 8.25001 11.7659 8.25001C12.1801 8.25001 12.5159 7.91422 12.5159 7.50001L12.5159 0.75001ZM0.75 11.7659L1.28033 12.2962L12.2962 1.28034L11.7659 0.750009L11.2355 0.219678L0.219671 11.2355L0.75 11.7659Z" fill="var(--stroke-0, white)"/>
</svg>
