<svg preserveAspectRatio="none" width="100%" height="100%" overflow="visible" viewBox="0 0 22.4 15.4" fill="none" xmlns="http://www.w3.org/2000/svg">
<path id="Vector" d="M21.8357 0.157041C21.9652 0.061749 22.1452 0.0890879 22.241 0.216611H22.243C22.3391 0.346854 22.311 0.530298 22.1814 0.625791L17.4314 4.13556C17.4777 4.25401 17.5047 4.3828 17.5047 4.51739C17.5045 5.09285 17.0397 5.56134 16.4656 5.56134C16.266 5.56129 16.081 5.50195 15.9227 5.40313L8.40507 10.8016C9.6023 12.2262 11.597 13.3036 14.2654 12.7625C14.4238 12.7299 14.5773 12.8345 14.6092 12.992C14.6411 13.1492 14.5398 13.3034 14.3816 13.3358C13.8782 13.438 13.3795 13.4891 12.8914 13.4891C11.879 13.4891 10.9103 13.2709 10.0379 12.8377C9.2254 12.4357 8.51048 11.8601 7.92558 11.1473L5.19316 13.1111L5.19218 13.1121C5.14138 13.1479 5.08152 13.1658 5.02324 13.1658C4.95457 13.1658 4.88713 13.142 4.83379 13.0965L4.78593 13.0438C4.69163 12.9126 4.72296 12.7293 4.85332 12.6356L7.575 10.6805C7.48115 10.5439 7.39235 10.4025 7.30742 10.2576L0.566207 15.24C0.513212 15.2813 0.451114 15.2996 0.392379 15.2996C0.324815 15.2996 0.258798 15.2763 0.205856 15.2322L0.157028 15.1815C0.0614017 15.0508 0.0886662 14.867 0.218551 14.7713L7.0291 9.73712C5.87429 7.33974 6.17927 4.58955 7.85234 2.77716C9.38838 1.11344 11.1626 0.303297 13.1268 0.383603C14.1619 0.42589 15.1344 0.732597 15.9197 1.11993C16.7027 1.50618 17.3091 1.97773 17.6082 2.35919L17.6092 2.36017C17.707 2.48694 17.6856 2.67062 17.5594 2.77032C17.4317 2.87123 17.2496 2.84694 17.1502 2.72149H17.1492C16.9557 2.47383 16.4647 2.05551 15.7566 1.68829C15.0508 1.32228 14.1374 1.01115 13.1033 0.968564C11.3268 0.895314 9.70346 1.6325 8.28007 3.17462C6.80179 4.77656 6.50862 7.21667 7.50761 9.3836L11.5428 6.40216C11.6738 6.30537 11.8552 6.33403 11.951 6.46368C12.0471 6.59395 12.0191 6.77742 11.8894 6.87286L7.78007 9.90899C7.86317 10.0537 7.95428 10.1975 8.05254 10.3397L15.5311 4.96954C15.4657 4.83287 15.4275 4.68076 15.4275 4.51935C15.4276 3.94463 15.8926 3.47644 16.4666 3.47638C16.6938 3.47638 16.9047 3.5502 17.076 3.6756L21.8357 0.157041ZM16.4666 4.06134C16.2159 4.0614 16.0116 4.26622 16.0115 4.51935C16.0115 4.77276 16.2161 4.97826 16.4666 4.97833C16.7171 4.97833 16.9227 4.77206 16.9227 4.51935C16.9225 4.26692 16.7172 4.06134 16.4666 4.06134Z" fill="var(--fill-0, white)" stroke="var(--stroke-0, white)" stroke-width="0.2"/>
</svg>
