<svg preserveAspectRatio="none" width="100%" height="100%" overflow="visible" style="display: block;" viewBox="0 0 1439 346" fill="none" xmlns="http://www.w3.org/2000/svg">
<g id="Vector" opacity="0.2">
<path d="M1196.42 294.899V237.942L1396.44 161.822L1196.42 85.1702V28.2132L1439 120.835V202.278L1196.42 294.899Z" fill="var(--fill-0, white)"/>
<path d="M891.816 133.077H1024.81C1040.77 133.077 1051.94 130.77 1058.32 126.157C1064.71 121.189 1067.9 114.624 1067.9 106.462C1067.9 98.2995 1064.35 91.9118 1057.26 87.2985C1050.52 82.3303 1040.41 79.8462 1026.94 79.8462H832.767V0H1024.28C1048.39 0 1068.61 2.66153 1084.92 7.9846C1101.24 12.9528 1114.36 20.0502 1124.29 29.2769C1134.57 38.5036 1141.84 49.6821 1146.1 62.8123C1150.71 75.9426 1153.01 90.4923 1153.01 106.462C1153.01 119.592 1151.24 131.303 1147.69 141.594C1144.15 151.53 1139.18 160.402 1132.8 168.209C1143.08 176.726 1150.89 186.84 1156.21 198.551C1161.88 210.262 1164.72 223.924 1164.72 239.538C1164.72 255.508 1162.59 270.057 1158.33 283.188C1154.08 296.318 1146.81 307.496 1136.52 316.723C1126.59 325.95 1113.29 333.225 1096.63 338.548C1079.96 343.516 1059.39 346 1034.92 346H832.767V266.154H1026.4C1045.56 266.154 1059.21 263.847 1067.37 259.234C1075.52 254.266 1079.6 247.701 1079.6 239.538C1079.6 231.376 1075.52 224.989 1067.37 220.375C1059.56 215.407 1046.97 212.923 1029.6 212.923H891.816V133.077Z" fill="var(--fill-0, white)"/>
<path d="M783.152 28.2132V85.1702L583.13 161.29L783.152 237.942V294.899L540.572 202.278V120.835L783.152 28.2132Z" fill="var(--fill-0, white)"/>
<path d="M400.788 0H485.903V346H400.788V0Z" fill="var(--fill-0, white)"/>
<path d="M9.04354 266.154H237.792C253.042 266.154 263.504 263.847 269.178 259.234C275.207 254.621 278.222 248.055 278.222 239.538C278.222 230.667 275.207 224.102 269.178 219.843C263.504 215.23 253.042 212.923 237.792 212.923H118.098C98.2377 212.923 80.8599 210.084 65.9647 204.406C51.0694 198.728 38.6567 190.921 28.7266 180.985C19.151 171.048 11.8807 159.515 6.91565 146.385C2.30522 132.899 0 118.527 0 103.268C0 72.3938 9.75284 47.5528 29.2585 28.7446C49.1189 9.58154 79.4413 0 120.226 0H343.655V79.8462H120.226C104.976 79.8462 94.3366 82.1528 88.3076 86.7662C82.6332 91.0246 79.796 97.5897 79.796 106.462C79.796 114.978 82.6332 121.544 88.3076 126.157C94.3366 130.77 104.976 133.077 120.226 133.077H239.92C259.78 133.077 277.158 135.916 292.053 141.594C306.949 147.272 319.184 155.079 328.759 165.015C338.69 174.952 345.96 186.663 350.57 200.148C355.535 213.278 358.018 227.473 358.018 242.732C358.018 257.992 355.535 272.009 350.57 284.785C345.96 297.56 338.69 308.561 328.759 317.788C318.829 326.659 306.239 333.579 290.989 338.548C276.094 343.516 258.362 346 237.792 346H9.04354V266.154Z" fill="var(--fill-0, white)"/>
</g>
</svg>
