<svg preserveAspectRatio="none" width="100%" height="100%" overflow="visible" viewBox="0 0 101.703 22.4758" fill="none" xmlns="http://www.w3.org/2000/svg">
<g id="Unlock 1" clip-path="url(#clip0_0_49)">
<path id="Vector" d="M23.0533 8.20188V10.5803H0V8.20188H23.0533ZM16.5189 0H20.5169V14.4649C20.5169 16.0506 20.1444 17.4452 19.3992 18.6488C18.654 19.8524 17.6116 20.793 16.2717 21.4704C14.9318 22.1407 13.3663 22.4758 11.5751 22.4758C9.78378 22.4758 8.21823 22.1407 6.87839 21.4704C5.53853 20.793 4.49603 19.8524 3.75087 18.6488C3.01288 17.4452 2.64388 16.0506 2.64388 14.4649V0H6.63121V14.1298C6.63121 15.0523 6.83181 15.874 7.23306 16.5947C7.64144 17.3154 8.21463 17.8812 8.95263 18.292C9.69781 18.6956 10.572 18.8975 11.5751 18.8975C12.5853 18.8975 13.4594 18.6956 14.1974 18.292C14.9426 17.8812 15.5158 17.3154 15.917 16.5947C16.3182 15.874 16.5189 15.0523 16.5189 14.1298V0Z" fill="var(--fill-0, white)"/>
<path id="Vector_2" d="M29.4297 12.4122V22.1421H25.5391V5.53653H29.2577V8.35815H29.4511C29.8309 7.42844 30.4363 6.68971 31.2675 6.14192C32.1058 5.59419 33.1411 5.32031 34.3735 5.32031C35.5127 5.32031 36.5051 5.56536 37.3506 6.05545C38.2032 6.54553 38.8623 7.25549 39.3281 8.1852C39.801 9.11491 40.0338 10.2429 40.0267 11.569V22.1421H36.1361V12.1744C36.1361 11.0645 35.8495 10.196 35.2763 9.56898C34.7103 8.94196 33.9257 8.62842 32.9226 8.62842C32.2419 8.62842 31.6365 8.7798 31.1063 9.08249C30.5832 9.37799 30.1712 9.80683 29.8703 10.369C29.5766 10.9312 29.4297 11.6123 29.4297 12.4122Z" fill="var(--fill-0, white)"/>
<path id="Vector_3" d="M47.5546 0V22.1407H43.6641V0H47.5546Z" fill="var(--fill-0, white)"/>
<path id="Vector_4" d="M58.4415 22.4664C56.8294 22.4664 55.4321 22.1096 54.2499 21.3961C53.0676 20.6826 52.1505 19.6844 51.4985 18.4015C50.8537 17.1186 50.5312 15.6195 50.5312 13.9042C50.5312 12.1888 50.8537 10.6861 51.4985 9.39603C52.1505 8.10592 53.0676 7.10411 54.2499 6.39062C55.4321 5.67707 56.8294 5.32031 58.4415 5.32031C60.0536 5.32031 61.4505 5.67707 62.6327 6.39062C63.8149 7.10411 64.7286 8.10592 65.3736 9.39603C66.0254 10.6861 66.3513 12.1888 66.3513 13.9042C66.3513 15.6195 66.0254 17.1186 65.3736 18.4015C64.7286 19.6844 63.8149 20.6826 62.6327 21.3961C61.4505 22.1096 60.0536 22.4664 58.4415 22.4664ZM58.4629 19.3312C59.3372 19.3312 60.0676 19.0898 60.6554 18.6069C61.2431 18.1168 61.6797 17.4609 61.9663 16.6393C62.2601 15.8177 62.4074 14.9024 62.4074 13.8933C62.4074 12.8771 62.2601 11.9582 61.9663 11.1366C61.6797 10.3078 61.2431 9.64826 60.6554 9.15818C60.0676 8.66809 59.3372 8.42305 58.4629 8.42305C57.5672 8.42305 56.8221 8.66809 56.2276 9.15818C55.6399 9.64826 55.1993 10.3078 54.9054 11.1366C54.6189 11.9582 54.4756 12.8771 54.4756 13.8933C54.4756 14.9024 54.6189 15.8177 54.9054 16.6393C55.1993 17.4609 55.6399 18.1168 56.2276 18.6069C56.8221 19.0898 57.5672 19.3312 58.4629 19.3312Z" fill="var(--fill-0, white)"/>
<path id="Vector_5" d="M76.5354 22.4664C74.8873 22.4664 73.4719 22.1024 72.2897 21.3745C71.1148 20.6465 70.2084 19.6411 69.5707 18.3583C68.9402 17.0682 68.625 15.5835 68.625 13.9042C68.625 12.2176 68.9475 10.7294 69.592 9.43924C70.2371 8.14193 71.1468 7.13294 72.3223 6.41219C73.5045 5.68426 74.9014 5.32031 76.5135 5.32031C77.8536 5.32031 79.0392 5.56896 80.0708 6.06629C81.1098 6.55638 81.9374 7.25183 82.5538 8.15278C83.1697 9.04647 83.5209 10.0915 83.6068 11.2879H79.8882C79.7376 10.4879 79.3797 9.82127 78.8133 9.28792C78.2548 8.74738 77.5058 8.4771 76.5674 8.4771C75.7718 8.4771 75.0733 8.69332 74.4715 9.12576C73.8697 9.551 73.4005 10.1636 73.0634 10.9636C72.7341 11.7636 72.5695 12.7222 72.5695 13.8393C72.5695 14.9708 72.7341 15.9438 73.0634 16.7582C73.3932 17.5654 73.8551 18.1889 74.4502 18.6285C75.052 19.061 75.7577 19.2772 76.5674 19.2772C77.1405 19.2772 77.653 19.1691 78.1042 18.9529C78.5627 18.7294 78.9459 18.4087 79.2544 17.9907C79.5623 17.5726 79.7736 17.0646 79.8882 16.4664H83.6068C83.5136 17.6411 83.1697 18.6826 82.5752 19.5907C81.9807 20.4916 81.171 21.1979 80.1461 21.7096C79.1218 22.2141 77.9182 22.4664 76.5354 22.4664Z" fill="var(--fill-0, white)"/>
<path id="Vector_6" d="M89.7264 16.9299L89.7157 12.2055H90.3394L96.2719 5.53517H100.818L93.5203 13.7082H92.7145L89.7264 16.9299ZM86.1797 22.1407V0H90.0703V22.1407H86.1797ZM96.5405 22.1407L91.1665 14.5839L93.7889 11.8271L101.194 22.1407H96.5405Z" fill="var(--fill-0, white)"/>
</g>
<defs>
<clipPath id="clip0_0_49">
<rect width="101.703" height="22.4758" fill="white"/>
</clipPath>
</defs>
</svg>
