<svg preserveAspectRatio="none" width="100%" height="100%" overflow="visible" viewBox="0 0 94.0705 32.9797" fill="none" xmlns="http://www.w3.org/2000/svg">
<g id="Group 2147231972">
<g id="Group 2147225472">
<circle id="Ellipse 541" cx="16.5661" cy="16.1598" r="13.6889" fill="var(--fill-0, #535353)" stroke="var(--stroke-0, white)" stroke-width="0.94179"/>
<path id="Vector" d="M17.0342 0.480469C19.4011 0.561349 21.7209 1.1652 23.8262 2.25C25.9315 3.33481 27.7704 4.87333 29.21 6.75391C30.6494 8.63435 31.6537 10.8107 32.1514 13.126C32.649 15.4414 32.6276 17.8386 32.0879 20.1445C31.426 22.9691 30.0092 25.5612 27.9893 27.6436C25.9693 29.7259 23.4213 31.2203 20.6182 31.9678C17.8151 32.7152 14.8617 32.6877 12.0732 31.8877C9.28462 31.0876 6.76562 29.5448 4.78516 27.4248C2.62221 25.1099 1.19395 22.2056 0.681641 19.0791C0.169397 15.9527 0.596213 12.7445 1.90723 9.86035C3.21825 6.97638 5.35459 4.54561 8.04688 2.87598C10.5712 1.31059 13.4787 0.479688 16.4414 0.470703L17.0342 0.480469ZM16.9697 2.36035C14.1752 2.2661 11.4153 3.00281 9.03906 4.47656C6.66287 5.95031 4.77661 8.09533 3.61914 10.6406C2.46177 13.1859 2.08499 16.017 2.53613 18.7764C2.87417 20.8396 3.6657 22.8029 4.85352 24.5234C6.04129 26.2438 7.59597 27.6792 9.40527 28.7266C11.2147 29.774 13.2338 30.407 15.3174 30.5801C17.4009 30.7532 19.4967 30.4619 21.4541 29.7275C23.4114 28.9932 25.1821 27.8346 26.6377 26.334C28.0932 24.8334 29.1977 23.0285 29.8721 21.0498C30.5465 19.071 30.7743 16.9668 30.5381 14.8896C30.3018 12.8126 29.6073 10.8138 28.5059 9.03711C27.5275 7.45886 26.2475 6.08895 24.7393 5.00586C22.4678 3.37543 19.7642 2.45464 16.9697 2.36035Z" fill="var(--fill-0, white)" stroke="var(--stroke-0, white)" stroke-width="0.94179"/>
<path id="Vector_2" d="M12.5285 32.0127L12.5083 32.0076L12.4891 32.0036H12.487L12.4779 32.0015L12.4355 31.9914L12.2605 31.951C12.1057 31.9135 11.8761 31.8518 11.5889 31.7608C11.0124 31.5788 10.2033 31.2784 9.27578 30.806C7.04685 29.679 5.11188 28.0471 3.625 26.0402L5.02075 25.5821L10.8678 23.6705C15.8884 22.03 23.2121 19.638 32.5343 16.5977C32.5374 16.8606 32.5323 17.2055 32.506 17.6141C32.4155 18.973 32.1538 20.3149 31.7272 21.6082C30.6946 24.7396 28.3754 28.5314 23.1909 31.1418L23.1828 31.1459L23.1423 31.1641L22.9764 31.2369C22.8288 31.2986 22.6093 31.3886 22.3271 31.4898C21.7627 31.6941 20.9485 31.951 19.9594 32.1593C17.977 32.576 15.3089 32.7915 12.5285 32.0127Z" fill="var(--fill-0, white)" stroke="var(--stroke-0, white)" stroke-width="0.875865"/>
</g>
<path id="Vector_3" d="M88.7119 12.5332C89.5721 12.5332 90.2952 12.6857 90.8945 12.9746L90.8975 12.9766C91.4808 13.252 91.9935 13.658 92.3936 14.1641V14.165C92.7881 14.6701 93.0847 15.2649 93.2793 15.9551L93.2832 15.9668C93.4931 16.6457 93.5996 17.3808 93.5996 18.1748V18.6797H85.7871V19.4531C85.7871 20.4249 86.0539 21.2572 86.626 21.9033V21.9043L86.6309 21.9092C87.2272 22.563 88.085 22.8534 89.1172 22.8535C89.9023 22.8535 90.5888 22.6834 91.1396 22.3047C91.4961 22.0664 91.8214 21.783 92.1182 21.458L93.0576 22.541C92.7128 22.9585 92.284 23.3133 91.7617 23.6016L91.4834 23.7451C90.7321 24.0981 89.842 24.2822 88.8018 24.2822C87.9894 24.2822 87.2765 24.1446 86.6543 23.8809C86.0561 23.6099 85.5212 23.2173 85.085 22.7266C84.6639 22.2199 84.3316 21.609 84.0938 20.8867C83.8557 20.1507 83.7337 19.3183 83.7344 18.3848C83.7344 17.4663 83.8483 16.6488 84.0703 15.9287C84.31 15.2039 84.6431 14.6017 85.0625 14.1123L85.0674 14.1064C85.429 13.6704 85.8769 13.3153 86.3818 13.0625L86.6016 12.96L86.6133 12.9551C87.2169 12.6775 87.9133 12.5332 88.7119 12.5332ZM48.6328 8.7207C49.6006 8.72073 50.4611 8.88286 51.2217 9.19727L51.2266 9.19922C51.982 9.50179 52.6531 9.9828 53.1816 10.6016L53.1904 10.6113C53.7371 11.2169 54.1653 11.9971 54.4639 12.9668L54.4658 12.9756C54.7771 13.9247 54.9385 15.0506 54.9385 16.3613C54.9385 17.6727 54.7778 18.8084 54.4658 19.7744L54.4639 19.7783C54.2028 20.6121 53.8428 21.3168 53.3877 21.8994L53.1865 22.1416C52.6517 22.7506 51.9804 23.2251 51.2275 23.5254L51.2217 23.5273C50.4611 23.8417 49.6005 24.0029 48.6328 24.0029H43.3848V8.7207H48.6328ZM60.3066 12.8125V19.709C60.3066 20.4838 60.433 21.1577 60.7275 21.6895L60.8643 21.9082L60.8691 21.915C61.2979 22.5057 61.9654 22.7604 62.7588 22.7598C63.0871 22.7598 63.4082 22.7148 63.7207 22.625C64.0079 22.5457 64.2696 22.4285 64.5049 22.2744L64.4971 22.2998C64.4267 22.5055 64.3378 22.7043 64.2314 22.8936L64.1191 23.0801L64.1162 23.085C63.982 23.2986 63.8006 23.5004 63.5664 23.6885L63.5625 23.6914C63.3297 23.8825 63.0626 24.0275 62.7754 24.1182L62.7715 24.1191C62.4143 24.2347 62.0404 24.2898 61.665 24.2822H61.6553C60.6262 24.2822 59.8744 23.9624 59.3389 23.3555L59.2344 23.2305C58.678 22.5217 58.3672 21.4702 58.3672 20.0117V12.8125H60.3066ZM77.3223 12.5332C78.4202 12.5332 79.2034 12.8968 79.7441 13.585C80.3003 14.293 80.6113 15.3446 80.6113 16.8037V24.0039H78.6709V17.1074C78.6709 16.1996 78.5174 15.4346 78.1377 14.8867H78.1367C77.7224 14.287 77.0559 14.0315 76.2637 14.0322C76.0016 14.0323 75.7438 14.063 75.4912 14.124L75.2559 14.1904C74.9706 14.2731 74.706 14.4009 74.4619 14.5684L74.4785 14.5234C74.6526 14.0382 74.9353 13.5999 75.3037 13.2422L75.4668 13.0938C75.8832 12.7382 76.4828 12.5332 77.3223 12.5332ZM73.4521 12.8125V14.835H74.1348C73.9699 14.9957 73.8289 15.1794 73.7188 15.3828H73.7178C73.5334 15.7008 73.4521 16.0654 73.4521 16.4561V24.0029H71.5127V12.8125H73.4521ZM67.4668 12.8125V24.0029H65.5254V21.9814H64.8584C65.0131 21.8236 65.1468 21.6482 65.2588 21.4551L65.2598 21.4561L65.2666 21.4443C65.4444 21.1178 65.5254 20.7512 65.5254 20.3594V12.8125H67.4668ZM45.415 22.2256H48.6328C49.768 22.2255 50.7266 21.903 51.4609 21.2236L51.6045 21.083C52.3833 20.2802 52.7285 19.1006 52.7285 17.6396V15.084C52.7285 13.6241 52.3828 12.4489 51.5996 11.6602C50.85 10.8734 49.8425 10.4991 48.6328 10.499H45.415V22.2256ZM88.7578 13.8223C87.8703 13.8223 87.1245 14.1343 86.5752 14.7783C86.0377 15.4063 85.7872 16.2042 85.7871 17.1289V17.7861H91.5469V17.1064C91.5469 16.1946 91.3246 15.4075 90.8379 14.791C90.3454 14.1352 89.6278 13.8223 88.7578 13.8223Z" fill="var(--fill-0, white)" stroke="var(--stroke-0, white)" stroke-width="0.94179"/>
</g>
</svg>
