<svg preserveAspectRatio="none" width="100%" height="100%" overflow="visible" viewBox="0 0 115 29.2864" fill="none" xmlns="http://www.w3.org/2000/svg">
<g id="Group 2147231685">
<g id="Vector">
</g>
<path id="Vector_2" d="M15.1526 16.8693L13.7329 20.7556C13.6906 20.8633 13.6906 20.9831 13.7329 21.0908L16.1705 27.7823L18.9919 26.1528L15.6078 16.8693C15.5914 16.8219 15.5607 16.7808 15.5199 16.7517C15.4791 16.7227 15.4303 16.707 15.3802 16.707C15.3301 16.707 15.2813 16.7227 15.2405 16.7517C15.1997 16.7808 15.169 16.8219 15.1526 16.8693Z" fill="var(--fill-0, white)"/>
<path id="Vector_3" d="M17.9913 10.3275C17.975 10.2801 17.9443 10.2391 17.9035 10.21C17.8627 10.1809 17.8138 10.1653 17.7637 10.1653C17.7136 10.1653 17.6648 10.1809 17.624 10.21C17.5832 10.2391 17.5525 10.2801 17.5361 10.3275L16.1171 14.2139C16.0755 14.3217 16.0755 14.4412 16.1171 14.5491L20.1118 25.5058L22.9331 23.8763L17.992 10.3275H17.9913Z" fill="var(--fill-0, white)"/>
<path id="Vector_4" d="M12.9804 1.81479C13.0515 1.8148 13.1214 1.83347 13.1831 1.86892L23.9382 8.08084C23.9997 8.11561 24.0509 8.16602 24.0866 8.22696C24.1223 8.2879 24.1412 8.3572 24.1415 8.42784V20.8503C24.1412 20.9209 24.1222 20.9902 24.0865 21.0511C24.0508 21.112 23.9996 21.1625 23.9382 21.1973L13.1831 27.4155C13.1216 27.4515 13.0516 27.4702 12.9804 27.4696C12.9091 27.4695 12.8391 27.4508 12.7771 27.4155L2.02197 21.2035C1.96049 21.1688 1.90931 21.1184 1.8736 21.0574C1.83789 20.9965 1.81894 20.9272 1.81866 20.8565V8.42853C1.81901 8.35791 1.83799 8.28864 1.87369 8.22771C1.90939 8.16678 1.96054 8.11636 2.02197 8.08154L12.7771 1.86961C12.8373 1.83429 12.9058 1.81561 12.9756 1.81548M12.9756 0.00069467C12.5856 0.00112476 12.2026 0.104544 11.8654 0.300498L1.11021 6.51242C0.773608 6.70679 0.493913 6.98612 0.299087 7.32249C0.10426 7.65886 0.00112826 8.04049 0 8.42922V20.8517C0.000943528 21.2413 0.103941 21.6239 0.298731 21.9613C0.493521 22.2987 0.773305 22.5791 1.11021 22.7747L11.8654 28.9867C12.2017 29.183 12.5841 29.2864 12.9735 29.2864C13.3629 29.2864 13.7453 29.183 14.0816 28.9867L24.8368 22.7747C25.175 22.5806 25.4559 22.3005 25.6509 21.9628C25.8459 21.625 25.948 21.2417 25.947 20.8517V8.42922C25.9461 8.03961 25.8431 7.65705 25.6483 7.31964C25.4535 6.98224 25.1737 6.70177 24.8368 6.50617L14.0816 0.300498C13.7462 0.107339 13.3667 0.00384852 12.9797 0L12.9756 0.00069467Z" fill="var(--fill-0, white)"/>
<path id="Vector_5" d="M5.87305 25.519L6.86113 22.811L8.8498 24.4641L6.99297 26.1658L5.87305 25.519Z" fill="var(--fill-0, #213147)"/>
<path id="Vector_6" d="M12.0729 7.54091H9.34801C9.24866 7.54017 9.15152 7.57028 9.06999 7.62709C8.98847 7.68389 8.92657 7.76459 8.89283 7.85806L3.04688 23.8893L5.8675 25.5181L12.3067 7.86431C12.3194 7.82731 12.323 7.78781 12.3172 7.74913C12.3114 7.71045 12.2965 7.67372 12.2736 7.64203C12.2506 7.61034 12.2205 7.58461 12.1855 7.56702C12.1506 7.54942 12.112 7.54047 12.0729 7.54091Z" fill="var(--fill-0, white)"/>
<path id="Vector_7" d="M16.8463 7.54091H14.1235C14.0241 7.54017 13.927 7.57028 13.8454 7.62709C13.7639 7.68389 13.702 7.76459 13.6683 7.85806L6.98828 26.1628L9.80891 27.7923L17.0732 7.87055C17.087 7.83376 17.0918 7.79415 17.0871 7.75511C17.0823 7.71607 17.0682 7.67876 17.0459 7.64637C17.0236 7.61397 16.9938 7.58746 16.959 7.5691C16.9243 7.55073 16.8856 7.54106 16.8463 7.54091Z" fill="var(--fill-0, white)"/>
<path id="Vector_8" d="M37.565 10.8779C37.8058 10.8693 38.0442 10.9274 38.2541 11.0459C38.44 11.1597 38.6253 11.3755 38.805 11.6989L42.3667 18.1565C42.3828 18.1832 42.3932 18.213 42.3973 18.2439C42.4013 18.2748 42.399 18.3063 42.3903 18.3362C42.3722 18.3841 42.3209 18.4056 42.2349 18.4056H40.8665C40.8163 18.4102 40.7659 18.3994 40.722 18.3746C40.6781 18.3498 40.6428 18.3122 40.6209 18.2668L39.8576 16.883H34.811L34.0679 18.2703C34.0457 18.3155 34.0104 18.3529 33.9665 18.3777C33.9227 18.4025 33.8724 18.4134 33.8222 18.4091H32.4275C32.3318 18.4091 32.2777 18.3848 32.2589 18.3397C32.2502 18.3097 32.2478 18.2782 32.252 18.2473C32.2562 18.2163 32.2668 18.1866 32.2832 18.16L35.8116 11.7024C35.9913 11.379 36.1648 11.1631 36.3383 11.0493C36.5168 10.9347 36.7256 10.8762 36.9378 10.8814H37.5623L37.565 10.8779ZM35.4744 15.6283H39.1748L37.4679 12.4776C37.4568 12.4549 37.4398 12.4357 37.4187 12.422C37.3975 12.4083 37.373 12.4007 37.3478 12.3998H37.2785C37.254 12.4014 37.2304 12.4094 37.21 12.4231C37.1897 12.4367 37.1733 12.4555 37.1626 12.4776L35.4737 15.6283H35.4744Z" fill="var(--fill-0, white)"/>
<path id="Vector_9" d="M50.1792 10.8787C51.0056 10.8787 51.5926 11.0647 51.952 11.4339C52.3115 11.8031 52.4912 12.3562 52.4912 13.0869V13.6977C52.4912 14.3146 52.3656 14.7997 52.1137 15.1592C51.8618 15.5187 51.4545 15.7463 50.8855 15.8483L52.7243 18.1246C52.7434 18.1464 52.7563 18.1729 52.7616 18.2014C52.7668 18.2298 52.7643 18.2592 52.7542 18.2863C52.7424 18.3557 52.6848 18.3939 52.5807 18.3939H51.1971C51.1318 18.3981 51.0665 18.3879 51.0056 18.3641C50.9637 18.3348 50.9273 18.2984 50.898 18.2565L49.1973 16.0218H45.7238V18.1607C45.7238 18.3162 45.646 18.3946 45.4899 18.3946H44.3277C44.1597 18.3946 44.082 18.3169 44.082 18.1607V11.2021C44.082 10.986 44.1898 10.8782 44.4054 10.8787H50.1792ZM45.7293 14.7185H49.844C50.2097 14.7185 50.4685 14.6408 50.617 14.4846C50.7655 14.3285 50.8446 14.0891 50.8446 13.7657V13.3167C50.8446 12.9933 50.7669 12.7538 50.617 12.5977C50.4671 12.4415 50.2097 12.3638 49.844 12.3638H45.8667C45.7709 12.3638 45.7279 12.4054 45.7279 12.4957V14.7164L45.7293 14.7185Z" fill="var(--fill-0, white)"/>
<path id="Vector_10" d="M61.4822 10.8787C62.2191 10.8787 62.7458 11.0286 63.0573 11.3221C63.3689 11.6157 63.5243 12.0591 63.5243 12.6518V13.1668C63.5243 13.7657 63.2967 14.2209 62.8353 14.5325C63.3266 14.8198 63.5777 15.2813 63.5777 15.9164V16.5409C63.5821 16.8019 63.5499 17.0621 63.482 17.314C63.4241 17.532 63.3154 17.7332 63.1649 17.9012C63.0038 18.0727 62.8018 18.2005 62.5779 18.2724C62.2864 18.3655 61.9817 18.41 61.6758 18.4043H55.2921C55.0765 18.4043 54.9688 18.2965 54.9688 18.0809V11.2028C54.9688 10.9867 55.0765 10.8789 55.2921 10.8794H61.4857L61.4822 10.8787ZM56.6126 14.0058H61.0208C61.3802 14.0058 61.6196 13.9517 61.7514 13.8441C61.8833 13.7365 61.943 13.5804 61.943 13.3708V13.0051C61.943 12.7837 61.884 12.622 61.757 12.5137C61.63 12.4054 61.4274 12.3583 61.1526 12.3583H56.7562C56.7373 12.3553 56.718 12.3568 56.6998 12.3628C56.6816 12.3687 56.665 12.3788 56.6515 12.3924C56.638 12.4059 56.6278 12.4224 56.6219 12.4406C56.616 12.4588 56.6144 12.4781 56.6174 12.4971V14.0065H56.6119L56.6126 14.0058ZM56.6126 15.18V16.7762C56.6096 16.7951 56.6111 16.8144 56.6171 16.8326C56.623 16.8508 56.6331 16.8674 56.6467 16.8809C56.6602 16.8944 56.6767 16.9046 56.6949 16.9105C56.7131 16.9164 56.7324 16.918 56.7513 16.915H61.1596C61.4468 16.915 61.6508 16.8609 61.7702 16.7595C61.8895 16.6582 61.9561 16.4903 61.9561 16.2627V15.8581C61.9561 15.6364 61.8902 15.4687 61.7584 15.3549C61.6265 15.2411 61.3809 15.1814 61.0215 15.1814H56.6126V15.18Z" fill="var(--fill-0, white)"/>
<path id="Vector_11" d="M67.5869 10.8787C67.7423 10.8787 67.8207 10.9564 67.8207 11.1125V18.1635C67.8207 18.3189 67.743 18.3974 67.5869 18.3974H66.4246C66.2574 18.3974 66.1797 18.3196 66.1797 18.1635V11.1188C66.1797 10.9633 66.2636 10.8849 66.4246 10.8849L67.5869 10.8787Z" fill="var(--fill-0, white)"/>
<path id="Vector_12" d="M78.848 10.8787C79.0166 10.8787 79.0943 10.9564 79.0943 11.1125V12.1667C79.0943 12.3347 79.0104 12.4124 78.848 12.4124H75.4757V18.1635C75.4757 18.3189 75.398 18.3974 75.2419 18.3974H74.0678C73.9124 18.3974 73.834 18.3196 73.834 18.1635V12.4124H70.4617C70.2938 12.4124 70.2168 12.3284 70.2168 12.1667V11.1125C70.2168 10.9571 70.3008 10.8787 70.4617 10.8787H78.848Z" fill="var(--fill-0, white)"/>
<path id="Vector_13" d="M87.3457 10.8787C88.1722 10.8787 88.7592 11.0647 89.1186 11.4339C89.478 11.8031 89.6585 12.3562 89.6585 13.0869V13.6977C89.6585 14.3146 89.5322 14.7997 89.281 15.1592C89.0298 15.5187 88.6218 15.7463 88.0528 15.8483L89.8916 18.1246C89.9107 18.1464 89.9236 18.1729 89.9288 18.2014C89.9341 18.2298 89.9315 18.2592 89.9214 18.2863C89.9096 18.3557 89.8521 18.3939 89.748 18.3939H88.3644C88.3062 18.4058 88.2458 18.3987 88.192 18.3737C88.1382 18.3487 88.0938 18.3072 88.0653 18.2551L86.3646 16.0205H82.8917V18.1593C82.8917 18.3148 82.814 18.3932 82.6579 18.3932H81.4956C81.3277 18.3932 81.25 18.3155 81.25 18.1593V11.2021C81.25 10.986 81.3578 10.8782 81.5734 10.8787H87.3464H87.3457ZM82.9049 14.7185H87.0196C87.3851 14.7185 87.6427 14.6406 87.7926 14.4846C87.9425 14.3292 88.0202 14.0891 88.0202 13.7657V13.3167C88.0202 12.9933 87.9425 12.7538 87.7926 12.5977C87.6427 12.4415 87.3853 12.3638 87.0196 12.3638H83.0423C82.9465 12.3638 82.9035 12.4054 82.9035 12.4957V14.7164L82.9049 14.7185Z" fill="var(--fill-0, white)"/>
<path id="Vector_14" d="M93.3916 10.8787C93.547 10.8787 93.6254 10.9564 93.6254 11.1125V15.4014C93.6194 15.6409 93.6427 15.8803 93.6948 16.1141C93.7302 16.2824 93.8111 16.4377 93.9287 16.5631C94.0475 16.6834 94.1999 16.7649 94.3658 16.797C94.5933 16.8488 94.8264 16.8722 95.0597 16.8664H98.0364C98.2697 16.8722 98.5028 16.8489 98.7303 16.797C98.8947 16.7605 99.0459 16.6796 99.1675 16.5631C99.2827 16.4369 99.3613 16.2817 99.3951 16.1141C99.4422 15.8796 99.4643 15.6406 99.461 15.4014V11.1125C99.461 10.9571 99.5387 10.8787 99.6948 10.8787H100.869C101.024 10.8787 101.103 10.9564 101.103 11.1125V15.5631C101.112 16.0081 101.057 16.452 100.941 16.8817C100.848 17.2161 100.668 17.52 100.42 17.7624C100.155 18.0026 99.8334 18.1717 99.4853 18.2537C99.031 18.3628 98.5646 18.4131 98.0975 18.4036H95.0007C94.535 18.4136 94.0699 18.3633 93.6171 18.2537C93.2714 18.1703 92.9521 18.0013 92.6887 17.7624C92.4405 17.5188 92.2589 17.2156 92.1613 16.8817C92.0395 16.4531 91.9829 16.0086 91.9934 15.5631V11.1125C91.9934 10.9571 92.0774 10.8787 92.2391 10.8787H93.3895H93.3916Z" fill="var(--fill-0, white)"/>
<path id="Vector_15" d="M105.718 10.8778C105.855 10.8772 105.991 10.8872 106.126 10.9077C106.234 10.9258 106.336 10.9688 106.425 11.0333C106.516 11.1016 106.595 11.1846 106.658 11.279C106.74 11.4112 106.81 11.5505 106.867 11.6954L109.101 16.8531C109.112 16.883 109.133 16.9085 109.16 16.9258C109.187 16.943 109.219 16.9511 109.251 16.9489H109.383C109.415 16.9512 109.447 16.9431 109.474 16.9258C109.501 16.9086 109.522 16.8831 109.533 16.8531L111.767 11.6954C111.824 11.5509 111.894 11.4116 111.975 11.279C112.035 11.182 112.115 11.0983 112.209 11.0333C112.297 10.9724 112.397 10.9297 112.502 10.9077C112.635 10.8841 112.769 10.8741 112.903 10.8778H114.053C114.423 10.8778 114.675 10.9618 114.808 11.1298C114.94 11.2977 115 11.585 115 11.9924V18.1627C115 18.3181 114.916 18.3965 114.754 18.3965H113.658C113.502 18.3965 113.424 18.3188 113.424 18.1627V12.5497C113.424 12.4803 113.394 12.4421 113.34 12.4421H113.244C113.215 12.4384 113.185 12.4446 113.16 12.4599C113.135 12.4751 113.116 12.4985 113.105 12.5261L110.937 17.3424C110.864 17.5138 110.776 17.6783 110.673 17.8337C110.592 17.9551 110.495 18.0658 110.386 18.1634C110.283 18.2496 110.162 18.313 110.033 18.3494C109.88 18.388 109.723 18.4062 109.566 18.4035H109.051C108.894 18.4062 108.737 18.388 108.584 18.3494C108.453 18.3157 108.332 18.252 108.231 18.1634C108.119 18.069 108.022 17.9578 107.944 17.8337C107.84 17.6789 107.752 17.5143 107.68 17.3424L105.511 12.5261C105.501 12.4983 105.482 12.4748 105.457 12.4596C105.432 12.4443 105.402 12.4381 105.373 12.4421H105.277C105.217 12.4421 105.193 12.4782 105.193 12.5497V18.1627C105.193 18.3181 105.115 18.3965 104.959 18.3965H103.863C103.695 18.3965 103.617 18.3188 103.617 18.1627V11.9924C103.617 11.585 103.687 11.2984 103.809 11.1298C103.931 10.9611 104.192 10.8778 104.572 10.8778H105.718Z" fill="var(--fill-0, white)"/>
</g>
</svg>
