<svg preserveAspectRatio="none" width="100%" height="100%" overflow="visible" viewBox="0 0 106 28" fill="none" xmlns="http://www.w3.org/2000/svg">
<g id="Vector">
<mask id="path-1-inside-1_0_4" fill="white">
<path fill-rule="evenodd" clip-rule="evenodd" d="M26.9 3.6641L23.1287 5.6942L4.91754 15.4946C4.85596 14.9984 4.82497 14.4985 4.82478 13.998C4.82727 12.0011 5.32349 10.0395 6.26429 8.30751C7.20509 6.57555 8.55782 5.13333 10.1885 4.1237C11.8192 3.11407 13.6712 2.57206 15.5611 2.55137C17.4511 2.53067 19.3133 3.03201 20.9635 4.00572L23.1221 2.84366L23.4441 2.67006C21.3972 1.10036 18.9679 0.182354 16.4432 0.0244648C13.9184 -0.133425 11.4036 0.475397 9.19573 1.77902C6.9879 3.08265 5.17929 5.02662 3.98352 7.38134C2.78774 9.73606 2.25476 12.4032 2.4475 15.0676C2.48321 15.5686 2.37798 16.0695 2.14504 16.5074C1.9121 16.9453 1.56184 17.3007 1.13828 17.5289L0 18.1422V21.0025L3.35124 19.1978L4.43652 18.6126L5.50589 18.0372L24.7043 7.70189L26.8616 6.54124L31.3206 4.14012V1.28119L26.9 3.6641ZM31.3206 7.00326L6.59647 20.3039L4.43917 21.4673L0 23.8572V26.7148L4.40869 24.3417L8.17999 22.3116L26.4097 12.4971C26.4716 12.9969 26.5025 13.4991 26.5025 14.0036C26.5013 16.0028 26.0052 17.967 25.0635 19.701C24.1218 21.4351 22.7672 22.8787 21.1342 23.8887C19.5011 24.8987 17.6465 25.4398 15.7544 25.4583C13.8622 25.4769 11.9984 24.9722 10.3479 23.9944L10.2154 24.0686L7.87521 25.3287C9.92225 26.899 12.352 27.8175 14.8772 27.9755C17.4025 28.1335 19.9178 27.5245 22.126 26.2205C24.3342 24.9165 26.1429 22.9719 27.3385 20.6164C28.5341 18.261 29.0666 15.5933 28.8731 12.9283C28.8373 12.4276 28.9423 11.9268 29.175 11.4888C29.4077 11.0509 29.7577 10.6954 30.181 10.467L31.3206 9.85379V7.00326ZM61.8462 16.5727C61.8462 11.9287 64.78 8.98855 68.5619 8.98855C72.8063 8.98855 75.3028 12.7127 75.0193 17.3609H64.3679C64.4448 20.5139 66.606 22.0358 68.6388 22.0358C70.698 22.0358 71.8297 21.0571 72.4207 19.6164H74.839C74.2215 22.1184 72.0099 24.2115 68.6388 24.2115C64.2646 24.2115 61.8462 20.8947 61.8462 16.5727ZM68.5619 11.1082C66.5027 11.1082 64.5998 12.2997 64.3931 15.2398H72.5492C72.4724 13.1747 71.0571 11.1082 68.5619 11.1082ZM47.6051 12.5461L45.4498 12.0295C43.694 11.6207 42.402 10.7526 42.402 9.01235C42.402 6.81005 44.9197 6.13102 46.3641 6.13102C48.2193 6.13102 50.3779 6.91925 50.9954 9.17476H53.5436C52.7963 5.39458 49.8333 3.79291 46.4675 3.79291C43.4568 3.79291 39.7266 5.39738 39.7266 9.17476C39.7266 12.4369 42.2734 13.9602 44.8468 14.558L47.1724 15.0746C49.5139 15.6459 51.1862 16.4607 51.1862 18.5538C51.1862 20.5139 49.6173 21.8705 46.8385 21.8705C43.9312 21.8705 42.182 20.4565 41.693 17.739H39.1144C39.6033 21.6591 42.3821 24.2087 46.7815 24.2087C50.4919 24.2087 53.8829 22.1422 53.8829 18.3088C53.8829 14.341 50.4621 13.1985 47.6051 12.5461ZM56.5689 5.55979H58.9104V9.22936H61.5341V11.214H58.9104V19.8867C58.9104 21.4085 59.0124 21.7893 60.3508 21.7893H61.5341V23.8544H59.8366C57.1864 23.8544 56.5689 23.2293 56.5689 20.1842V11.2147H54.3811V9.22936H56.5689V5.55979ZM105.306 9.15096C103.478 9.23216 102.09 10.131 101.395 11.7873V9.23216H99.104V23.8565H101.446V16.1912C101.446 12.929 102.527 11.711 104.688 11.711C105.128 11.711 105.565 11.7474 106 11.8202V9.17686C105.769 9.15586 105.538 9.14722 105.306 9.15096ZM96.8759 14.971L96.8507 18.3424C96.8242 20.8121 96.9275 22.4698 97.2098 23.86H94.8431C94.7428 23.1941 94.6828 22.5239 94.6629 21.8495C93.8148 23.3742 92.3996 24.2143 89.9296 24.2143C87.331 24.2143 85.1697 22.691 85.1697 20.0001C85.1697 16.5419 88.8748 15.5157 94.5344 14.8618V14.509C94.5344 11.8181 93.1456 10.9486 91.3951 10.9486C89.4406 10.9486 88.3341 12.0365 88.2308 13.8566H85.8124C86.0178 10.7036 88.6945 8.93675 91.37 8.93675C95.2552 8.93675 96.9024 10.8114 96.8759 14.971ZM90.4437 22.257C92.6315 22.257 94.7146 21.1957 94.7146 17.7446V16.8191C90.4689 17.2545 87.7683 17.9336 87.7683 19.9455C87.7683 21.3329 88.7714 22.257 90.4437 22.257ZM78.935 4.13732H76.5935V23.8558H78.935V4.13732ZM81.2752 4.13732H83.6167V23.8558H81.2752V4.13732Z"/>
</mask>
<path fill-rule="evenodd" clip-rule="evenodd" d="M26.9 3.6641L23.1287 5.6942L4.91754 15.4946C4.85596 14.9984 4.82497 14.4985 4.82478 13.998C4.82727 12.0011 5.32349 10.0395 6.26429 8.30751C7.20509 6.57555 8.55782 5.13333 10.1885 4.1237C11.8192 3.11407 13.6712 2.57206 15.5611 2.55137C17.4511 2.53067 19.3133 3.03201 20.9635 4.00572L23.1221 2.84366L23.4441 2.67006C21.3972 1.10036 18.9679 0.182354 16.4432 0.0244648C13.9184 -0.133425 11.4036 0.475397 9.19573 1.77902C6.9879 3.08265 5.17929 5.02662 3.98352 7.38134C2.78774 9.73606 2.25476 12.4032 2.4475 15.0676C2.48321 15.5686 2.37798 16.0695 2.14504 16.5074C1.9121 16.9453 1.56184 17.3007 1.13828 17.5289L0 18.1422V21.0025L3.35124 19.1978L4.43652 18.6126L5.50589 18.0372L24.7043 7.70189L26.8616 6.54124L31.3206 4.14012V1.28119L26.9 3.6641ZM31.3206 7.00326L6.59647 20.3039L4.43917 21.4673L0 23.8572V26.7148L4.40869 24.3417L8.17999 22.3116L26.4097 12.4971C26.4716 12.9969 26.5025 13.4991 26.5025 14.0036C26.5013 16.0028 26.0052 17.967 25.0635 19.701C24.1218 21.4351 22.7672 22.8787 21.1342 23.8887C19.5011 24.8987 17.6465 25.4398 15.7544 25.4583C13.8622 25.4769 11.9984 24.9722 10.3479 23.9944L10.2154 24.0686L7.87521 25.3287C9.92225 26.899 12.352 27.8175 14.8772 27.9755C17.4025 28.1335 19.9178 27.5245 22.126 26.2205C24.3342 24.9165 26.1429 22.9719 27.3385 20.6164C28.5341 18.261 29.0666 15.5933 28.8731 12.9283C28.8373 12.4276 28.9423 11.9268 29.175 11.4888C29.4077 11.0509 29.7577 10.6954 30.181 10.467L31.3206 9.85379V7.00326ZM61.8462 16.5727C61.8462 11.9287 64.78 8.98855 68.5619 8.98855C72.8063 8.98855 75.3028 12.7127 75.0193 17.3609H64.3679C64.4448 20.5139 66.606 22.0358 68.6388 22.0358C70.698 22.0358 71.8297 21.0571 72.4207 19.6164H74.839C74.2215 22.1184 72.0099 24.2115 68.6388 24.2115C64.2646 24.2115 61.8462 20.8947 61.8462 16.5727ZM68.5619 11.1082C66.5027 11.1082 64.5998 12.2997 64.3931 15.2398H72.5492C72.4724 13.1747 71.0571 11.1082 68.5619 11.1082ZM47.6051 12.5461L45.4498 12.0295C43.694 11.6207 42.402 10.7526 42.402 9.01235C42.402 6.81005 44.9197 6.13102 46.3641 6.13102C48.2193 6.13102 50.3779 6.91925 50.9954 9.17476H53.5436C52.7963 5.39458 49.8333 3.79291 46.4675 3.79291C43.4568 3.79291 39.7266 5.39738 39.7266 9.17476C39.7266 12.4369 42.2734 13.9602 44.8468 14.558L47.1724 15.0746C49.5139 15.6459 51.1862 16.4607 51.1862 18.5538C51.1862 20.5139 49.6173 21.8705 46.8385 21.8705C43.9312 21.8705 42.182 20.4565 41.693 17.739H39.1144C39.6033 21.6591 42.3821 24.2087 46.7815 24.2087C50.4919 24.2087 53.8829 22.1422 53.8829 18.3088C53.8829 14.341 50.4621 13.1985 47.6051 12.5461ZM56.5689 5.55979H58.9104V9.22936H61.5341V11.214H58.9104V19.8867C58.9104 21.4085 59.0124 21.7893 60.3508 21.7893H61.5341V23.8544H59.8366C57.1864 23.8544 56.5689 23.2293 56.5689 20.1842V11.2147H54.3811V9.22936H56.5689V5.55979ZM105.306 9.15096C103.478 9.23216 102.09 10.131 101.395 11.7873V9.23216H99.104V23.8565H101.446V16.1912C101.446 12.929 102.527 11.711 104.688 11.711C105.128 11.711 105.565 11.7474 106 11.8202V9.17686C105.769 9.15586 105.538 9.14722 105.306 9.15096ZM96.8759 14.971L96.8507 18.3424C96.8242 20.8121 96.9275 22.4698 97.2098 23.86H94.8431C94.7428 23.1941 94.6828 22.5239 94.6629 21.8495C93.8148 23.3742 92.3996 24.2143 89.9296 24.2143C87.331 24.2143 85.1697 22.691 85.1697 20.0001C85.1697 16.5419 88.8748 15.5157 94.5344 14.8618V14.509C94.5344 11.8181 93.1456 10.9486 91.3951 10.9486C89.4406 10.9486 88.3341 12.0365 88.2308 13.8566H85.8124C86.0178 10.7036 88.6945 8.93675 91.37 8.93675C95.2552 8.93675 96.9024 10.8114 96.8759 14.971ZM90.4437 22.257C92.6315 22.257 94.7146 21.1957 94.7146 17.7446V16.8191C90.4689 17.2545 87.7683 17.9336 87.7683 19.9455C87.7683 21.3329 88.7714 22.257 90.4437 22.257ZM78.935 4.13732H76.5935V23.8558H78.935V4.13732ZM81.2752 4.13732H83.6167V23.8558H81.2752V4.13732Z" fill="var(--fill-0, black)" stroke="var(--stroke-0, white)" stroke-width="2.4068" mask="url(#path-1-inside-1_0_4)"/>
</g>
</svg>
