<svg preserveAspectRatio="none" width="100%" height="100%" overflow="visible" viewBox="0 0 111.524 26.6239" fill="none" xmlns="http://www.w3.org/2000/svg">
<g id="Group 2147226508">
<path id="Vector" d="M55.7842 7.16992C57.5232 7.17001 59.05 7.75866 60.1074 8.83496C61.1051 9.85059 61.757 11.3747 61.7109 13.4541H52.4463C52.1236 13.4542 51.7551 13.5835 51.5146 13.9248C51.3162 14.2065 51.2923 14.5138 51.3154 14.7412L51.3135 14.7422C51.4913 17.0158 53.5195 18.6346 55.8359 18.6348C57.4413 18.6348 58.8993 17.918 59.7041 16.624H61.126C60.2563 18.3798 58.3394 19.5703 56.082 19.5703C54.1628 19.5703 52.5936 18.9122 51.5068 17.832C50.4207 16.7524 49.7599 15.1949 49.7598 13.2891C49.7598 9.72123 52.3011 7.16992 55.7842 7.16992ZM89.1924 7.16992C92.893 7.16994 95.46 9.72216 95.46 13.2891C95.4598 16.9822 92.8747 19.5703 89.1924 19.5703C85.4764 19.5703 82.8703 16.9755 82.8701 13.2891C82.8701 9.72874 85.458 7.16992 89.1924 7.16992ZM106.235 7.16992C107.622 7.16992 108.697 7.59768 109.425 8.33496C110.152 9.0721 110.633 10.2187 110.633 11.8486V19.2715H109.106V12.4463C109.106 11.2487 108.807 10.1813 108.119 9.40332C107.417 8.60884 106.418 8.23932 105.285 8.23926C104.029 8.23926 102.925 8.6068 102.146 9.45703C101.381 10.2937 101.058 11.4608 101.058 12.7998V19.2715H99.5332V7.46875H100.733V7.99023C100.733 8.46868 101.009 8.99947 101.598 9.14746C102.136 9.28263 102.604 9.01003 102.865 8.68066L102.873 8.6709C103.603 7.72436 104.761 7.16997 106.235 7.16992ZM78.8164 7.46875V19.2715H77.291V7.46875H78.8164ZM67.209 7.46875V8.36914C67.209 8.92096 67.552 9.3439 68.002 9.50195C67.6944 9.81177 67.5333 10.2443 67.5332 10.626V19.2715H66.0088V7.46875H67.209ZM46.6113 7.4668V8.47754C46.6113 8.49135 46.6099 8.50062 46.6094 8.50586C46.6035 8.51528 46.5902 8.53645 46.5605 8.57031L46.5537 8.57715L39.8008 16.458L39.7959 16.4629L39.791 16.4688C39.4741 16.8513 39.465 17.3448 39.668 17.7168C39.8555 18.0604 40.2277 18.3096 40.668 18.3096H46.8535V19.2715H37.0322V18.2061C37.0322 18.174 37.0353 18.1593 37.0361 18.1562L43.7607 10.2793L43.7686 10.2695C44.3605 9.55541 43.9045 8.42871 42.9199 8.42871H37.248V7.4668H46.6113ZM89.166 8.23926C86.3546 8.23932 84.4229 10.4483 84.4229 13.3154C84.423 16.2123 86.3328 18.4999 89.166 18.5C91.9898 18.5 93.9353 16.2211 93.9355 13.3154C93.9355 10.44 91.9698 8.23926 89.166 8.23926ZM55.7559 8.0498C53.5784 8.04986 51.6399 9.38752 51.3477 11.4795H51.3486C51.2223 12.3167 51.9519 12.7929 52.5283 12.793H59.1738C59.4478 12.7929 59.7734 12.6996 60.0205 12.4336C60.2754 12.1591 60.3466 11.8063 60.2969 11.4941H60.2988C59.9701 9.37322 57.9716 8.0498 55.7559 8.0498ZM72.0059 7.46875H73.2549V9.08301H69.377C69.4376 9.0045 69.4908 8.91776 69.5342 8.82324L69.5381 8.81445C69.7564 8.3256 70.0441 8.01261 70.4004 7.80957C70.7691 7.59963 71.2815 7.46879 72.0059 7.46875ZM78.0811 1.21973C78.7157 1.21974 79.2246 1.731 79.2246 2.33887C79.2246 2.94672 78.7157 3.458 78.0811 3.45801C77.397 3.45801 76.8838 2.92417 76.8838 2.33887C76.8838 1.75355 77.397 1.21973 78.0811 1.21973Z" fill="var(--fill-0, white)" stroke="var(--stroke-0, white)" stroke-width="1.78267"/>
<path id="Vector_2" d="M7.51367 0.891602H19.0596C22.7158 0.891602 25.6826 3.86107 25.6826 7.52832V19.0957C25.6826 22.7628 22.7158 25.7324 19.0596 25.7324H7.51367C3.85763 25.7322 0.891643 22.7627 0.891602 19.0957V7.52832C0.891602 3.86122 3.85761 0.891855 7.51367 0.891602ZM11.8145 12.8789C10.8615 12.3639 9.62572 12.5354 8.83301 13.4766L8.68066 13.6748C7.71781 15.0492 6.55548 16.7964 5.75195 18.1895C5.05053 19.3748 5.98547 20.8154 7.28125 20.8154H18.9795C20.6889 20.8154 21.3982 18.6372 20 17.6289L19.9766 17.6113L19.9512 17.5957L19.0244 17.0234C16.7883 15.658 14.0861 14.1093 11.8145 12.8799V12.8789ZM19.4463 5.80859C18.0225 5.80859 15.685 5.80919 13.3359 5.80957L7.11035 5.81055C5.25354 5.80851 4.7287 8.16014 6.20703 9.07324H6.20801C8.3949 10.4218 11.3599 12.1503 13.751 13.4609L14.7363 13.9951C15.6953 14.5077 17.0734 14.3461 17.8008 13.3438C18.7802 11.994 19.9527 10.1952 20.9951 8.41602H20.9961C21.6478 7.30318 20.8547 5.80859 19.4463 5.80859Z" fill="var(--fill-0, white)" stroke="var(--stroke-0, white)" stroke-width="1.78267"/>
</g>
</svg>
