<svg preserveAspectRatio="none" width="100%" height="100%" overflow="visible" viewBox="0 0 107.876 14.0462" fill="none" xmlns="http://www.w3.org/2000/svg">
<g id="Group 2147226509">
<path id="Vector" d="M94.2412 0.470703H94.2422C94.3762 0.469068 94.4576 0.476633 94.5068 0.487305C94.5092 0.487823 94.5116 0.488761 94.5137 0.489258L94.5273 0.585938C94.5308 0.628717 94.5334 0.683108 94.5322 0.751953C94.491 2.84908 94.5156 4.95074 94.5156 7.03418C94.5156 8.57154 94.5011 10.1191 94.5117 11.667L94.5322 13.2148C94.5349 13.3504 94.5251 13.4298 94.5146 13.4746L94.5127 13.4756C94.4636 13.4862 94.3818 13.4929 94.2471 13.4912L92.1904 13.4736C90.1333 13.4613 88.0752 13.4665 86.0186 13.4912C85.8843 13.4929 85.8029 13.4868 85.7529 13.4766C85.7516 13.4763 85.7503 13.4759 85.749 13.4756C85.738 13.4308 85.7278 13.3511 85.7285 13.2148C85.7527 10.1025 85.7581 6.9898 85.7471 3.87695L85.7305 0.763672C85.7297 0.625731 85.7386 0.54333 85.75 0.495117C85.7505 0.49282 85.7514 0.490284 85.752 0.488281H85.7539C85.7996 0.477586 85.879 0.469067 86.0137 0.470703C88.7559 0.505418 91.4996 0.503584 94.2412 0.470703Z" fill="var(--fill-0, white)" stroke="var(--stroke-0, white)" stroke-width="0.94179"/>
<path id="Vector_2" d="M107.389 4.82959C107.383 4.86306 107.376 4.91094 107.37 4.95654C107.364 5.00485 107.357 5.06797 107.358 5.13623L107.359 5.13721C107.367 5.40481 107.371 5.67284 107.374 5.94092L107.237 5.8833C107.19 5.86352 107.141 5.84185 107.093 5.81982L106.857 5.71143L107.09 5.11182C107.16 4.92291 107.214 4.8681 107.236 4.85205C107.243 4.84717 107.275 4.82333 107.389 4.82959ZM103.776 4.83936C103.865 4.84044 103.897 4.84782 103.908 4.85303C103.909 4.85357 103.912 4.85491 103.919 4.86377C103.928 4.87512 103.949 4.90405 103.973 4.96729V4.96826C104.083 5.26255 104.202 5.55488 104.323 5.85107L103.786 5.1001L103.787 5.03174C103.788 4.97642 103.785 4.92403 103.781 4.8833C103.78 4.86812 103.778 4.85323 103.776 4.83936Z" fill="var(--fill-0, white)" stroke="var(--stroke-0, white)" stroke-width="0.94179"/>
<path id="Vector_3" d="M101.051 4.82959C101.011 4.86517 100.974 4.90608 100.939 4.95166C100.887 5.02099 100.848 5.09516 100.818 5.16943C100.793 5.10551 100.762 5.04138 100.72 4.98096C100.679 4.92293 100.634 4.87302 100.586 4.82959C100.741 4.82922 100.896 4.82917 101.051 4.82959Z" fill="var(--fill-0, white)" stroke="var(--stroke-0, white)" stroke-width="0.94179"/>
<path id="Vector_4" d="M0.722656 0.470703C7.93791 0.487144 15.1304 0.471126 22.3408 0.491211C23.3981 0.494621 24.2272 0.749948 24.835 1.19043C25.4386 1.62795 25.8613 2.27431 26.0654 3.13086C26.2403 3.86557 26.2294 4.41147 26.0654 4.86523C25.9219 5.26196 25.6436 5.63638 25.1719 6.02344L24.958 6.19043C24.7197 6.3664 24.4808 6.5077 24.0986 6.75879L23.2988 7.28418L24.2031 7.59766C25.0648 7.89644 25.5622 8.35091 25.8467 8.89453C26.139 9.45323 26.2345 10.1598 26.1836 11.0049C26.1669 11.2815 26.1884 11.57 26.2148 11.835C26.2427 12.1144 26.2744 12.3533 26.291 12.5957C26.3262 13.1101 26.2623 13.3399 26.1484 13.4453L26.1475 13.4463C26.1117 13.4796 26.0377 13.5209 25.8877 13.5479C25.7381 13.5747 25.5493 13.5803 25.3213 13.5703C25.0935 13.5603 24.8542 13.5366 24.5967 13.5137C24.4716 13.5025 24.3422 13.4914 24.2129 13.4834L23.8291 13.4717L20.9951 13.4707C20.0471 13.4696 19.0973 13.4717 18.1514 13.4863L18.0049 13.4834C17.9684 13.481 17.9402 13.4759 17.918 13.4717C17.9119 13.4356 17.9058 13.375 17.9102 13.2783C17.9574 12.2686 17.9478 11.2561 17.9063 10.252C17.8777 9.55714 17.6971 8.94586 17.2881 8.50098C16.8724 8.04907 16.2859 7.83838 15.5947 7.81543C14.1308 7.76757 12.6386 7.78292 11.1729 7.78223L9.71777 7.77246C9.39971 7.76775 9.06066 7.85144 8.87012 8.17285C8.79071 8.30694 8.76196 8.4469 8.74902 8.55566C8.73615 8.66413 8.73589 8.77677 8.73633 8.86816V8.86914C8.74689 10.3073 8.7145 11.795 8.75391 13.2578V13.2588C8.75686 13.3642 8.74943 13.4296 8.74219 13.4688C8.70012 13.477 8.63145 13.4855 8.52148 13.4844C5.91088 13.457 3.29801 13.4553 0.686523 13.4863H0.685547C0.586066 13.4876 0.524254 13.4797 0.487305 13.4727C0.47849 13.4271 0.471897 13.354 0.472656 13.2373V13.2363C0.494111 9.05468 0.495738 4.87248 0.470703 0.688477C0.470092 0.585227 0.478637 0.522039 0.486328 0.485352C0.533102 0.476476 0.605994 0.470746 0.722656 0.470703ZM11.0889 2.33008C10.5717 2.33008 10.1423 2.32865 9.81543 2.36621C9.49625 2.40291 9.15084 2.48719 8.91211 2.7627C8.67725 3.03377 8.63569 3.38776 8.63477 3.71289C8.63384 4.0484 8.67983 4.48503 8.73438 5.01465V5.01563C8.74866 5.15824 8.7747 5.41659 8.93555 5.61816C9.08341 5.80345 9.28105 5.87518 9.46777 5.89844L9.64746 5.9082C11.2678 5.89463 12.9092 5.90725 14.5469 5.89453L16.1826 5.87207C16.7227 5.86066 17.1895 5.67087 17.5088 5.30176C17.8238 4.9376 17.9452 4.45665 17.917 3.95508V3.95313L17.8965 3.75488C17.832 3.30442 17.6418 2.93841 17.3115 2.6875C16.953 2.41534 16.5004 2.33415 16.0645 2.33203C15.0547 2.32655 14.0449 2.33008 13.0391 2.33008H11.0889Z" fill="var(--fill-0, white)" stroke="var(--stroke-0, white)" stroke-width="0.94179"/>
<path id="Vector_5" d="M58.0479 0.470703C65.2917 0.487136 72.5234 0.467744 79.7637 0.495117H79.7646C80.8004 0.498552 81.6183 0.767889 82.2178 1.22461C82.7401 1.62269 83.1239 2.18304 83.3389 2.89648L83.4209 3.21191C83.5613 3.85302 83.5459 4.40092 83.3857 4.86719C83.2272 5.32869 82.913 5.74928 82.3857 6.11914L82.3848 6.12012C82.1067 6.31652 81.8248 6.4998 81.4316 6.76367L80.6416 7.29395L81.543 7.60059C82.4237 7.89947 82.9147 8.36484 83.1924 8.92383C83.4799 9.503 83.5646 10.2354 83.5225 11.1025C83.4905 11.7609 83.4601 12.4651 83.5342 13.1631V13.1641C83.551 13.3217 83.5421 13.4088 83.5322 13.4512C83.532 13.4522 83.5315 13.4532 83.5313 13.4541C83.5199 13.458 83.5019 13.4647 83.4736 13.4697C83.4002 13.4827 83.2948 13.4889 83.1416 13.4863H83.1406C80.6613 13.4462 78.1746 13.4272 75.6875 13.4932C75.297 13.5035 75.2618 13.4251 75.2783 13.4453C75.2809 13.4486 75.2648 13.431 75.2529 13.3545C75.2467 13.3141 75.2423 13.2651 75.2412 13.2051L75.2471 12.9883C75.3003 12.0728 75.2819 11.1546 75.2441 10.2549L75.2256 9.99805C75.166 9.40987 74.9847 8.89305 74.6289 8.50293C74.2665 8.10557 73.7726 7.89328 73.1914 7.83105L72.9375 7.81348C70.9916 7.74987 68.9767 7.8017 67.0615 7.76953C66.874 7.76615 66.6839 7.79042 66.5146 7.87598C66.3291 7.96979 66.2087 8.11685 66.1426 8.28125C66.0835 8.4282 66.0736 8.57583 66.0713 8.67773C66.0695 8.75741 66.0732 8.90995 66.0732 8.95508C66.0732 10.3707 66.0482 11.815 66.0859 13.248C66.0888 13.3591 66.0811 13.4275 66.0732 13.4688C66.0335 13.4768 65.9677 13.4854 65.8613 13.4844L63.9033 13.4678C61.9442 13.4568 59.984 13.4624 58.0254 13.4844C57.9234 13.4857 57.8592 13.4779 57.8203 13.4707C57.8119 13.4274 57.804 13.3567 57.8047 13.2441C57.8279 9.06234 57.8297 4.87849 57.8047 0.696289C57.804 0.589705 57.8123 0.52389 57.8203 0.485352C57.8407 0.481426 57.8669 0.478087 57.9004 0.475586L58.0479 0.470703ZM68.3926 2.32617C67.9026 2.32617 67.4936 2.3257 67.1807 2.3623C66.8722 2.39843 66.5393 2.48095 66.3047 2.74805C66.0761 3.00835 66.0256 3.34937 66.0137 3.66504C66.0014 3.99014 66.0302 4.4135 66.0625 4.92676V4.92773C66.078 5.16901 66.127 5.47667 66.3662 5.68945C66.6021 5.89908 66.9063 5.90988 67.1143 5.90527L67.1152 5.90625C68.1471 5.88449 69.1755 5.89941 70.2246 5.89941C71.2193 5.89941 72.2434 5.91744 73.2568 5.89355L73.2559 5.89258C73.8356 5.87931 74.3503 5.73963 74.7217 5.40332C75.1036 5.05733 75.2581 4.5737 75.2549 4.04199V4.04004C75.2495 3.5344 75.1098 3.06828 74.7197 2.74512C74.3959 2.47703 73.9652 2.36423 73.4814 2.33691L73.2705 2.33008L70.8291 2.32324C70.0158 2.32393 69.2031 2.32617 68.3926 2.32617Z" fill="var(--fill-0, white)" stroke="var(--stroke-0, white)" stroke-width="0.94179"/>
<path id="Vector_6" d="M37.085 0.470703C38.6824 0.482573 40.2803 0.486556 41.8779 0.486328L46.6709 0.476563C46.8912 0.475656 47.0113 0.486996 47.0996 0.519531C47.1649 0.543657 47.2416 0.589888 47.332 0.736328V0.737305C49.9686 4.9901 52.6294 9.23023 55.2793 13.4736C52.3727 13.4717 49.5035 13.4608 46.6357 13.4912L46.4912 13.4854C46.3648 13.4723 46.2882 13.4404 46.2383 13.4072C46.1734 13.3641 46.1027 13.2847 46.0361 13.1133H46.0352C45.7511 12.3821 45.3289 11.8721 44.7461 11.5742C44.2497 11.3205 43.6817 11.2439 43.0752 11.2598L42.8135 11.2715C41.3233 11.3674 39.8242 11.3555 38.3125 11.3232L36.7959 11.2871C36.4272 11.2781 36.0496 11.3168 35.7178 11.4941C35.3682 11.681 35.1289 11.9894 34.9814 12.4004C34.7951 12.9201 34.5434 13.1884 34.2549 13.3359C33.9491 13.4923 33.5348 13.5476 32.9619 13.5039H32.9609C31.567 13.3983 30.1425 13.4502 28.7754 13.4668C31.2911 9.2741 33.8301 5.08714 36.335 0.883789C36.4544 0.683887 36.5518 0.596257 36.6377 0.549805C36.726 0.502136 36.8541 0.469219 37.085 0.470703ZM39.7832 4.4043C38.8592 5.93695 37.9865 7.38164 37.0498 8.93457L36.6191 9.64941H43.8672L43.417 8.92871C42.4476 7.37673 41.5515 5.94454 40.5859 4.39844L40.1787 3.74707L39.7832 4.4043Z" fill="var(--fill-0, white)" stroke="var(--stroke-0, white)" stroke-width="0.94179"/>
</g>
</svg>
