<svg preserveAspectRatio="none" width="100%" height="100%" overflow="visible" style="display: block;" viewBox="0 0 70.821 17.0179" fill="none" xmlns="http://www.w3.org/2000/svg">
<g id="SI&#60;3&#62;">
<path id="Vector" d="M58.8823 14.5044V11.703L68.7265 7.95908L58.8823 4.18897V1.38758L70.821 5.94312V9.94886L58.8823 14.5044Z" fill="var(--fill-0, white)"/>
<path id="Vector_2" d="M43.8911 6.54532H50.4364C51.2218 6.54532 51.7716 6.43187 52.0858 6.20496C52.4 5.9606 52.5571 5.6377 52.5571 5.23626C52.5571 4.83481 52.3825 4.52063 52.0334 4.29373C51.7018 4.04937 51.2044 3.92719 50.5411 3.92719H40.9849V0H50.4102C51.5971 0 52.592 0.130905 53.3949 0.392718C54.1978 0.637076 54.8436 0.986161 55.3323 1.43997C55.8385 1.89378 56.1963 2.44359 56.4057 3.08939C56.6326 3.7352 56.7461 4.45082 56.7461 5.23626C56.7461 5.88206 56.6588 6.45805 56.4843 6.96422C56.3097 7.45294 56.0654 7.88929 55.7512 8.27328C56.2574 8.69218 56.6413 9.18963 56.9032 9.76562C57.1824 10.3416 57.3221 11.0136 57.3221 11.7816C57.3221 12.567 57.2173 13.2826 57.0079 13.9284C56.7984 14.5742 56.4406 15.1241 55.9345 15.5779C55.4457 16.0317 54.7912 16.3895 53.9709 16.6513C53.1505 16.8956 52.1382 17.0178 50.9338 17.0178H40.9849V13.0906H50.5149C51.4575 13.0906 52.1294 12.9772 52.5309 12.7503C52.9323 12.5059 53.1331 12.183 53.1331 11.7816C53.1331 11.3801 52.9323 11.066 52.5309 10.839C52.1469 10.5947 51.5273 10.4725 50.672 10.4725H43.8911V6.54532Z" fill="var(--fill-0, white)"/>
<path id="Vector_3" d="M38.5461 1.38758V4.18897L28.7019 7.9329L38.5461 11.703V14.5044L26.6074 9.94886V5.94312L38.5461 1.38758Z" fill="var(--fill-0, white)"/>
<path id="Vector_4" d="M19.7297 0H23.9187V17.0178H19.7297V0Z" fill="var(--fill-0, white)"/>
<path id="Vector_5" d="M0.445082 13.0906H11.703C12.4536 13.0906 12.9685 12.9772 13.2477 12.7503C13.5444 12.5234 13.6928 12.2005 13.6928 11.7816C13.6928 11.3452 13.5444 11.0223 13.2477 10.8129C12.9685 10.586 12.4536 10.4725 11.703 10.4725H5.81224C4.83481 10.4725 3.97955 10.3329 3.24648 10.0536C2.5134 9.77434 1.90251 9.39035 1.41379 8.90163C0.942526 8.41292 0.584715 7.84566 0.340357 7.19985C0.113452 6.53659 0 5.8297 0 5.07917C0 3.56065 0.47999 2.33886 1.43997 1.41379C2.4174 0.471262 3.90974 0 5.91697 0H16.9131V3.92719H5.91697C5.16644 3.92719 4.64281 4.04064 4.34609 4.26755C4.06683 4.477 3.92719 4.7999 3.92719 5.23626C3.92719 5.65516 4.06683 5.97806 4.34609 6.20496C4.64281 6.43187 5.16644 6.54532 5.91697 6.54532H11.8078C12.7852 6.54532 13.6404 6.68495 14.3735 6.96422C15.1066 7.24349 15.7088 7.62748 16.18 8.1162C16.6687 8.60491 17.0266 9.1809 17.2535 9.84416C17.4978 10.49 17.62 11.1881 17.62 11.9387C17.62 12.6892 17.4978 13.3786 17.2535 14.007C17.0266 14.6353 16.6687 15.1764 16.18 15.6302C15.6913 16.0666 15.0717 16.4069 14.3212 16.6513C13.5881 16.8956 12.7154 17.0178 11.703 17.0178H0.445082V13.0906Z" fill="var(--fill-0, white)"/>
</g>
</svg>
