<svg preserveAspectRatio="none" width="100%" height="100%" overflow="visible" style="display: block;" viewBox="0 0 8.25 8.25001" fill="none" xmlns="http://www.w3.org/2000/svg">
<path id="Vector 4705" d="M0.494693 6.69464C0.201799 6.98753 0.201799 7.46241 0.494692 7.7553C0.787584 8.04819 1.26246 8.04819 1.55535 7.7553L1.02502 7.22497L0.494693 6.69464ZM8.25 0.75001C8.25 0.335796 7.91421 9.53674e-06 7.5 9.0003e-06L0.750001 0C0.335787 -5.36442e-07 5.96046e-07 0.335785 0 0.749999C-5.96046e-07 1.16421 0.335785 1.5 0.749999 1.5L6.75 1.50001L6.74999 7.50001C6.74999 7.91422 7.08578 8.25001 7.49999 8.25001C7.9142 8.25001 8.24999 7.91422 8.24999 7.50001L8.25 0.75001ZM1.02502 7.22497L1.55535 7.7553L8.03033 1.28034L7.5 0.750009L6.96967 0.219678L0.494693 6.69464L1.02502 7.22497Z" fill="var(--stroke-0, white)"/>
</svg>
