<svg preserveAspectRatio="none" width="100%" height="100%" overflow="visible" style="display: block;" viewBox="0 0 77 77" fill="none" xmlns="http://www.w3.org/2000/svg">
<g id="Icon">
<rect width="77" height="77" rx="6" fill="url(#paint0_linear_0_6)"/>
<path id="Vector" d="M59.3447 23.9922C59.5554 23.8385 59.8479 23.8822 60.0039 24.0879L60.0068 24.0869C60.1642 24.2976 60.1176 24.5941 59.9062 24.748L50.5635 31.5771C50.6667 31.8133 50.7275 32.0726 50.7275 32.3457C50.7275 33.4086 49.86 34.2725 48.792 34.2725C48.3976 34.2724 48.0312 34.1532 47.7256 33.9502L32.8984 44.4805C35.2501 47.295 39.208 49.443 44.5117 48.3789L44.6064 48.3701C44.8265 48.3704 45.0245 48.5252 45.0703 48.749L45.0801 48.8438C45.0801 49.063 44.9247 49.2602 44.7002 49.3057C43.7221 49.5021 42.7531 49.5996 41.8057 49.5996C39.841 49.5996 37.9626 49.1811 36.2715 48.3506C34.67 47.5668 33.2624 46.4387 32.1172 45.0391L26.7031 48.8867L26.7021 48.8877C26.6191 48.9455 26.5211 48.9746 26.4268 48.9746C26.2786 48.9745 26.1345 48.9054 26.041 48.7773C25.8872 48.5658 25.9386 48.2695 26.1514 48.1182L31.5459 44.2852C31.3245 43.9712 31.1144 43.6451 30.918 43.3076L17.6572 53.0049C17.5721 53.0705 17.4714 53.0995 17.376 53.0996C17.23 53.0996 17.0878 53.0333 16.9941 52.9092L16.9932 52.9082C16.8366 52.6963 16.8822 52.4002 17.0938 52.2461L30.4678 42.4678C28.1851 37.8463 28.7705 32.5357 32.0273 29.0459C35.0142 25.8458 38.4556 24.2953 42.2617 24.4492C44.2691 24.5303 46.1561 25.1171 47.6816 25.8613C49.1101 26.5582 50.2297 27.397 50.8359 28.0947L50.9502 28.2324C51.111 28.4379 51.0757 28.7348 50.8701 28.8955C50.6888 29.0375 50.4399 29.0267 50.2715 28.8857L50.2041 28.8174C49.8149 28.3245 48.8419 27.5088 47.4502 26.7949C46.0608 26.0822 44.2617 25.4746 42.2236 25.3916C38.718 25.2487 35.52 26.6897 32.7227 29.6875C29.7795 32.8418 29.2201 37.6538 31.2451 41.8984L39.2266 36.0645C39.4393 35.9091 39.7342 35.9549 39.8906 36.1641C40.0283 36.3483 40.0095 36.5981 39.8613 36.7607L39.79 36.8252L31.6895 42.7461C31.8797 43.0794 32.0914 43.4112 32.3232 43.7373L47.0859 33.251C46.9421 32.9815 46.8595 32.6768 46.8594 32.3516C46.8594 31.2902 47.726 30.4268 48.7939 30.4268C49.2418 30.4268 49.6549 30.5812 49.9834 30.8379L59.3447 23.9922ZM48.7939 31.3721C48.2496 31.3721 47.8086 31.8119 47.8086 32.3516C47.8089 32.8912 48.25 33.332 48.7939 33.332C49.3378 33.332 49.78 32.8897 49.7803 32.3516C49.7803 31.8134 49.3382 31.3721 48.7939 31.3721Z" fill="var(--fill-0, white)" stroke="var(--stroke-0, white)" stroke-width="0.2"/>
</g>
<defs>
<linearGradient id="paint0_linear_0_6" x1="11" y1="11" x2="66" y2="66" gradientUnits="userSpaceOnUse">
<stop stop-color="#4323AD"/>
<stop offset="1" stop-color="#261359"/>
</linearGradient>
</defs>
</svg>
