<svg preserveAspectRatio="none" width="100%" height="100%" overflow="visible" style="display: block;" viewBox="0 0 70 18" fill="none" xmlns="http://www.w3.org/2000/svg">
<g id="Vector">
<mask id="path-1-inside-1_0_9" fill="white">
<path fill-rule="evenodd" clip-rule="evenodd" d="M17.7642 2.35549L15.2737 3.66056L3.24743 9.96085C3.20677 9.64184 3.1863 9.32044 3.18617 8.9987C3.18782 7.71496 3.51551 6.45394 4.13679 5.34054C4.75808 4.22714 5.65139 3.3 6.72825 2.65095C7.80511 2.0019 9.02815 1.65347 10.2762 1.64016C11.5243 1.62686 12.7541 1.94915 13.8438 2.57511L15.2693 1.82807L15.482 1.71647C14.1302 0.707374 12.526 0.117228 10.8587 0.0157274C9.19138 -0.0857731 7.53065 0.305613 6.07265 1.14366C4.61465 1.9817 3.42029 3.2314 2.63062 4.74515C1.84096 6.2589 1.48899 7.97346 1.61628 9.68633C1.63986 10.0084 1.57036 10.3304 1.41653 10.6119C1.2627 10.8934 1.0314 11.1219 0.751696 11.2686L0 11.6628V13.5016L2.21308 12.3415L2.92978 11.9652L3.63597 11.5953L16.3142 4.95121L17.7388 4.20508L20.6834 2.66151V0.823624L17.7642 2.35549ZM20.6834 4.50209L4.35616 13.0525L2.93152 13.8004L0 15.3368V17.1738L2.9114 15.6482L5.40188 14.3432L17.4404 8.03386C17.4812 8.35517 17.5016 8.67799 17.5016 9.0023C17.5009 10.2875 17.1733 11.5502 16.5514 12.6649C15.9295 13.7797 15.0349 14.7078 13.9565 15.357C12.8781 16.0063 11.6533 16.3541 10.4038 16.3661C9.15429 16.378 7.92346 16.0536 6.83352 15.425L6.74601 15.4727L5.20061 16.2827C6.55243 17.2922 8.15695 17.8827 9.82459 17.9843C11.4922 18.0858 13.1533 17.6944 14.6115 16.856C16.0697 16.0177 17.2642 14.7676 18.0538 13.2534C18.8433 11.7392 19.195 10.0242 19.0672 8.31107C19.0435 7.98914 19.1129 7.6672 19.2665 7.38569C19.4202 7.10418 19.6513 6.87564 19.9309 6.7288L20.6834 6.33458V4.50209ZM40.8418 10.6539C40.8418 7.66844 42.7793 5.77835 45.2768 5.77835C48.0796 5.77835 49.7283 8.17246 49.541 11.1606H42.5071C42.5579 13.1875 43.9851 14.1658 45.3275 14.1658C46.6874 14.1658 47.4347 13.5367 47.825 12.6106H49.422C49.0142 14.2189 47.5537 15.5645 45.3275 15.5645C42.4389 15.5645 40.8418 13.4323 40.8418 10.6539ZM45.2768 7.14102C43.9169 7.14102 42.6603 7.90695 42.5237 9.79704H47.9099C47.8591 8.46948 46.9245 7.14102 45.2768 7.14102ZM31.4373 8.06536L30.014 7.73324C28.8545 7.47043 28.0013 6.91241 28.0013 5.79365C28.0013 4.37789 29.664 3.94137 30.6178 3.94137C31.8429 3.94137 33.2684 4.44809 33.6762 5.89806H35.359C34.8655 3.46795 32.9088 2.4383 30.6861 2.4383C28.6979 2.4383 26.2345 3.46975 26.2345 5.89806C26.2345 7.99516 27.9164 8.9744 29.6158 9.35872L31.1516 9.69083C32.6979 10.0581 33.8022 10.5819 33.8022 11.9274C33.8022 13.1875 32.7661 14.0596 30.9311 14.0596C29.0112 14.0596 27.8561 13.1506 27.5331 11.4036H25.8302C26.1531 13.9237 27.9882 15.5627 30.8935 15.5627C33.3437 15.5627 35.583 14.2342 35.583 11.7699C35.583 9.21921 33.324 8.48478 31.4373 8.06536ZM37.3568 3.57415H38.9031V5.93316H40.6358V7.20897H38.9031V12.7843C38.9031 13.7626 38.9705 14.0074 39.8543 14.0074H40.6358V15.335H39.5148C37.7646 15.335 37.3568 14.9331 37.3568 12.9755V7.20942H35.9121V5.93316H37.3568V3.57415ZM69.5415 5.88276C68.3347 5.93496 67.4176 6.51279 66.9591 7.57754V5.93496H65.4461V15.3363H66.9923V10.4086C66.9923 8.31152 67.7064 7.52848 69.1337 7.52848C69.4242 7.52848 69.713 7.55189 70 7.59869V5.89941C69.8474 5.88591 69.6946 5.88036 69.5415 5.88276ZM63.9746 9.62423L63.958 11.7915C63.9405 13.3792 64.0088 14.4449 64.1951 15.3386H62.6322C62.566 14.9105 62.5264 14.4797 62.5132 14.0461C61.9532 15.0263 61.0186 15.5663 59.3874 15.5663C57.6714 15.5663 56.2442 14.5871 56.2442 12.8572C56.2442 10.6341 58.6909 9.97435 62.4284 9.55403V9.32722C62.4284 7.59734 61.5113 7.03841 60.3553 7.03841C59.0645 7.03841 58.3338 7.73774 58.2656 8.9078H56.6686C56.8042 6.8809 58.5719 5.74505 60.3387 5.74505C62.9044 5.74505 63.9921 6.95021 63.9746 9.62423ZM59.727 14.308C61.1717 14.308 62.5474 13.6258 62.5474 11.4072V10.8123C59.7436 11.0922 57.9602 11.5287 57.9602 12.8221C57.9602 13.714 58.6226 14.308 59.727 14.308ZM52.1269 2.65971H50.5806V15.3359H52.1269V2.65971ZM53.6723 2.65971H55.2186V15.3359H53.6723V2.65971Z"/>
</mask>
<path fill-rule="evenodd" clip-rule="evenodd" d="M17.7642 2.35549L15.2737 3.66056L3.24743 9.96085C3.20677 9.64184 3.1863 9.32044 3.18617 8.9987C3.18782 7.71496 3.51551 6.45394 4.13679 5.34054C4.75808 4.22714 5.65139 3.3 6.72825 2.65095C7.80511 2.0019 9.02815 1.65347 10.2762 1.64016C11.5243 1.62686 12.7541 1.94915 13.8438 2.57511L15.2693 1.82807L15.482 1.71647C14.1302 0.707374 12.526 0.117228 10.8587 0.0157274C9.19138 -0.0857731 7.53065 0.305613 6.07265 1.14366C4.61465 1.9817 3.42029 3.2314 2.63062 4.74515C1.84096 6.2589 1.48899 7.97346 1.61628 9.68633C1.63986 10.0084 1.57036 10.3304 1.41653 10.6119C1.2627 10.8934 1.0314 11.1219 0.751696 11.2686L0 11.6628V13.5016L2.21308 12.3415L2.92978 11.9652L3.63597 11.5953L16.3142 4.95121L17.7388 4.20508L20.6834 2.66151V0.823624L17.7642 2.35549ZM20.6834 4.50209L4.35616 13.0525L2.93152 13.8004L0 15.3368V17.1738L2.9114 15.6482L5.40188 14.3432L17.4404 8.03386C17.4812 8.35517 17.5016 8.67799 17.5016 9.0023C17.5009 10.2875 17.1733 11.5502 16.5514 12.6649C15.9295 13.7797 15.0349 14.7078 13.9565 15.357C12.8781 16.0063 11.6533 16.3541 10.4038 16.3661C9.15429 16.378 7.92346 16.0536 6.83352 15.425L6.74601 15.4727L5.20061 16.2827C6.55243 17.2922 8.15695 17.8827 9.82459 17.9843C11.4922 18.0858 13.1533 17.6944 14.6115 16.856C16.0697 16.0177 17.2642 14.7676 18.0538 13.2534C18.8433 11.7392 19.195 10.0242 19.0672 8.31107C19.0435 7.98914 19.1129 7.6672 19.2665 7.38569C19.4202 7.10418 19.6513 6.87564 19.9309 6.7288L20.6834 6.33458V4.50209ZM40.8418 10.6539C40.8418 7.66844 42.7793 5.77835 45.2768 5.77835C48.0796 5.77835 49.7283 8.17246 49.541 11.1606H42.5071C42.5579 13.1875 43.9851 14.1658 45.3275 14.1658C46.6874 14.1658 47.4347 13.5367 47.825 12.6106H49.422C49.0142 14.2189 47.5537 15.5645 45.3275 15.5645C42.4389 15.5645 40.8418 13.4323 40.8418 10.6539ZM45.2768 7.14102C43.9169 7.14102 42.6603 7.90695 42.5237 9.79704H47.9099C47.8591 8.46948 46.9245 7.14102 45.2768 7.14102ZM31.4373 8.06536L30.014 7.73324C28.8545 7.47043 28.0013 6.91241 28.0013 5.79365C28.0013 4.37789 29.664 3.94137 30.6178 3.94137C31.8429 3.94137 33.2684 4.44809 33.6762 5.89806H35.359C34.8655 3.46795 32.9088 2.4383 30.6861 2.4383C28.6979 2.4383 26.2345 3.46975 26.2345 5.89806C26.2345 7.99516 27.9164 8.9744 29.6158 9.35872L31.1516 9.69083C32.6979 10.0581 33.8022 10.5819 33.8022 11.9274C33.8022 13.1875 32.7661 14.0596 30.9311 14.0596C29.0112 14.0596 27.8561 13.1506 27.5331 11.4036H25.8302C26.1531 13.9237 27.9882 15.5627 30.8935 15.5627C33.3437 15.5627 35.583 14.2342 35.583 11.7699C35.583 9.21921 33.324 8.48478 31.4373 8.06536ZM37.3568 3.57415H38.9031V5.93316H40.6358V7.20897H38.9031V12.7843C38.9031 13.7626 38.9705 14.0074 39.8543 14.0074H40.6358V15.335H39.5148C37.7646 15.335 37.3568 14.9331 37.3568 12.9755V7.20942H35.9121V5.93316H37.3568V3.57415ZM69.5415 5.88276C68.3347 5.93496 67.4176 6.51279 66.9591 7.57754V5.93496H65.4461V15.3363H66.9923V10.4086C66.9923 8.31152 67.7064 7.52848 69.1337 7.52848C69.4242 7.52848 69.713 7.55189 70 7.59869V5.89941C69.8474 5.88591 69.6946 5.88036 69.5415 5.88276ZM63.9746 9.62423L63.958 11.7915C63.9405 13.3792 64.0088 14.4449 64.1951 15.3386H62.6322C62.566 14.9105 62.5264 14.4797 62.5132 14.0461C61.9532 15.0263 61.0186 15.5663 59.3874 15.5663C57.6714 15.5663 56.2442 14.5871 56.2442 12.8572C56.2442 10.6341 58.6909 9.97435 62.4284 9.55403V9.32722C62.4284 7.59734 61.5113 7.03841 60.3553 7.03841C59.0645 7.03841 58.3338 7.73774 58.2656 8.9078H56.6686C56.8042 6.8809 58.5719 5.74505 60.3387 5.74505C62.9044 5.74505 63.9921 6.95021 63.9746 9.62423ZM59.727 14.308C61.1717 14.308 62.5474 13.6258 62.5474 11.4072V10.8123C59.7436 11.0922 57.9602 11.5287 57.9602 12.8221C57.9602 13.714 58.6226 14.308 59.727 14.308ZM52.1269 2.65971H50.5806V15.3359H52.1269V2.65971ZM53.6723 2.65971H55.2186V15.3359H53.6723V2.65971Z" stroke="var(--stroke-0, white)" stroke-width="2.4068" mask="url(#path-1-inside-1_0_9)"/>
</g>
</svg>
