<svg width="360" height="90" viewBox="0 0 360 90" fill="none" xmlns="http://www.w3.org/2000/svg">
<path d="M4.07505 89.0271C4.07505 89.4917 4.4503 89.869 4.91239 89.869L64.9713 89.8846C70.535 89.8846 75.3884 89.2298 79.3984 87.9545C83.3153 86.7041 86.5964 84.9298 89.1487 82.6848C91.6421 80.4833 93.5184 77.7986 94.7217 74.6929C95.9591 71.5061 96.5886 67.9358 96.5886 64.0848C96.5886 60.2339 95.9529 56.57 94.7062 53.2211C93.4936 49.9407 91.6111 47.0315 89.1177 44.5775C86.6243 42.1204 83.3928 40.1497 79.5193 38.7215C75.5869 37.2685 70.9009 36.5357 65.5854 36.5357H31.6173C26.6801 36.5357 23.2501 35.7437 21.1227 34.1222C18.837 32.3792 17.6244 29.8036 17.6244 26.676C17.6244 22.5881 19.5503 20.3181 21.163 19.1269C23.2811 17.5803 26.6956 16.8226 31.6142 16.8226H91.6638C92.1259 16.8226 92.5012 16.4453 92.5012 15.9807V0.857499C92.5012 0.392891 92.1259 0.0155871 91.6638 0.0155871L31.6142 0C20.7443 0 12.6531 2.40411 7.57327 7.14998C2.4779 11.9021 0 18.0044 0 25.7998C0 29.6601 0.635755 33.3146 1.87316 36.6635C3.10436 39.9439 4.97752 42.8531 7.46162 45.3071C9.96434 47.7643 13.1927 49.7349 17.0693 51.1631C20.9924 52.6161 25.6877 53.3489 31.0033 53.3489H64.9713C69.893 53.3489 73.3075 54.1066 75.4319 55.6595C77.0383 56.8506 78.9549 59.1113 78.9549 63.2086C78.9549 66.3361 77.7485 68.9118 75.466 70.6548C73.3416 72.27 69.9085 73.0589 64.9713 73.0589H4.92169C4.45961 73.0589 4.08435 73.4362 4.08435 73.9008L4.07505 89.0271Z" fill="black"/>
<path d="M103.681 0.845033V89.1581C103.681 89.6227 104.056 90 104.518 90H119.373C119.835 90 120.211 89.6227 120.211 89.1581V0.845033C120.211 0.380425 119.835 0.00312122 119.373 0.00312122H104.518C104.056 0.00312122 103.681 0.380425 103.681 0.845033Z" fill="black"/>
<path d="M198.024 1.6807C198.024 1.09137 197.748 0.579986 197.255 0.268168C196.979 0.0904322 196.669 0.00624245 196.368 0.00624245C196.126 0.00624245 195.881 0.0561364 195.649 0.165273L132.21 30.5893C131.633 30.8669 131.264 31.4656 131.264 32.1048V57.783C131.264 58.4316 131.633 59.0209 132.21 59.2984L195.649 89.7225C196.176 89.9751 196.762 89.9314 197.255 89.6227C197.748 89.314 198.024 88.7995 198.024 88.2102V73.5953C198.024 72.956 197.655 72.3667 197.079 72.0892L140.493 44.8457L197.079 17.8048C197.655 17.5273 198.024 16.938 198.024 16.2894V1.6807Z" fill="black"/>
<path d="M285.651 52.532C284.292 49.6102 282.301 47.0564 279.752 44.9298L278.484 43.879L279.529 42.6037C281.107 40.6673 282.351 38.4004 283.241 35.8622C284.122 33.3302 284.574 30.3524 284.574 27.0253C284.574 22.9217 284.007 19.1487 282.878 15.7998C281.783 12.5476 279.966 9.74432 277.479 7.46181C274.961 5.15436 271.596 3.31775 267.474 2.01123C263.269 0.679767 257.969 0.00936367 251.707 0.00936367H210.597C210.194 0.00936367 209.865 0.339886 209.865 0.745249V17.4743C209.865 17.8797 210.194 18.2008 210.597 18.2008H252.421C256.412 18.2008 259.398 18.9274 261.554 20.4334C263.842 22.0206 265.043 24.3062 265.043 27.0284C265.043 29.7506 263.963 31.9676 261.817 33.5797C259.792 35.1107 256.536 35.8466 251.853 35.8466H220.493C220.099 35.8466 219.771 36.1771 219.771 36.5825V53.3115C219.771 53.7169 220.099 54.0474 220.493 54.0474H253.137C258.139 54.0474 261.752 54.7521 264.171 56.2145C266.795 57.7955 268.178 60.0935 268.178 62.8656C268.178 64.802 267.471 67.5304 264.087 69.526C261.628 70.9822 257.761 71.6932 252.281 71.6932H210.597C210.194 71.6932 209.865 72.0143 209.865 72.4197V89.1487C209.865 89.5541 210.194 89.8846 210.597 89.8846H254.56C260.921 89.8846 266.327 89.2142 270.616 87.8828C274.827 86.5762 278.245 84.7396 280.754 82.4291C283.238 80.1528 285.033 77.3589 286.078 74.1129C287.164 70.7546 287.707 66.9723 287.707 62.8625C287.707 58.7527 287.015 55.4506 285.651 52.5288V52.532Z" fill="black"/>
<path d="M359.054 30.5893L295.624 0.165273C295.388 0.0561364 295.147 0.00624245 294.905 0.00624245C294.594 0.00624245 294.294 0.0904322 294.018 0.268168C293.525 0.579986 293.239 1.09137 293.239 1.6807V16.2956C293.239 16.9348 293.608 17.5242 294.185 17.8017L350.78 45.0452L294.194 72.0861C293.618 72.3636 293.239 72.9623 293.239 73.6015V88.207C293.239 88.7964 293.525 89.3078 294.018 89.6196C294.511 89.9314 295.097 89.9719 295.624 89.7194L359.054 59.2953C359.631 59.0178 360 58.4284 360 57.7799V32.1017C360 31.4624 359.631 30.8637 359.054 30.5862V30.5893Z" fill="black"/>
</svg>
