<svg preserveAspectRatio="none" width="100%" height="100%" overflow="visible" style="display: block;" viewBox="0 0 77 77" fill="none" xmlns="http://www.w3.org/2000/svg">
<g id="Icon">
<rect width="77" height="77" rx="6" fill="url(#paint0_linear_0_6)"/>
<path id="Vector" d="M38.0791 14.9502C38.3138 14.9503 38.5038 15.1381 38.5039 15.3721V17.1748C38.5039 17.1983 38.5003 17.2202 38.4971 17.2422C38.5004 17.2642 38.5039 17.2861 38.5039 17.3096V30.0801C41.9702 30.2545 44.8801 32.556 45.9346 35.6934C46.8562 35.7528 49.8364 35.9603 52.8115 36.3174C56.0963 36.7115 57.9937 37.1115 59.085 37.5C60.1747 37.888 60.4774 38.2713 60.5391 38.6436C60.6003 39.0184 60.3912 39.3175 60.0947 39.5518C59.7979 39.7862 59.4032 39.9653 59.0664 40.0996L59.0576 40.1025H59.0566C55.7019 41.4349 50.0245 41.9209 45.4238 42.0859C44.1031 44.5976 41.5124 46.3512 38.5039 46.5029V61.6279C38.5038 61.8619 38.3138 62.0497 38.0791 62.0498C37.8442 62.0498 37.6544 61.862 37.6543 61.6279V59.7617C25.9234 59.5368 16.4502 49.9931 16.4502 38.29C16.4503 26.5871 25.9235 17.0443 37.6543 16.8193V15.3721C37.6544 15.138 37.8442 14.9502 38.0791 14.9502ZM37.6543 17.54C26.3235 17.7649 17.1749 26.9878 17.1748 38.29C17.1748 49.5924 26.3235 58.8171 37.6543 59.042V49.9795C31.3532 49.7569 26.2969 44.5997 26.2969 38.29C26.297 31.9804 31.3533 26.8241 37.6543 26.6016V17.54ZM37.6543 27.3203C31.7533 27.5409 27.0216 32.3775 27.0215 38.29C27.0215 44.2026 31.7533 49.0382 37.6543 49.2588V46.5029C33.2845 46.2827 29.7969 42.6838 29.7969 38.29C29.797 33.8963 33.2845 30.2983 37.6543 30.0781V27.3203ZM38.0811 30.9121C33.9815 30.9121 30.6484 34.2239 30.6484 38.292C30.6484 42.3424 33.754 45.4412 37.6562 45.6582V40.0049C37.6563 39.8909 37.7022 39.7835 37.7852 39.7031C37.867 39.6239 37.9811 39.5829 38.0908 39.585L39.5391 39.6084C41.2144 39.6218 43.4912 39.5952 45.417 39.457C45.4782 39.0771 45.5106 38.689 45.5107 38.292C45.5107 38.0528 45.5002 37.8155 45.4766 37.582V37.5811C45.4328 37.1139 45.3434 36.661 45.2139 36.2227L45.2109 36.2158V36.208C44.3028 33.1519 41.4505 30.9123 38.0811 30.9121ZM44.4297 42.1172C41.6763 42.1909 39.4306 42.1563 38.5039 42.1328V45.6582C41.0151 45.5182 43.1936 44.1336 44.4297 42.1172ZM45.2236 40.3164C42.6111 40.4924 39.6178 40.4567 38.5039 40.4365V41.2891C39.4466 41.3093 41.9083 41.3447 44.8877 41.251C45.0206 40.9494 45.1328 40.6373 45.2236 40.3164ZM46.1719 36.5527C46.216 36.7542 46.2524 36.9582 46.2803 37.165C46.6213 37.2153 47.185 37.3038 47.7646 37.4326H47.7656C48.4785 37.5906 49.0019 37.7571 49.3604 37.9473C49.7186 38.1374 49.9206 38.3567 49.9736 38.623C50.0103 38.8063 49.9743 38.9809 49.8682 39.1416C49.7629 39.3009 49.59 39.4454 49.3555 39.5762C49.0535 39.7434 48.594 39.8788 48.0342 39.9883C47.482 40.0962 46.8276 40.1796 46.123 40.2432C46.0418 40.5747 45.941 40.9001 45.8193 41.2158C50.2977 41.0382 55.6437 40.5519 58.752 39.3145C59.2112 39.1313 59.4517 38.9843 59.5762 38.8848C59.6383 38.8351 59.6709 38.7975 59.6875 38.7744C59.6902 38.7707 59.6915 38.7667 59.6934 38.7637C59.6806 38.7415 59.6454 38.6922 59.543 38.623C59.4039 38.5292 59.1484 38.4007 58.6826 38.248C57.7511 37.9428 55.9866 37.5459 52.6475 37.1465C49.9777 36.8281 47.313 36.6307 46.1719 36.5527ZM46.3623 38.29V38.3398H46.3594C46.3573 38.6937 46.3319 39.0428 46.2861 39.3848C46.8866 39.3266 47.4304 39.2562 47.8818 39.168C48.233 39.0993 48.5258 39.0207 48.7461 38.9326L48.9414 38.8408C49.0015 38.8071 49.045 38.7768 49.0771 38.7529C49.01 38.7063 48.9066 38.6549 48.7705 38.6006C48.5987 38.532 48.3798 38.461 48.126 38.3916C47.6326 38.2566 47.0107 38.1275 46.3555 38.0293C46.3589 38.1163 46.3623 38.2039 46.3623 38.29ZM53.4473 20.166C54.3142 20.1661 55.0186 20.8658 55.0186 21.7275C55.0183 22.589 54.314 23.288 53.4473 23.2881C52.5804 23.2881 51.8762 22.5891 51.876 21.7275C51.876 20.8658 52.5803 20.166 53.4473 20.166Z" fill="var(--fill-0, white)" stroke="var(--stroke-0, white)" stroke-width="0.1"/>
</g>
<defs>
<linearGradient id="paint0_linear_0_6" x1="11" y1="11" x2="66" y2="66" gradientUnits="userSpaceOnUse">
<stop stop-color="#2D328D"/>
<stop offset="1" stop-color="#686CBF"/>
</linearGradient>
</defs>
</svg>
