<svg preserveAspectRatio="none" width="100%" height="100%" overflow="visible" style="display: block;" viewBox="0 0 108 56" fill="none" xmlns="http://www.w3.org/2000/svg">
<g id="co">
<g id="Vector">
<mask id="path-1-inside-1_0_6" fill="white">
<path fill-rule="evenodd" clip-rule="evenodd" d="M68.8494 21.4056C68.8494 22.0753 68.287 22.6139 67.6087 22.6139C66.9144 22.6139 66.3351 22.0753 66.3351 21.4056C66.3351 20.7358 66.9144 20.1972 67.6087 20.1972C68.287 20.1972 68.8494 20.7358 68.8494 21.4056ZM68.3859 32.1172H66.7985C66.6657 32.1172 66.5838 32.0353 66.5838 31.9051V24.1646C66.5838 24.0344 66.6667 23.9525 66.7985 23.9525H68.3859C68.5347 23.9525 68.6007 24.0344 68.6007 24.1646V31.9051C68.6007 32.0353 68.5178 32.1172 68.3859 32.1172ZM52.0285 27.1525H56.0801C56.18 27.1525 56.2459 27.0874 56.229 26.9897C56.0801 26.0428 55.1541 25.373 53.9964 25.373C52.8715 25.373 51.9785 26.0419 51.8466 26.973C51.8297 27.0707 51.9126 27.1525 52.0285 27.1525ZM49.7967 27.986C49.7967 25.5525 51.5829 23.773 54.0133 23.773C56.3778 23.773 58.3297 25.3572 58.1629 28.3107C58.1629 28.4912 58.0311 28.6214 57.8323 28.6214H51.9785C51.8626 28.6214 51.8127 28.7032 51.8297 28.8177C51.9126 29.8632 52.8715 30.6632 54.0454 30.6632C54.9045 30.6632 55.6327 30.2716 55.9963 29.6186C56.0462 29.5042 56.1121 29.4549 56.228 29.4549H57.7993C57.9321 29.4549 58.0151 29.5525 57.9651 29.7163C57.4857 31.252 55.9642 32.2967 54.1951 32.2967C51.5989 32.2967 49.7967 30.533 49.7967 27.986ZM48.8971 32.1172H42.2492C42.1163 32.1172 42.0334 32.0353 42.0363 31.9051V30.9414C42.0363 30.8102 42.0692 30.68 42.1682 30.5656L46.2688 25.8297C46.3517 25.7311 46.2858 25.6009 46.1699 25.6009H42.3829C42.2511 25.6009 42.1682 25.519 42.1682 25.3888V24.1637C42.1682 24.0335 42.2511 23.9516 42.3829 23.9516H48.7492C48.8811 23.9516 48.964 24.0335 48.964 24.1637V25.0949C48.964 25.2586 48.914 25.373 48.7982 25.5032L44.6806 30.239C44.5977 30.3377 44.6806 30.4679 44.7964 30.4679H48.8971C49.029 30.4679 49.1119 30.5498 49.1119 30.68V31.9051C49.1119 32.0353 49.029 32.1172 48.8971 32.1172ZM64.9965 23.9525H63.9047C62.8957 23.9525 62.2514 24.3116 61.9037 25.079C61.8049 25.2912 61.5232 25.2427 61.5232 25.0297V24.1646C61.5232 24.0344 61.4403 23.9525 61.3084 23.9525H59.9189C59.787 23.9525 59.7041 24.0344 59.7041 24.1646V31.9051C59.7041 32.0353 59.787 32.1172 59.9189 32.1172H61.5062C61.6551 32.1172 61.721 32.0195 61.721 31.9051V26.386C61.721 26.1897 61.8698 25.9944 62.0847 25.9944H64.9946C65.1265 25.9944 65.2094 25.9125 65.2094 25.7823V24.1656C65.2113 24.0344 65.1284 23.9525 64.9965 23.9525ZM74.3677 30.5823C72.995 30.5823 72.0191 29.5042 72.0191 28.0018C72.0191 26.5321 72.995 25.4874 74.3677 25.4874C75.7403 25.4874 76.7322 26.5321 76.7322 28.0018C76.7322 29.5042 75.7393 30.5823 74.3677 30.5823ZM74.3836 32.2967C76.9301 32.2967 78.749 30.5005 78.749 27.986C78.749 25.5367 76.9301 23.773 74.3836 23.773C71.8207 23.773 69.9855 25.5367 69.9855 27.986C69.9855 30.5005 71.8207 32.2967 74.3836 32.2967ZM88 27.1209V31.9051C88 32.0353 87.917 32.1172 87.7841 32.1172H86.1971C86.0652 32.1172 85.9822 32.0353 85.9822 31.9051V27.48C85.9822 26.2055 85.3366 25.4874 84.1958 25.4874C82.8736 25.4874 82.1621 26.239 82.1621 27.6921V31.9051C82.1621 32.0353 82.0791 32.1172 81.9472 32.1172H80.3602C80.2283 32.1172 80.1453 32.0353 80.1453 31.9051V24.1646C80.1453 24.0344 80.2283 23.9525 80.3602 23.9525H81.7493C81.8812 23.9525 81.9642 24.0344 81.9642 24.1814V24.8018C81.9642 24.9981 82.1631 25.0474 82.295 24.8837C82.8577 24.1646 83.7336 23.773 84.7755 23.773C86.6933 23.773 88 24.9488 88 27.1209Z"/>
<path fill-rule="evenodd" clip-rule="evenodd" d="M24.5816 36H31.6214C34.1518 36 36.203 33.9745 36.203 31.4758V24.5242C36.203 22.0255 34.1518 20 31.6214 20L24.5816 20C22.0511 20 20 22.0255 20 24.5242L20 31.4758C20 33.9745 22.0511 36 24.5816 36ZM31.877 31.0286C30.4353 30.1408 28.5198 29.0511 26.9452 28.2112C26.5631 28.0076 26.0517 28.0836 25.7382 28.5253C25.1535 29.3479 24.4533 30.386 23.9748 31.2042C23.776 31.5354 24.0417 31.9735 24.4395 31.9735H31.5727C32.0868 31.9735 32.3022 31.3309 31.877 31.0286ZM29.2414 27.9381C27.72 27.1371 25.5863 25.918 24.0704 24.9967C23.6021 24.7116 23.7891 24.0265 24.3353 24.0274C25.2302 24.0274 26.6846 24.0272 28.1315 24.027C29.5639 24.0268 30.989 24.0265 31.8571 24.0265C32.2943 24.0265 32.5188 24.4736 32.3328 24.7868C31.705 25.8429 30.9992 26.909 30.4136 27.7046C30.1524 28.0593 29.6227 28.139 29.2414 27.9381Z"/>
</mask>
<path fill-rule="evenodd" clip-rule="evenodd" d="M68.8494 21.4056C68.8494 22.0753 68.287 22.6139 67.6087 22.6139C66.9144 22.6139 66.3351 22.0753 66.3351 21.4056C66.3351 20.7358 66.9144 20.1972 67.6087 20.1972C68.287 20.1972 68.8494 20.7358 68.8494 21.4056ZM68.3859 32.1172H66.7985C66.6657 32.1172 66.5838 32.0353 66.5838 31.9051V24.1646C66.5838 24.0344 66.6667 23.9525 66.7985 23.9525H68.3859C68.5347 23.9525 68.6007 24.0344 68.6007 24.1646V31.9051C68.6007 32.0353 68.5178 32.1172 68.3859 32.1172ZM52.0285 27.1525H56.0801C56.18 27.1525 56.2459 27.0874 56.229 26.9897C56.0801 26.0428 55.1541 25.373 53.9964 25.373C52.8715 25.373 51.9785 26.0419 51.8466 26.973C51.8297 27.0707 51.9126 27.1525 52.0285 27.1525ZM49.7967 27.986C49.7967 25.5525 51.5829 23.773 54.0133 23.773C56.3778 23.773 58.3297 25.3572 58.1629 28.3107C58.1629 28.4912 58.0311 28.6214 57.8323 28.6214H51.9785C51.8626 28.6214 51.8127 28.7032 51.8297 28.8177C51.9126 29.8632 52.8715 30.6632 54.0454 30.6632C54.9045 30.6632 55.6327 30.2716 55.9963 29.6186C56.0462 29.5042 56.1121 29.4549 56.228 29.4549H57.7993C57.9321 29.4549 58.0151 29.5525 57.9651 29.7163C57.4857 31.252 55.9642 32.2967 54.1951 32.2967C51.5989 32.2967 49.7967 30.533 49.7967 27.986ZM48.8971 32.1172H42.2492C42.1163 32.1172 42.0334 32.0353 42.0363 31.9051V30.9414C42.0363 30.8102 42.0692 30.68 42.1682 30.5656L46.2688 25.8297C46.3517 25.7311 46.2858 25.6009 46.1699 25.6009H42.3829C42.2511 25.6009 42.1682 25.519 42.1682 25.3888V24.1637C42.1682 24.0335 42.2511 23.9516 42.3829 23.9516H48.7492C48.8811 23.9516 48.964 24.0335 48.964 24.1637V25.0949C48.964 25.2586 48.914 25.373 48.7982 25.5032L44.6806 30.239C44.5977 30.3377 44.6806 30.4679 44.7964 30.4679H48.8971C49.029 30.4679 49.1119 30.5498 49.1119 30.68V31.9051C49.1119 32.0353 49.029 32.1172 48.8971 32.1172ZM64.9965 23.9525H63.9047C62.8957 23.9525 62.2514 24.3116 61.9037 25.079C61.8049 25.2912 61.5232 25.2427 61.5232 25.0297V24.1646C61.5232 24.0344 61.4403 23.9525 61.3084 23.9525H59.9189C59.787 23.9525 59.7041 24.0344 59.7041 24.1646V31.9051C59.7041 32.0353 59.787 32.1172 59.9189 32.1172H61.5062C61.6551 32.1172 61.721 32.0195 61.721 31.9051V26.386C61.721 26.1897 61.8698 25.9944 62.0847 25.9944H64.9946C65.1265 25.9944 65.2094 25.9125 65.2094 25.7823V24.1656C65.2113 24.0344 65.1284 23.9525 64.9965 23.9525ZM74.3677 30.5823C72.995 30.5823 72.0191 29.5042 72.0191 28.0018C72.0191 26.5321 72.995 25.4874 74.3677 25.4874C75.7403 25.4874 76.7322 26.5321 76.7322 28.0018C76.7322 29.5042 75.7393 30.5823 74.3677 30.5823ZM74.3836 32.2967C76.9301 32.2967 78.749 30.5005 78.749 27.986C78.749 25.5367 76.9301 23.773 74.3836 23.773C71.8207 23.773 69.9855 25.5367 69.9855 27.986C69.9855 30.5005 71.8207 32.2967 74.3836 32.2967ZM88 27.1209V31.9051C88 32.0353 87.917 32.1172 87.7841 32.1172H86.1971C86.0652 32.1172 85.9822 32.0353 85.9822 31.9051V27.48C85.9822 26.2055 85.3366 25.4874 84.1958 25.4874C82.8736 25.4874 82.1621 26.239 82.1621 27.6921V31.9051C82.1621 32.0353 82.0791 32.1172 81.9472 32.1172H80.3602C80.2283 32.1172 80.1453 32.0353 80.1453 31.9051V24.1646C80.1453 24.0344 80.2283 23.9525 80.3602 23.9525H81.7493C81.8812 23.9525 81.9642 24.0344 81.9642 24.1814V24.8018C81.9642 24.9981 82.1631 25.0474 82.295 24.8837C82.8577 24.1646 83.7336 23.773 84.7755 23.773C86.6933 23.773 88 24.9488 88 27.1209Z" fill="var(--fill-0, white)"/>
<path fill-rule="evenodd" clip-rule="evenodd" d="M24.5816 36H31.6214C34.1518 36 36.203 33.9745 36.203 31.4758V24.5242C36.203 22.0255 34.1518 20 31.6214 20L24.5816 20C22.0511 20 20 22.0255 20 24.5242L20 31.4758C20 33.9745 22.0511 36 24.5816 36ZM31.877 31.0286C30.4353 30.1408 28.5198 29.0511 26.9452 28.2112C26.5631 28.0076 26.0517 28.0836 25.7382 28.5253C25.1535 29.3479 24.4533 30.386 23.9748 31.2042C23.776 31.5354 24.0417 31.9735 24.4395 31.9735H31.5727C32.0868 31.9735 32.3022 31.3309 31.877 31.0286ZM29.2414 27.9381C27.72 27.1371 25.5863 25.918 24.0704 24.9967C23.6021 24.7116 23.7891 24.0265 24.3353 24.0274C25.2302 24.0274 26.6846 24.0272 28.1315 24.027C29.5639 24.0268 30.989 24.0265 31.8571 24.0265C32.2943 24.0265 32.5188 24.4736 32.3328 24.7868C31.705 25.8429 30.9992 26.909 30.4136 27.7046C30.1524 28.0593 29.6227 28.139 29.2414 27.9381Z" fill="var(--fill-0, white)"/>
<path fill-rule="evenodd" clip-rule="evenodd" d="M68.8494 21.4056C68.8494 22.0753 68.287 22.6139 67.6087 22.6139C66.9144 22.6139 66.3351 22.0753 66.3351 21.4056C66.3351 20.7358 66.9144 20.1972 67.6087 20.1972C68.287 20.1972 68.8494 20.7358 68.8494 21.4056ZM68.3859 32.1172H66.7985C66.6657 32.1172 66.5838 32.0353 66.5838 31.9051V24.1646C66.5838 24.0344 66.6667 23.9525 66.7985 23.9525H68.3859C68.5347 23.9525 68.6007 24.0344 68.6007 24.1646V31.9051C68.6007 32.0353 68.5178 32.1172 68.3859 32.1172ZM52.0285 27.1525H56.0801C56.18 27.1525 56.2459 27.0874 56.229 26.9897C56.0801 26.0428 55.1541 25.373 53.9964 25.373C52.8715 25.373 51.9785 26.0419 51.8466 26.973C51.8297 27.0707 51.9126 27.1525 52.0285 27.1525ZM49.7967 27.986C49.7967 25.5525 51.5829 23.773 54.0133 23.773C56.3778 23.773 58.3297 25.3572 58.1629 28.3107C58.1629 28.4912 58.0311 28.6214 57.8323 28.6214H51.9785C51.8626 28.6214 51.8127 28.7032 51.8297 28.8177C51.9126 29.8632 52.8715 30.6632 54.0454 30.6632C54.9045 30.6632 55.6327 30.2716 55.9963 29.6186C56.0462 29.5042 56.1121 29.4549 56.228 29.4549H57.7993C57.9321 29.4549 58.0151 29.5525 57.9651 29.7163C57.4857 31.252 55.9642 32.2967 54.1951 32.2967C51.5989 32.2967 49.7967 30.533 49.7967 27.986ZM48.8971 32.1172H42.2492C42.1163 32.1172 42.0334 32.0353 42.0363 31.9051V30.9414C42.0363 30.8102 42.0692 30.68 42.1682 30.5656L46.2688 25.8297C46.3517 25.7311 46.2858 25.6009 46.1699 25.6009H42.3829C42.2511 25.6009 42.1682 25.519 42.1682 25.3888V24.1637C42.1682 24.0335 42.2511 23.9516 42.3829 23.9516H48.7492C48.8811 23.9516 48.964 24.0335 48.964 24.1637V25.0949C48.964 25.2586 48.914 25.373 48.7982 25.5032L44.6806 30.239C44.5977 30.3377 44.6806 30.4679 44.7964 30.4679H48.8971C49.029 30.4679 49.1119 30.5498 49.1119 30.68V31.9051C49.1119 32.0353 49.029 32.1172 48.8971 32.1172ZM64.9965 23.9525H63.9047C62.8957 23.9525 62.2514 24.3116 61.9037 25.079C61.8049 25.2912 61.5232 25.2427 61.5232 25.0297V24.1646C61.5232 24.0344 61.4403 23.9525 61.3084 23.9525H59.9189C59.787 23.9525 59.7041 24.0344 59.7041 24.1646V31.9051C59.7041 32.0353 59.787 32.1172 59.9189 32.1172H61.5062C61.6551 32.1172 61.721 32.0195 61.721 31.9051V26.386C61.721 26.1897 61.8698 25.9944 62.0847 25.9944H64.9946C65.1265 25.9944 65.2094 25.9125 65.2094 25.7823V24.1656C65.2113 24.0344 65.1284 23.9525 64.9965 23.9525ZM74.3677 30.5823C72.995 30.5823 72.0191 29.5042 72.0191 28.0018C72.0191 26.5321 72.995 25.4874 74.3677 25.4874C75.7403 25.4874 76.7322 26.5321 76.7322 28.0018C76.7322 29.5042 75.7393 30.5823 74.3677 30.5823ZM74.3836 32.2967C76.9301 32.2967 78.749 30.5005 78.749 27.986C78.749 25.5367 76.9301 23.773 74.3836 23.773C71.8207 23.773 69.9855 25.5367 69.9855 27.986C69.9855 30.5005 71.8207 32.2967 74.3836 32.2967ZM88 27.1209V31.9051C88 32.0353 87.917 32.1172 87.7841 32.1172H86.1971C86.0652 32.1172 85.9822 32.0353 85.9822 31.9051V27.48C85.9822 26.2055 85.3366 25.4874 84.1958 25.4874C82.8736 25.4874 82.1621 26.239 82.1621 27.6921V31.9051C82.1621 32.0353 82.0791 32.1172 81.9472 32.1172H80.3602C80.2283 32.1172 80.1453 32.0353 80.1453 31.9051V24.1646C80.1453 24.0344 80.2283 23.9525 80.3602 23.9525H81.7493C81.8812 23.9525 81.9642 24.0344 81.9642 24.1814V24.8018C81.9642 24.9981 82.1631 25.0474 82.295 24.8837C82.8577 24.1646 83.7336 23.773 84.7755 23.773C86.6933 23.773 88 24.9488 88 27.1209Z" stroke="var(--stroke-0, white)" stroke-width="3.56535" mask="url(#path-1-inside-1_0_6)"/>
<path fill-rule="evenodd" clip-rule="evenodd" d="M24.5816 36H31.6214C34.1518 36 36.203 33.9745 36.203 31.4758V24.5242C36.203 22.0255 34.1518 20 31.6214 20L24.5816 20C22.0511 20 20 22.0255 20 24.5242L20 31.4758C20 33.9745 22.0511 36 24.5816 36ZM31.877 31.0286C30.4353 30.1408 28.5198 29.0511 26.9452 28.2112C26.5631 28.0076 26.0517 28.0836 25.7382 28.5253C25.1535 29.3479 24.4533 30.386 23.9748 31.2042C23.776 31.5354 24.0417 31.9735 24.4395 31.9735H31.5727C32.0868 31.9735 32.3022 31.3309 31.877 31.0286ZM29.2414 27.9381C27.72 27.1371 25.5863 25.918 24.0704 24.9967C23.6021 24.7116 23.7891 24.0265 24.3353 24.0274C25.2302 24.0274 26.6846 24.0272 28.1315 24.027C29.5639 24.0268 30.989 24.0265 31.8571 24.0265C32.2943 24.0265 32.5188 24.4736 32.3328 24.7868C31.705 25.8429 30.9992 26.909 30.4136 27.7046C30.1524 28.0593 29.6227 28.139 29.2414 27.9381Z" stroke="var(--stroke-0, white)" stroke-width="3.56535" mask="url(#path-1-inside-1_0_6)"/>
</g>
</g>
</svg>
