<svg preserveAspectRatio="none" width="100%" height="100%" overflow="visible" style="display: block;" viewBox="0 0 65 18" fill="none" xmlns="http://www.w3.org/2000/svg">
<g id="fcompany" clip-path="url(#clip0_0_8)">
<g id="Vector">
<mask id="path-1-inside-1_0_8" fill="white">
<path fill-rule="evenodd" clip-rule="evenodd" d="M16.4953 2.35549L14.1827 3.66056L3.01547 9.96085C2.97771 9.64184 2.95871 9.32044 2.95859 8.9987C2.96012 7.71496 3.2644 6.45394 3.84131 5.34054C4.41821 4.22714 5.24772 3.3 6.24766 2.65095C7.2476 2.0019 8.38328 1.65347 9.54221 1.64016C10.7011 1.62686 11.8431 1.94915 12.855 2.57511L14.1786 1.82807L14.3761 1.71647C13.1209 0.707374 11.6313 0.117228 10.0831 0.0157274C8.53485 -0.0857731 6.99275 0.305613 5.63889 1.14366C4.28503 1.9817 3.17598 3.2314 2.44272 4.74515C1.70947 6.2589 1.38263 7.97346 1.50083 9.68633C1.52272 10.0084 1.45819 10.3304 1.31535 10.6119C1.17251 10.8934 0.95773 11.1219 0.698003 11.2686L0 11.6628V13.5016L2.05501 12.3415L2.72051 11.9652L3.37625 11.5953L15.1489 4.95121L16.4717 4.20508L19.206 2.66151V0.823624L16.4953 2.35549ZM19.206 4.50209L4.045 13.0525L2.72213 13.8004L0 15.3368V17.1738L2.70344 15.6482L5.01603 14.3432L16.1946 8.03386C16.2326 8.35517 16.2515 8.67799 16.2515 9.0023C16.2508 10.2875 15.9466 11.5502 15.3691 12.6649C14.7917 13.7797 13.961 14.7078 12.9596 15.357C11.9582 16.0063 10.821 16.3541 9.66069 16.3661C8.50041 16.378 7.3575 16.0536 6.34541 15.425L6.26415 15.4727L4.82914 16.2827C6.0844 17.2922 7.57431 17.8827 9.12283 17.9843C10.6713 18.0858 12.2138 17.6944 13.5678 16.856C14.9219 16.0177 16.031 14.7676 16.7642 13.2534C17.4974 11.7392 17.8239 10.0242 17.7052 8.31107C17.6833 7.98914 17.7477 7.6672 17.8904 7.38569C18.033 7.10418 18.2477 6.87564 18.5072 6.7288L19.206 6.33458V4.50209ZM37.9246 10.6539C37.9246 7.66844 39.7236 5.77835 42.0427 5.77835C44.6454 5.77835 46.1763 8.17246 46.0024 11.1606H39.4709C39.518 13.1875 40.8433 14.1658 42.0898 14.1658C43.3526 14.1658 44.0465 13.5367 44.4089 12.6106H45.8919C45.5132 14.2189 44.157 15.5645 42.0898 15.5645C39.4075 15.5645 37.9246 13.4323 37.9246 10.6539ZM42.0427 7.14102C40.78 7.14102 39.6131 7.90695 39.4863 9.79704H44.4877C44.4406 8.46948 43.5728 7.14102 42.0427 7.14102ZM29.1918 8.06536L27.8701 7.73324C26.7935 7.47043 26.0012 6.91241 26.0012 5.79365C26.0012 4.37789 27.5451 3.94137 28.4308 3.94137C29.5684 3.94137 30.8921 4.44809 31.2708 5.89806H32.8334C32.3751 3.46795 30.5581 2.4383 28.4942 2.4383C26.648 2.4383 24.3606 3.46975 24.3606 5.89806C24.3606 7.99516 25.9224 8.9744 27.5004 9.35872L28.9265 9.69083C30.3623 10.0581 31.3878 10.5819 31.3878 11.9274C31.3878 13.1875 30.4257 14.0596 28.7217 14.0596C26.9389 14.0596 25.8663 13.1506 25.5665 11.4036H23.9852C24.2851 13.9237 25.989 15.5627 28.6868 15.5627C30.962 15.5627 33.0414 14.2342 33.0414 11.7699C33.0414 9.21921 30.9437 8.48478 29.1918 8.06536ZM34.6885 3.57415H36.1243V5.93316H37.7332V7.20897H36.1243V12.7843C36.1243 13.7626 36.1869 14.0074 37.0076 14.0074H37.7332V15.335H36.6923C35.0671 15.335 34.6885 14.9331 34.6885 12.9755V7.20942H33.3469V5.93316H34.6885V3.57415ZM64.5742 5.88276C63.4537 5.93496 62.6021 6.51279 62.1763 7.57754V5.93496H60.7713V15.3363H62.2072V10.4086C62.2072 8.31152 62.8702 7.52848 64.1956 7.52848C64.4653 7.52848 64.7335 7.55189 65 7.59869V5.89941C64.8583 5.88591 64.7164 5.88036 64.5742 5.88276ZM59.405 9.62423L59.3896 11.7915C59.3733 13.3792 59.4367 14.4449 59.6098 15.3386H58.1585C58.097 14.9105 58.0602 14.4797 58.048 14.0461C57.528 15.0263 56.6601 15.5663 55.1455 15.5663C53.552 15.5663 52.2267 14.5871 52.2267 12.8572C52.2267 10.6341 54.4987 9.97435 57.9692 9.55403V9.32722C57.9692 7.59734 57.1176 7.03841 56.0442 7.03841C54.8456 7.03841 54.1671 7.73774 54.1038 8.9078H52.6208C52.7468 6.8809 54.3882 5.74505 56.0288 5.74505C58.4112 5.74505 59.4213 6.95021 59.405 9.62423ZM55.4608 14.308C56.8023 14.308 58.0797 13.6258 58.0797 11.4072V10.8123C55.4762 11.0922 53.8202 11.5287 53.8202 12.8221C53.8202 13.714 54.4353 14.308 55.4608 14.308ZM48.4035 2.65971H46.9677V15.3359H48.4035V2.65971ZM49.8385 2.65971H51.2744V15.3359H49.8385V2.65971Z"/>
</mask>
<path fill-rule="evenodd" clip-rule="evenodd" d="M16.4953 2.35549L14.1827 3.66056L3.01547 9.96085C2.97771 9.64184 2.95871 9.32044 2.95859 8.9987C2.96012 7.71496 3.2644 6.45394 3.84131 5.34054C4.41821 4.22714 5.24772 3.3 6.24766 2.65095C7.2476 2.0019 8.38328 1.65347 9.54221 1.64016C10.7011 1.62686 11.8431 1.94915 12.855 2.57511L14.1786 1.82807L14.3761 1.71647C13.1209 0.707374 11.6313 0.117228 10.0831 0.0157274C8.53485 -0.0857731 6.99275 0.305613 5.63889 1.14366C4.28503 1.9817 3.17598 3.2314 2.44272 4.74515C1.70947 6.2589 1.38263 7.97346 1.50083 9.68633C1.52272 10.0084 1.45819 10.3304 1.31535 10.6119C1.17251 10.8934 0.95773 11.1219 0.698003 11.2686L0 11.6628V13.5016L2.05501 12.3415L2.72051 11.9652L3.37625 11.5953L15.1489 4.95121L16.4717 4.20508L19.206 2.66151V0.823624L16.4953 2.35549ZM19.206 4.50209L4.045 13.0525L2.72213 13.8004L0 15.3368V17.1738L2.70344 15.6482L5.01603 14.3432L16.1946 8.03386C16.2326 8.35517 16.2515 8.67799 16.2515 9.0023C16.2508 10.2875 15.9466 11.5502 15.3691 12.6649C14.7917 13.7797 13.961 14.7078 12.9596 15.357C11.9582 16.0063 10.821 16.3541 9.66069 16.3661C8.50041 16.378 7.3575 16.0536 6.34541 15.425L6.26415 15.4727L4.82914 16.2827C6.0844 17.2922 7.57431 17.8827 9.12283 17.9843C10.6713 18.0858 12.2138 17.6944 13.5678 16.856C14.9219 16.0177 16.031 14.7676 16.7642 13.2534C17.4974 11.7392 17.8239 10.0242 17.7052 8.31107C17.6833 7.98914 17.7477 7.6672 17.8904 7.38569C18.033 7.10418 18.2477 6.87564 18.5072 6.7288L19.206 6.33458V4.50209ZM37.9246 10.6539C37.9246 7.66844 39.7236 5.77835 42.0427 5.77835C44.6454 5.77835 46.1763 8.17246 46.0024 11.1606H39.4709C39.518 13.1875 40.8433 14.1658 42.0898 14.1658C43.3526 14.1658 44.0465 13.5367 44.4089 12.6106H45.8919C45.5132 14.2189 44.157 15.5645 42.0898 15.5645C39.4075 15.5645 37.9246 13.4323 37.9246 10.6539ZM42.0427 7.14102C40.78 7.14102 39.6131 7.90695 39.4863 9.79704H44.4877C44.4406 8.46948 43.5728 7.14102 42.0427 7.14102ZM29.1918 8.06536L27.8701 7.73324C26.7935 7.47043 26.0012 6.91241 26.0012 5.79365C26.0012 4.37789 27.5451 3.94137 28.4308 3.94137C29.5684 3.94137 30.8921 4.44809 31.2708 5.89806H32.8334C32.3751 3.46795 30.5581 2.4383 28.4942 2.4383C26.648 2.4383 24.3606 3.46975 24.3606 5.89806C24.3606 7.99516 25.9224 8.9744 27.5004 9.35872L28.9265 9.69083C30.3623 10.0581 31.3878 10.5819 31.3878 11.9274C31.3878 13.1875 30.4257 14.0596 28.7217 14.0596C26.9389 14.0596 25.8663 13.1506 25.5665 11.4036H23.9852C24.2851 13.9237 25.989 15.5627 28.6868 15.5627C30.962 15.5627 33.0414 14.2342 33.0414 11.7699C33.0414 9.21921 30.9437 8.48478 29.1918 8.06536ZM34.6885 3.57415H36.1243V5.93316H37.7332V7.20897H36.1243V12.7843C36.1243 13.7626 36.1869 14.0074 37.0076 14.0074H37.7332V15.335H36.6923C35.0671 15.335 34.6885 14.9331 34.6885 12.9755V7.20942H33.3469V5.93316H34.6885V3.57415ZM64.5742 5.88276C63.4537 5.93496 62.6021 6.51279 62.1763 7.57754V5.93496H60.7713V15.3363H62.2072V10.4086C62.2072 8.31152 62.8702 7.52848 64.1956 7.52848C64.4653 7.52848 64.7335 7.55189 65 7.59869V5.89941C64.8583 5.88591 64.7164 5.88036 64.5742 5.88276ZM59.405 9.62423L59.3896 11.7915C59.3733 13.3792 59.4367 14.4449 59.6098 15.3386H58.1585C58.097 14.9105 58.0602 14.4797 58.048 14.0461C57.528 15.0263 56.6601 15.5663 55.1455 15.5663C53.552 15.5663 52.2267 14.5871 52.2267 12.8572C52.2267 10.6341 54.4987 9.97435 57.9692 9.55403V9.32722C57.9692 7.59734 57.1176 7.03841 56.0442 7.03841C54.8456 7.03841 54.1671 7.73774 54.1038 8.9078H52.6208C52.7468 6.8809 54.3882 5.74505 56.0288 5.74505C58.4112 5.74505 59.4213 6.95021 59.405 9.62423ZM55.4608 14.308C56.8023 14.308 58.0797 13.6258 58.0797 11.4072V10.8123C55.4762 11.0922 53.8202 11.5287 53.8202 12.8221C53.8202 13.714 54.4353 14.308 55.4608 14.308ZM48.4035 2.65971H46.9677V15.3359H48.4035V2.65971ZM49.8385 2.65971H51.2744V15.3359H49.8385V2.65971Z" fill="var(--fill-0, white)" stroke="var(--stroke-0, white)" stroke-width="2.4068" mask="url(#path-1-inside-1_0_8)"/>
</g>
</g>
<defs>
<clipPath id="clip0_0_8">
<rect width="65" height="18" fill="white"/>
</clipPath>
</defs>
</svg>
