<svg preserveAspectRatio="none" width="100%" height="100%" overflow="visible" style="display: block;" viewBox="0 0 108 63.8398" fill="none" xmlns="http://www.w3.org/2000/svg">
<g id="co">
<g id="Vector">
<mask id="path-1-inside-1_0_4" fill="white">
<path d="M42.2106 31.6813C42.2106 37.3343 37.628 41.9169 31.975 41.9169C26.322 41.9169 21.7394 37.3343 21.7394 31.6813C21.7394 26.0284 26.322 21.4457 31.975 21.4457C37.628 21.4457 42.2106 26.0284 42.2106 31.6813Z"/>
<path fill-rule="evenodd" clip-rule="evenodd" d="M37.6848 23.8949C36.0974 22.7556 34.208 22.1123 32.2551 22.0464C30.3023 21.9806 28.3738 22.4951 26.7133 23.5249C25.0528 24.5548 23.7349 26.0537 22.926 27.8324C22.1172 29.611 21.8538 31.5896 22.169 33.5179C22.4053 34.9596 22.9583 36.3311 23.7883 37.5334C24.6184 38.7357 25.7047 39.7389 26.9691 40.4708C28.2335 41.2028 29.6446 41.6452 31.1005 41.7661C32.5565 41.8871 34.0212 41.6837 35.3891 41.1705C36.7568 40.6573 37.9938 39.8473 39.0109 38.7987C40.0281 37.7501 40.8001 36.489 41.2713 35.1062C41.7426 33.7235 41.9014 32.2534 41.7364 30.8019C41.5713 29.3504 41.0865 27.9536 40.3168 26.7119C39.6331 25.6091 38.7387 24.6518 37.6848 23.8949ZM32.325 20.0069C34.0862 20.0671 35.8122 20.5169 37.3788 21.3242C38.9454 22.1314 40.3135 23.2758 41.3847 24.6752C42.4559 26.0745 43.2036 27.694 43.5739 29.4169C43.9442 31.1399 43.928 32.9235 43.5264 34.6394C43.0338 36.7412 41.9797 38.6698 40.4766 40.2194C38.9735 41.7689 37.0779 42.8811 34.992 43.4373C32.9061 43.9935 30.7083 43.9729 28.6333 43.3775C26.5582 42.7822 24.6838 41.6345 23.2101 40.057C21.6006 38.3344 20.5381 36.1732 20.1569 33.8468C19.7757 31.5203 20.0929 29.1331 21.0685 26.9869C22.044 24.8408 23.6341 23.0321 25.6376 21.7897C27.6411 20.5472 29.9688 19.9268 32.325 20.0069Z"/>
<path d="M29.0564 43.1407L29.0418 43.1371L29.0279 43.1342H29.0264L29.0198 43.1327L28.9891 43.1254L28.8626 43.0961C28.7508 43.0691 28.5848 43.0245 28.3772 42.9587C27.9604 42.8271 27.3755 42.6099 26.7051 42.2685C25.0939 41.4538 23.6952 40.2742 22.6204 38.8235L23.6293 38.4923L27.8559 37.1105C31.4851 35.9246 36.7791 34.1955 43.5178 31.9978C43.52 32.1879 43.5164 32.4372 43.4974 32.7326C43.4319 33.7148 43.2428 34.6849 42.9344 35.6198C42.1879 37.8833 40.5115 40.6242 36.7638 42.5112L36.7579 42.5142L36.7287 42.5273L36.6088 42.58C36.502 42.6246 36.3434 42.6896 36.1394 42.7627C35.7315 42.9104 35.1429 43.0961 34.4279 43.2467C32.9949 43.548 31.0662 43.7037 29.0564 43.1407Z"/>
<path d="M51.0209 25.9636H55.1547C55.8926 25.9636 56.5599 26.0869 57.1565 26.3336C57.7538 26.5728 58.2841 26.9534 58.702 27.4427C59.1363 27.9237 59.4673 28.534 59.6949 29.2734C59.9337 30.0016 60.0531 30.8528 60.0531 31.8272C60.0531 32.802 59.9337 33.6591 59.6949 34.3985C59.4673 35.1257 59.1363 35.7362 58.702 36.2299C58.2801 36.7105 57.7505 37.0845 57.1565 37.3215C56.5599 37.5681 55.8926 37.6914 55.1547 37.6914H51.0209V25.9636ZM55.1547 35.7255C55.9574 35.7255 56.592 35.4847 57.0585 35.0031C57.5362 34.5108 57.775 33.7602 57.775 32.7513V30.9038C57.775 29.8948 57.5362 29.1498 57.0585 28.6687C56.592 28.176 55.9574 27.9296 55.1547 27.9296H53.169V35.7255H55.1547ZM67.0258 36.2299H66.9446C66.8678 36.4544 66.764 36.6688 66.6354 36.8682C66.5159 37.0583 66.3585 37.2318 66.1631 37.3887C65.9611 37.5545 65.7293 37.6801 65.4802 37.7587C65.1859 37.854 64.8778 37.8994 64.5685 37.8932C63.6897 37.8932 63.0171 37.5964 62.5506 37.0027C62.0842 36.4086 61.851 35.5629 61.851 34.4657V28.921H63.9339V34.2471C63.9339 34.8515 64.0477 35.3163 64.2753 35.6414C64.5034 35.9558 64.867 36.1127 65.3661 36.1122C65.5723 36.1122 65.7729 36.0842 65.9679 36.0281C66.174 35.9716 66.3531 35.8875 66.5052 35.7759C66.6573 35.6526 66.7821 35.5069 66.8796 35.3387C66.977 35.1598 67.0258 34.9527 67.0258 34.7172V28.921H69.1095V37.6914H67.0258V36.2299ZM71.3532 37.6914V28.921H73.4362V30.3832H73.5173C73.6812 29.9265 73.9617 29.5207 74.3311 29.2061C74.7113 28.8815 75.2321 28.7192 75.8935 28.7192C76.7723 28.7192 77.4449 29.016 77.9113 29.6097C78.3778 30.2033 78.611 31.049 78.611 32.1466V37.6922H76.5281V32.366C76.5281 31.7382 76.4196 31.2678 76.2027 30.9549C75.9858 30.6406 75.6278 30.4836 75.1287 30.4841C74.9118 30.4841 74.7003 30.5177 74.4941 30.585C74.2992 30.6415 74.12 30.7312 73.9567 30.854C73.8013 30.9702 73.6735 31.1192 73.5824 31.2905C73.4849 31.4587 73.4362 31.6602 73.4362 31.8951V37.6922L71.3532 37.6914ZM84.1916 37.8932C83.5629 37.8932 82.9987 37.7867 82.4991 37.5737C82.021 37.3573 81.594 37.0424 81.246 36.6496C80.9096 36.246 80.6494 35.7644 80.4651 35.2049C80.2799 34.6332 80.1876 33.9947 80.188 33.2894C80.188 32.5948 80.2748 31.9675 80.4483 31.4075C80.6335 30.8475 80.894 30.3715 81.2299 29.9796C81.5631 29.5778 81.9871 29.261 82.4669 29.0555C82.9543 28.8313 83.5075 28.7192 84.1265 28.7192C84.7885 28.7192 85.3636 28.8369 85.852 29.0723C86.322 29.2942 86.7341 29.6221 87.0561 30.0301C87.371 30.4332 87.6042 30.9035 87.7558 31.4411C87.9186 31.9675 88 32.5332 88 33.138V33.8436H82.3529V34.0622C82.3529 34.7007 82.5264 35.2159 82.8734 35.6077C83.2209 35.9889 83.7364 36.1795 84.4197 36.1795C84.9398 36.1795 85.3629 36.0674 85.6889 35.8432C86.0253 35.619 86.3235 35.3333 86.5838 34.9863L87.7068 36.2804C87.3598 36.7844 86.8824 37.1818 86.2746 37.4728C85.678 37.7531 84.9837 37.8932 84.1916 37.8932ZM84.1595 30.332C83.6058 30.332 83.1664 30.5226 82.8413 30.9038C82.5157 31.2839 82.3529 31.7767 82.3529 32.3821V32.5166H85.8352V32.3653C85.8352 31.7609 85.6889 31.2735 85.3965 30.903C85.1143 30.5228 84.7019 30.332 84.1595 30.332Z"/>
</mask>
<path d="M42.2106 31.6813C42.2106 37.3343 37.628 41.9169 31.975 41.9169C26.322 41.9169 21.7394 37.3343 21.7394 31.6813C21.7394 26.0284 26.322 21.4457 31.975 21.4457C37.628 21.4457 42.2106 26.0284 42.2106 31.6813Z" fill="#535353"/>
<path fill-rule="evenodd" clip-rule="evenodd" d="M37.6848 23.8949C36.0974 22.7556 34.208 22.1123 32.2551 22.0464C30.3023 21.9806 28.3738 22.4951 26.7133 23.5249C25.0528 24.5548 23.7349 26.0537 22.926 27.8324C22.1172 29.611 21.8538 31.5896 22.169 33.5179C22.4053 34.9596 22.9583 36.3311 23.7883 37.5334C24.6184 38.7357 25.7047 39.7389 26.9691 40.4708C28.2335 41.2028 29.6446 41.6452 31.1005 41.7661C32.5565 41.8871 34.0212 41.6837 35.3891 41.1705C36.7568 40.6573 37.9938 39.8473 39.0109 38.7987C40.0281 37.7501 40.8001 36.489 41.2713 35.1062C41.7426 33.7235 41.9014 32.2534 41.7364 30.8019C41.5713 29.3504 41.0865 27.9536 40.3168 26.7119C39.6331 25.6091 38.7387 24.6518 37.6848 23.8949ZM32.325 20.0069C34.0862 20.0671 35.8122 20.5169 37.3788 21.3242C38.9454 22.1314 40.3135 23.2758 41.3847 24.6752C42.4559 26.0745 43.2036 27.694 43.5739 29.4169C43.9442 31.1399 43.928 32.9235 43.5264 34.6394C43.0338 36.7412 41.9797 38.6698 40.4766 40.2194C38.9735 41.7689 37.0779 42.8811 34.992 43.4373C32.9061 43.9935 30.7083 43.9729 28.6333 43.3775C26.5582 42.7822 24.6838 41.6345 23.2101 40.057C21.6006 38.3344 20.5381 36.1732 20.1569 33.8468C19.7757 31.5203 20.0929 29.1331 21.0685 26.9869C22.044 24.8408 23.6341 23.0321 25.6376 21.7897C27.6411 20.5472 29.9688 19.9268 32.325 20.0069Z" fill="var(--fill-0, white)"/>
<path d="M29.0564 43.1407L29.0418 43.1371L29.0279 43.1342H29.0264L29.0198 43.1327L28.9891 43.1254L28.8626 43.0961C28.7508 43.0691 28.5848 43.0245 28.3772 42.9587C27.9604 42.8271 27.3755 42.6099 26.7051 42.2685C25.0939 41.4538 23.6952 40.2742 22.6204 38.8235L23.6293 38.4923L27.8559 37.1105C31.4851 35.9246 36.7791 34.1955 43.5178 31.9978C43.52 32.1879 43.5164 32.4372 43.4974 32.7326C43.4319 33.7148 43.2428 34.6849 42.9344 35.6198C42.1879 37.8833 40.5115 40.6242 36.7638 42.5112L36.7579 42.5142L36.7287 42.5273L36.6088 42.58C36.502 42.6246 36.3434 42.6896 36.1394 42.7627C35.7315 42.9104 35.1429 43.0961 34.4279 43.2467C32.9949 43.548 31.0662 43.7037 29.0564 43.1407Z" fill="var(--fill-0, white)"/>
<path d="M51.0209 25.9636H55.1547C55.8926 25.9636 56.5599 26.0869 57.1565 26.3336C57.7538 26.5728 58.2841 26.9534 58.702 27.4427C59.1363 27.9237 59.4673 28.534 59.6949 29.2734C59.9337 30.0016 60.0531 30.8528 60.0531 31.8272C60.0531 32.802 59.9337 33.6591 59.6949 34.3985C59.4673 35.1257 59.1363 35.7362 58.702 36.2299C58.2801 36.7105 57.7505 37.0845 57.1565 37.3215C56.5599 37.5681 55.8926 37.6914 55.1547 37.6914H51.0209V25.9636ZM55.1547 35.7255C55.9574 35.7255 56.592 35.4847 57.0585 35.0031C57.5362 34.5108 57.775 33.7602 57.775 32.7513V30.9038C57.775 29.8948 57.5362 29.1498 57.0585 28.6687C56.592 28.176 55.9574 27.9296 55.1547 27.9296H53.169V35.7255H55.1547ZM67.0258 36.2299H66.9446C66.8678 36.4544 66.764 36.6688 66.6354 36.8682C66.5159 37.0583 66.3585 37.2318 66.1631 37.3887C65.9611 37.5545 65.7293 37.6801 65.4802 37.7587C65.1859 37.854 64.8778 37.8994 64.5685 37.8932C63.6897 37.8932 63.0171 37.5964 62.5506 37.0027C62.0842 36.4086 61.851 35.5629 61.851 34.4657V28.921H63.9339V34.2471C63.9339 34.8515 64.0477 35.3163 64.2753 35.6414C64.5034 35.9558 64.867 36.1127 65.3661 36.1122C65.5723 36.1122 65.7729 36.0842 65.9679 36.0281C66.174 35.9716 66.3531 35.8875 66.5052 35.7759C66.6573 35.6526 66.7821 35.5069 66.8796 35.3387C66.977 35.1598 67.0258 34.9527 67.0258 34.7172V28.921H69.1095V37.6914H67.0258V36.2299ZM71.3532 37.6914V28.921H73.4362V30.3832H73.5173C73.6812 29.9265 73.9617 29.5207 74.3311 29.2061C74.7113 28.8815 75.2321 28.7192 75.8935 28.7192C76.7723 28.7192 77.4449 29.016 77.9113 29.6097C78.3778 30.2033 78.611 31.049 78.611 32.1466V37.6922H76.5281V32.366C76.5281 31.7382 76.4196 31.2678 76.2027 30.9549C75.9858 30.6406 75.6278 30.4836 75.1287 30.4841C74.9118 30.4841 74.7003 30.5177 74.4941 30.585C74.2992 30.6415 74.12 30.7312 73.9567 30.854C73.8013 30.9702 73.6735 31.1192 73.5824 31.2905C73.4849 31.4587 73.4362 31.6602 73.4362 31.8951V37.6922L71.3532 37.6914ZM84.1916 37.8932C83.5629 37.8932 82.9987 37.7867 82.4991 37.5737C82.021 37.3573 81.594 37.0424 81.246 36.6496C80.9096 36.246 80.6494 35.7644 80.4651 35.2049C80.2799 34.6332 80.1876 33.9947 80.188 33.2894C80.188 32.5948 80.2748 31.9675 80.4483 31.4075C80.6335 30.8475 80.894 30.3715 81.2299 29.9796C81.5631 29.5778 81.9871 29.261 82.4669 29.0555C82.9543 28.8313 83.5075 28.7192 84.1265 28.7192C84.7885 28.7192 85.3636 28.8369 85.852 29.0723C86.322 29.2942 86.7341 29.6221 87.0561 30.0301C87.371 30.4332 87.6042 30.9035 87.7558 31.4411C87.9186 31.9675 88 32.5332 88 33.138V33.8436H82.3529V34.0622C82.3529 34.7007 82.5264 35.2159 82.8734 35.6077C83.2209 35.9889 83.7364 36.1795 84.4197 36.1795C84.9398 36.1795 85.3629 36.0674 85.6889 35.8432C86.0253 35.619 86.3235 35.3333 86.5838 34.9863L87.7068 36.2804C87.3598 36.7844 86.8824 37.1818 86.2746 37.4728C85.678 37.7531 84.9837 37.8932 84.1916 37.8932ZM84.1595 30.332C83.6058 30.332 83.1664 30.5226 82.8413 30.9038C82.5157 31.2839 82.3529 31.7767 82.3529 32.3821V32.5166H85.8352V32.3653C85.8352 31.7609 85.6889 31.2735 85.3965 30.903C85.1143 30.5228 84.7019 30.332 84.1595 30.332Z" fill="var(--fill-0, white)"/>
<path d="M42.2106 31.6813C42.2106 37.3343 37.628 41.9169 31.975 41.9169C26.322 41.9169 21.7394 37.3343 21.7394 31.6813C21.7394 26.0284 26.322 21.4457 31.975 21.4457C37.628 21.4457 42.2106 26.0284 42.2106 31.6813Z" stroke="var(--stroke-0, white)" stroke-width="1.88358" mask="url(#path-1-inside-1_0_4)"/>
<path fill-rule="evenodd" clip-rule="evenodd" d="M37.6848 23.8949C36.0974 22.7556 34.208 22.1123 32.2551 22.0464C30.3023 21.9806 28.3738 22.4951 26.7133 23.5249C25.0528 24.5548 23.7349 26.0537 22.926 27.8324C22.1172 29.611 21.8538 31.5896 22.169 33.5179C22.4053 34.9596 22.9583 36.3311 23.7883 37.5334C24.6184 38.7357 25.7047 39.7389 26.9691 40.4708C28.2335 41.2028 29.6446 41.6452 31.1005 41.7661C32.5565 41.8871 34.0212 41.6837 35.3891 41.1705C36.7568 40.6573 37.9938 39.8473 39.0109 38.7987C40.0281 37.7501 40.8001 36.489 41.2713 35.1062C41.7426 33.7235 41.9014 32.2534 41.7364 30.8019C41.5713 29.3504 41.0865 27.9536 40.3168 26.7119C39.6331 25.6091 38.7387 24.6518 37.6848 23.8949ZM32.325 20.0069C34.0862 20.0671 35.8122 20.5169 37.3788 21.3242C38.9454 22.1314 40.3135 23.2758 41.3847 24.6752C42.4559 26.0745 43.2036 27.694 43.5739 29.4169C43.9442 31.1399 43.928 32.9235 43.5264 34.6394C43.0338 36.7412 41.9797 38.6698 40.4766 40.2194C38.9735 41.7689 37.0779 42.8811 34.992 43.4373C32.9061 43.9935 30.7083 43.9729 28.6333 43.3775C26.5582 42.7822 24.6838 41.6345 23.2101 40.057C21.6006 38.3344 20.5381 36.1732 20.1569 33.8468C19.7757 31.5203 20.0929 29.1331 21.0685 26.9869C22.044 24.8408 23.6341 23.0321 25.6376 21.7897C27.6411 20.5472 29.9688 19.9268 32.325 20.0069Z" stroke="var(--stroke-0, white)" stroke-width="1.88358" mask="url(#path-1-inside-1_0_4)"/>
<path d="M29.0564 43.1407L29.0418 43.1371L29.0279 43.1342H29.0264L29.0198 43.1327L28.9891 43.1254L28.8626 43.0961C28.7508 43.0691 28.5848 43.0245 28.3772 42.9587C27.9604 42.8271 27.3755 42.6099 26.7051 42.2685C25.0939 41.4538 23.6952 40.2742 22.6204 38.8235L23.6293 38.4923L27.8559 37.1105C31.4851 35.9246 36.7791 34.1955 43.5178 31.9978C43.52 32.1879 43.5164 32.4372 43.4974 32.7326C43.4319 33.7148 43.2428 34.6849 42.9344 35.6198C42.1879 37.8833 40.5115 40.6242 36.7638 42.5112L36.7579 42.5142L36.7287 42.5273L36.6088 42.58C36.502 42.6246 36.3434 42.6896 36.1394 42.7627C35.7315 42.9104 35.1429 43.0961 34.4279 43.2467C32.9949 43.548 31.0662 43.7037 29.0564 43.1407Z" stroke="var(--stroke-0, white)" stroke-width="1.88358" mask="url(#path-1-inside-1_0_4)"/>
<path d="M51.0209 25.9636H55.1547C55.8926 25.9636 56.5599 26.0869 57.1565 26.3336C57.7538 26.5728 58.2841 26.9534 58.702 27.4427C59.1363 27.9237 59.4673 28.534 59.6949 29.2734C59.9337 30.0016 60.0531 30.8528 60.0531 31.8272C60.0531 32.802 59.9337 33.6591 59.6949 34.3985C59.4673 35.1257 59.1363 35.7362 58.702 36.2299C58.2801 36.7105 57.7505 37.0845 57.1565 37.3215C56.5599 37.5681 55.8926 37.6914 55.1547 37.6914H51.0209V25.9636ZM55.1547 35.7255C55.9574 35.7255 56.592 35.4847 57.0585 35.0031C57.5362 34.5108 57.775 33.7602 57.775 32.7513V30.9038C57.775 29.8948 57.5362 29.1498 57.0585 28.6687C56.592 28.176 55.9574 27.9296 55.1547 27.9296H53.169V35.7255H55.1547ZM67.0258 36.2299H66.9446C66.8678 36.4544 66.764 36.6688 66.6354 36.8682C66.5159 37.0583 66.3585 37.2318 66.1631 37.3887C65.9611 37.5545 65.7293 37.6801 65.4802 37.7587C65.1859 37.854 64.8778 37.8994 64.5685 37.8932C63.6897 37.8932 63.0171 37.5964 62.5506 37.0027C62.0842 36.4086 61.851 35.5629 61.851 34.4657V28.921H63.9339V34.2471C63.9339 34.8515 64.0477 35.3163 64.2753 35.6414C64.5034 35.9558 64.867 36.1127 65.3661 36.1122C65.5723 36.1122 65.7729 36.0842 65.9679 36.0281C66.174 35.9716 66.3531 35.8875 66.5052 35.7759C66.6573 35.6526 66.7821 35.5069 66.8796 35.3387C66.977 35.1598 67.0258 34.9527 67.0258 34.7172V28.921H69.1095V37.6914H67.0258V36.2299ZM71.3532 37.6914V28.921H73.4362V30.3832H73.5173C73.6812 29.9265 73.9617 29.5207 74.3311 29.2061C74.7113 28.8815 75.2321 28.7192 75.8935 28.7192C76.7723 28.7192 77.4449 29.016 77.9113 29.6097C78.3778 30.2033 78.611 31.049 78.611 32.1466V37.6922H76.5281V32.366C76.5281 31.7382 76.4196 31.2678 76.2027 30.9549C75.9858 30.6406 75.6278 30.4836 75.1287 30.4841C74.9118 30.4841 74.7003 30.5177 74.4941 30.585C74.2992 30.6415 74.12 30.7312 73.9567 30.854C73.8013 30.9702 73.6735 31.1192 73.5824 31.2905C73.4849 31.4587 73.4362 31.6602 73.4362 31.8951V37.6922L71.3532 37.6914ZM84.1916 37.8932C83.5629 37.8932 82.9987 37.7867 82.4991 37.5737C82.021 37.3573 81.594 37.0424 81.246 36.6496C80.9096 36.246 80.6494 35.7644 80.4651 35.2049C80.2799 34.6332 80.1876 33.9947 80.188 33.2894C80.188 32.5948 80.2748 31.9675 80.4483 31.4075C80.6335 30.8475 80.894 30.3715 81.2299 29.9796C81.5631 29.5778 81.9871 29.261 82.4669 29.0555C82.9543 28.8313 83.5075 28.7192 84.1265 28.7192C84.7885 28.7192 85.3636 28.8369 85.852 29.0723C86.322 29.2942 86.7341 29.6221 87.0561 30.0301C87.371 30.4332 87.6042 30.9035 87.7558 31.4411C87.9186 31.9675 88 32.5332 88 33.138V33.8436H82.3529V34.0622C82.3529 34.7007 82.5264 35.2159 82.8734 35.6077C83.2209 35.9889 83.7364 36.1795 84.4197 36.1795C84.9398 36.1795 85.3629 36.0674 85.6889 35.8432C86.0253 35.619 86.3235 35.3333 86.5838 34.9863L87.7068 36.2804C87.3598 36.7844 86.8824 37.1818 86.2746 37.4728C85.678 37.7531 84.9837 37.8932 84.1916 37.8932ZM84.1595 30.332C83.6058 30.332 83.1664 30.5226 82.8413 30.9038C82.5157 31.2839 82.3529 31.7767 82.3529 32.3821V32.5166H85.8352V32.3653C85.8352 31.7609 85.6889 31.2735 85.3965 30.903C85.1143 30.5228 84.7019 30.332 84.1595 30.332Z" stroke="var(--stroke-0, white)" stroke-width="1.88358" mask="url(#path-1-inside-1_0_4)"/>
</g>
</g>
</svg>
