<svg preserveAspectRatio="none" width="100%" height="100%" overflow="visible" style="display: block;" viewBox="0 0 136 49" fill="none" xmlns="http://www.w3.org/2000/svg">
<g id="co">
<g id="Vector">
<mask id="path-1-inside-1_0_12" fill="white">
<path d="M104.53 24.5072C104.53 25.826 104.506 27.1436 104.544 28.4613C104.555 28.8634 104.393 28.9511 103.867 28.9465C101.43 28.9254 98.9913 28.9254 96.5544 28.9465C96.0359 28.9511 95.8689 28.8728 95.8721 28.4648C95.9007 25.8073 95.8991 23.1498 95.8736 20.4912C95.8705 20.096 96.0152 19.9955 96.5497 20.0002C98.9865 20.0224 101.425 20.0212 103.862 20.0002C104.388 19.9955 104.554 20.0844 104.544 20.4877C104.508 21.8275 104.53 23.1674 104.53 24.5072Z"/>
<path d="M115.129 24.0031C114.852 24.4556 114.577 24.9092 114.298 25.3617C114.228 25.4751 114.198 25.6154 113.98 25.6317C113.703 25.6539 113.656 25.4786 113.578 25.3546C113.303 24.9209 113.048 24.4801 112.625 24.0534C112.625 24.4614 112.623 24.8683 112.625 25.2763C112.625 25.4505 112.639 25.6212 112.3 25.6387C111.876 25.661 111.938 25.4435 111.938 25.2576C111.936 24.5783 111.928 23.8991 111.943 23.2198C111.946 23.0561 111.804 22.8141 112.246 22.7989C112.56 22.7884 112.786 22.8199 112.919 23.0771C113.217 23.6477 113.562 24.2042 113.939 24.8566C114.3 24.2358 114.631 23.7108 114.908 23.1707C115.052 22.8889 115.246 22.7615 115.668 22.7977C116.169 22.841 115.953 23.1134 115.959 23.2829C115.986 23.94 115.973 24.5982 115.967 25.2564C115.965 25.4341 116.056 25.6458 115.617 25.6469C115.173 25.6469 115.275 25.4318 115.272 25.2564C115.264 24.8531 115.269 24.4497 115.269 24.0475C115.222 24.0335 115.175 24.0183 115.129 24.0031Z"/>
<path d="M109.361 24.4082C109.361 24.2177 109.335 24.0236 109.366 23.8354C109.431 23.4332 109.331 23.1725 108.656 23.2613C108.413 23.2929 108.176 23.2555 108.196 23.0076C108.217 22.7446 108.496 22.7972 108.715 22.796C109.381 22.7913 110.048 22.7902 110.714 22.7972C110.953 22.7995 111.278 22.727 111.255 23.0474C111.238 23.3151 110.959 23.2847 110.749 23.2601C110.134 23.1877 110.027 23.4075 110.058 23.7968C110.097 24.2831 110.069 24.773 110.065 25.2617C110.064 25.4476 110.129 25.6546 109.701 25.6429C109.275 25.6312 109.367 25.4149 109.362 25.2372C109.354 24.9601 109.361 24.6842 109.361 24.4082Z"/>
<path d="M43.7195 27.0698C43.8149 25.9311 43.3807 25.0086 41.6755 24.583C41.9968 24.431 42.2354 24.3282 42.4597 24.2089C43.6145 23.5928 43.9374 22.9462 43.6034 21.9361C43.1993 20.7155 41.8966 20.0175 39.8829 20.0129C33.4711 20 27.0577 20.0105 20.6442 20C20.1798 20 19.9969 20.0631 20 20.4431C20.0223 23.1228 20.0207 25.8013 20.0016 28.4798C19.9985 28.8317 20.1114 28.9474 20.6156 28.9428C22.9363 28.9229 25.2587 28.9241 27.5794 28.9416C28.0661 28.9451 28.2236 28.8527 28.2093 28.4868C28.1743 27.5515 28.2029 26.6162 28.1934 25.6809C28.1918 25.4435 28.2077 25.2775 28.6419 25.2822C30.3821 25.2997 32.1254 25.2682 33.864 25.3091C34.9408 25.3348 35.4705 25.7721 35.5166 26.5811C35.5532 27.2183 35.5612 27.8578 35.5198 28.4938C35.4959 28.8715 35.6868 28.9474 36.1592 28.9428C37.8421 28.9241 39.525 28.9393 41.2079 28.9334C42.0143 28.9311 43.1055 29.1368 43.5541 28.8364C44.079 28.4868 43.6686 27.6778 43.7195 27.0698ZM34.392 23.4607C32.4562 23.4911 30.5189 23.4724 28.5815 23.484C28.2681 23.4864 28.2188 23.3893 28.1902 23.1836C27.9914 21.7935 27.9834 21.7946 29.8683 21.7946C30.4473 21.7946 31.0247 21.7946 31.6037 21.7946C32.5008 21.7946 33.3963 21.7923 34.2934 21.7958C34.9869 21.7981 35.4784 21.9852 35.5262 22.5511C35.5675 23.0795 35.1651 23.449 34.392 23.4607Z"/>
<path d="M94.7545 28.4026C94.6924 27.9818 94.7179 27.5527 94.7465 27.1283C94.8245 25.9743 94.4522 25.0121 92.701 24.5842C93.0445 24.4182 93.3038 24.2966 93.5567 24.168C94.6193 23.6314 94.9199 22.8925 94.6463 21.9934C94.2709 20.7623 92.973 20.0199 90.9847 20.0152C84.5426 19.9977 78.1006 20.0105 71.6586 20C71.1845 19.9988 71.0191 20.0748 71.0223 20.4478C71.0446 23.1263 71.043 25.806 71.0223 28.4845C71.0191 28.8434 71.148 28.9463 71.6426 28.9416C73.9634 28.9229 76.2857 28.9229 78.6064 28.9416C79.1011 28.9451 79.2427 28.8411 79.2299 28.481C79.1965 27.5679 79.2188 26.6524 79.2188 25.7382C79.2188 25.5043 79.1504 25.2728 79.6721 25.2799C81.4123 25.3009 83.1556 25.267 84.8942 25.3079C85.9694 25.3336 86.4943 25.7732 86.542 26.5835C86.5755 27.1563 86.5914 27.7327 86.5452 28.3044C86.5071 28.7698 86.6327 28.9615 87.366 28.9475C89.5706 28.9054 91.7768 28.9171 93.9814 28.9428C94.562 28.9498 94.8245 28.875 94.7545 28.4026ZM85.1821 23.4747C84.2865 23.4899 83.3894 23.4782 82.4939 23.4782C81.5682 23.4782 80.6424 23.4689 79.7183 23.4829C79.362 23.4887 79.2331 23.4244 79.2077 23.138C79.09 21.7911 79.0741 21.7923 80.8635 21.7923C82.3094 21.7923 83.7553 21.7865 85.2012 21.7946C86.1428 21.8005 86.5436 22.0472 86.5516 22.592C86.5564 23.1544 86.1046 23.4595 85.1821 23.4747Z"/>
<path d="M69.7852 28.7452C67.3484 25.9346 64.902 23.1287 62.4779 20.3134C62.2313 20.0258 61.9259 20.0024 61.5315 20.0035C58.689 20.0106 55.8465 20.0152 53.0057 20C52.519 19.9977 52.2358 20.0971 51.975 20.4116C49.7242 23.131 47.4449 25.8376 45.183 28.5523C45.0955 28.6564 44.8569 28.7558 45.0414 28.9346C46.4603 28.9346 47.887 28.8762 49.3011 28.9533C50.3859 29.013 51.1383 28.8236 51.5248 28.0472C51.7316 27.6322 52.1372 27.5235 52.7353 27.534C54.5327 27.5644 56.3365 27.6065 58.1275 27.5235C59.3157 27.4674 60.1285 27.6801 60.5771 28.5114C60.7377 28.8095 61.0113 28.9498 61.506 28.9463C64.261 28.9253 67.0159 28.9358 69.8202 28.9358C69.7995 28.8224 69.8107 28.7745 69.7852 28.7452ZM53.3302 25.8808C54.1637 24.8859 54.9399 23.9599 55.7622 22.9778C56.6212 23.9681 57.4197 24.8871 58.2818 25.8808C56.5862 25.8808 55.0258 25.8808 53.3302 25.8808Z"/>
</mask>
<path d="M104.53 24.5072C104.53 25.826 104.506 27.1436 104.544 28.4613C104.555 28.8634 104.393 28.9511 103.867 28.9465C101.43 28.9254 98.9913 28.9254 96.5544 28.9465C96.0359 28.9511 95.8689 28.8728 95.8721 28.4648C95.9007 25.8073 95.8991 23.1498 95.8736 20.4912C95.8705 20.096 96.0152 19.9955 96.5497 20.0002C98.9865 20.0224 101.425 20.0212 103.862 20.0002C104.388 19.9955 104.554 20.0844 104.544 20.4877C104.508 21.8275 104.53 23.1674 104.53 24.5072Z" fill="var(--fill-0, white)"/>
<path d="M115.129 24.0031C114.852 24.4556 114.577 24.9092 114.298 25.3617C114.228 25.4751 114.198 25.6154 113.98 25.6317C113.703 25.6539 113.656 25.4786 113.578 25.3546C113.303 24.9209 113.048 24.4801 112.625 24.0534C112.625 24.4614 112.623 24.8683 112.625 25.2763C112.625 25.4505 112.639 25.6212 112.3 25.6387C111.876 25.661 111.938 25.4435 111.938 25.2576C111.936 24.5783 111.928 23.8991 111.943 23.2198C111.946 23.0561 111.804 22.8141 112.246 22.7989C112.56 22.7884 112.786 22.8199 112.919 23.0771C113.217 23.6477 113.562 24.2042 113.939 24.8566C114.3 24.2358 114.631 23.7108 114.908 23.1707C115.052 22.8889 115.246 22.7615 115.668 22.7977C116.169 22.841 115.953 23.1134 115.959 23.2829C115.986 23.94 115.973 24.5982 115.967 25.2564C115.965 25.4341 116.056 25.6458 115.617 25.6469C115.173 25.6469 115.275 25.4318 115.272 25.2564C115.264 24.8531 115.269 24.4497 115.269 24.0475C115.222 24.0335 115.175 24.0183 115.129 24.0031Z" fill="var(--fill-0, white)"/>
<path d="M109.361 24.4082C109.361 24.2177 109.335 24.0236 109.366 23.8354C109.431 23.4332 109.331 23.1725 108.656 23.2613C108.413 23.2929 108.176 23.2555 108.196 23.0076C108.217 22.7446 108.496 22.7972 108.715 22.796C109.381 22.7913 110.048 22.7902 110.714 22.7972C110.953 22.7995 111.278 22.727 111.255 23.0474C111.238 23.3151 110.959 23.2847 110.749 23.2601C110.134 23.1877 110.027 23.4075 110.058 23.7968C110.097 24.2831 110.069 24.773 110.065 25.2617C110.064 25.4476 110.129 25.6546 109.701 25.6429C109.275 25.6312 109.367 25.4149 109.362 25.2372C109.354 24.9601 109.361 24.6842 109.361 24.4082Z" fill="var(--fill-0, white)"/>
<path d="M43.7195 27.0698C43.8149 25.9311 43.3807 25.0086 41.6755 24.583C41.9968 24.431 42.2354 24.3282 42.4597 24.2089C43.6145 23.5928 43.9374 22.9462 43.6034 21.9361C43.1993 20.7155 41.8966 20.0175 39.8829 20.0129C33.4711 20 27.0577 20.0105 20.6442 20C20.1798 20 19.9969 20.0631 20 20.4431C20.0223 23.1228 20.0207 25.8013 20.0016 28.4798C19.9985 28.8317 20.1114 28.9474 20.6156 28.9428C22.9363 28.9229 25.2587 28.9241 27.5794 28.9416C28.0661 28.9451 28.2236 28.8527 28.2093 28.4868C28.1743 27.5515 28.2029 26.6162 28.1934 25.6809C28.1918 25.4435 28.2077 25.2775 28.6419 25.2822C30.3821 25.2997 32.1254 25.2682 33.864 25.3091C34.9408 25.3348 35.4705 25.7721 35.5166 26.5811C35.5532 27.2183 35.5612 27.8578 35.5198 28.4938C35.4959 28.8715 35.6868 28.9474 36.1592 28.9428C37.8421 28.9241 39.525 28.9393 41.2079 28.9334C42.0143 28.9311 43.1055 29.1368 43.5541 28.8364C44.079 28.4868 43.6686 27.6778 43.7195 27.0698ZM34.392 23.4607C32.4562 23.4911 30.5189 23.4724 28.5815 23.484C28.2681 23.4864 28.2188 23.3893 28.1902 23.1836C27.9914 21.7935 27.9834 21.7946 29.8683 21.7946C30.4473 21.7946 31.0247 21.7946 31.6037 21.7946C32.5008 21.7946 33.3963 21.7923 34.2934 21.7958C34.9869 21.7981 35.4784 21.9852 35.5262 22.5511C35.5675 23.0795 35.1651 23.449 34.392 23.4607Z" fill="var(--fill-0, white)"/>
<path d="M94.7545 28.4026C94.6924 27.9818 94.7179 27.5527 94.7465 27.1283C94.8245 25.9743 94.4522 25.0121 92.701 24.5842C93.0445 24.4182 93.3038 24.2966 93.5567 24.168C94.6193 23.6314 94.9199 22.8925 94.6463 21.9934C94.2709 20.7623 92.973 20.0199 90.9847 20.0152C84.5426 19.9977 78.1006 20.0105 71.6586 20C71.1845 19.9988 71.0191 20.0748 71.0223 20.4478C71.0446 23.1263 71.043 25.806 71.0223 28.4845C71.0191 28.8434 71.148 28.9463 71.6426 28.9416C73.9634 28.9229 76.2857 28.9229 78.6064 28.9416C79.1011 28.9451 79.2427 28.8411 79.2299 28.481C79.1965 27.5679 79.2188 26.6524 79.2188 25.7382C79.2188 25.5043 79.1504 25.2728 79.6721 25.2799C81.4123 25.3009 83.1556 25.267 84.8942 25.3079C85.9694 25.3336 86.4943 25.7732 86.542 26.5835C86.5755 27.1563 86.5914 27.7327 86.5452 28.3044C86.5071 28.7698 86.6327 28.9615 87.366 28.9475C89.5706 28.9054 91.7768 28.9171 93.9814 28.9428C94.562 28.9498 94.8245 28.875 94.7545 28.4026ZM85.1821 23.4747C84.2865 23.4899 83.3894 23.4782 82.4939 23.4782C81.5682 23.4782 80.6424 23.4689 79.7183 23.4829C79.362 23.4887 79.2331 23.4244 79.2077 23.138C79.09 21.7911 79.0741 21.7923 80.8635 21.7923C82.3094 21.7923 83.7553 21.7865 85.2012 21.7946C86.1428 21.8005 86.5436 22.0472 86.5516 22.592C86.5564 23.1544 86.1046 23.4595 85.1821 23.4747Z" fill="var(--fill-0, white)"/>
<path d="M69.7852 28.7452C67.3484 25.9346 64.902 23.1287 62.4779 20.3134C62.2313 20.0258 61.9259 20.0024 61.5315 20.0035C58.689 20.0106 55.8465 20.0152 53.0057 20C52.519 19.9977 52.2358 20.0971 51.975 20.4116C49.7242 23.131 47.4449 25.8376 45.183 28.5523C45.0955 28.6564 44.8569 28.7558 45.0414 28.9346C46.4603 28.9346 47.887 28.8762 49.3011 28.9533C50.3859 29.013 51.1383 28.8236 51.5248 28.0472C51.7316 27.6322 52.1372 27.5235 52.7353 27.534C54.5327 27.5644 56.3365 27.6065 58.1275 27.5235C59.3157 27.4674 60.1285 27.6801 60.5771 28.5114C60.7377 28.8095 61.0113 28.9498 61.506 28.9463C64.261 28.9253 67.0159 28.9358 69.8202 28.9358C69.7995 28.8224 69.8107 28.7745 69.7852 28.7452ZM53.3302 25.8808C54.1637 24.8859 54.9399 23.9599 55.7622 22.9778C56.6212 23.9681 57.4197 24.8871 58.2818 25.8808C56.5862 25.8808 55.0258 25.8808 53.3302 25.8808Z" fill="var(--fill-0, white)"/>
<path d="M104.53 24.5072C104.53 25.826 104.506 27.1436 104.544 28.4613C104.555 28.8634 104.393 28.9511 103.867 28.9465C101.43 28.9254 98.9913 28.9254 96.5544 28.9465C96.0359 28.9511 95.8689 28.8728 95.8721 28.4648C95.9007 25.8073 95.8991 23.1498 95.8736 20.4912C95.8705 20.096 96.0152 19.9955 96.5497 20.0002C98.9865 20.0224 101.425 20.0212 103.862 20.0002C104.388 19.9955 104.554 20.0844 104.544 20.4877C104.508 21.8275 104.53 23.1674 104.53 24.5072Z" stroke="var(--stroke-0, white)" stroke-width="1.88358" mask="url(#path-1-inside-1_0_12)"/>
<path d="M115.129 24.0031C114.852 24.4556 114.577 24.9092 114.298 25.3617C114.228 25.4751 114.198 25.6154 113.98 25.6317C113.703 25.6539 113.656 25.4786 113.578 25.3546C113.303 24.9209 113.048 24.4801 112.625 24.0534C112.625 24.4614 112.623 24.8683 112.625 25.2763C112.625 25.4505 112.639 25.6212 112.3 25.6387C111.876 25.661 111.938 25.4435 111.938 25.2576C111.936 24.5783 111.928 23.8991 111.943 23.2198C111.946 23.0561 111.804 22.8141 112.246 22.7989C112.56 22.7884 112.786 22.8199 112.919 23.0771C113.217 23.6477 113.562 24.2042 113.939 24.8566C114.3 24.2358 114.631 23.7108 114.908 23.1707C115.052 22.8889 115.246 22.7615 115.668 22.7977C116.169 22.841 115.953 23.1134 115.959 23.2829C115.986 23.94 115.973 24.5982 115.967 25.2564C115.965 25.4341 116.056 25.6458 115.617 25.6469C115.173 25.6469 115.275 25.4318 115.272 25.2564C115.264 24.8531 115.269 24.4497 115.269 24.0475C115.222 24.0335 115.175 24.0183 115.129 24.0031Z" stroke="var(--stroke-0, white)" stroke-width="1.88358" mask="url(#path-1-inside-1_0_12)"/>
<path d="M109.361 24.4082C109.361 24.2177 109.335 24.0236 109.366 23.8354C109.431 23.4332 109.331 23.1725 108.656 23.2613C108.413 23.2929 108.176 23.2555 108.196 23.0076C108.217 22.7446 108.496 22.7972 108.715 22.796C109.381 22.7913 110.048 22.7902 110.714 22.7972C110.953 22.7995 111.278 22.727 111.255 23.0474C111.238 23.3151 110.959 23.2847 110.749 23.2601C110.134 23.1877 110.027 23.4075 110.058 23.7968C110.097 24.2831 110.069 24.773 110.065 25.2617C110.064 25.4476 110.129 25.6546 109.701 25.6429C109.275 25.6312 109.367 25.4149 109.362 25.2372C109.354 24.9601 109.361 24.6842 109.361 24.4082Z" stroke="var(--stroke-0, white)" stroke-width="1.88358" mask="url(#path-1-inside-1_0_12)"/>
<path d="M43.7195 27.0698C43.8149 25.9311 43.3807 25.0086 41.6755 24.583C41.9968 24.431 42.2354 24.3282 42.4597 24.2089C43.6145 23.5928 43.9374 22.9462 43.6034 21.9361C43.1993 20.7155 41.8966 20.0175 39.8829 20.0129C33.4711 20 27.0577 20.0105 20.6442 20C20.1798 20 19.9969 20.0631 20 20.4431C20.0223 23.1228 20.0207 25.8013 20.0016 28.4798C19.9985 28.8317 20.1114 28.9474 20.6156 28.9428C22.9363 28.9229 25.2587 28.9241 27.5794 28.9416C28.0661 28.9451 28.2236 28.8527 28.2093 28.4868C28.1743 27.5515 28.2029 26.6162 28.1934 25.6809C28.1918 25.4435 28.2077 25.2775 28.6419 25.2822C30.3821 25.2997 32.1254 25.2682 33.864 25.3091C34.9408 25.3348 35.4705 25.7721 35.5166 26.5811C35.5532 27.2183 35.5612 27.8578 35.5198 28.4938C35.4959 28.8715 35.6868 28.9474 36.1592 28.9428C37.8421 28.9241 39.525 28.9393 41.2079 28.9334C42.0143 28.9311 43.1055 29.1368 43.5541 28.8364C44.079 28.4868 43.6686 27.6778 43.7195 27.0698ZM34.392 23.4607C32.4562 23.4911 30.5189 23.4724 28.5815 23.484C28.2681 23.4864 28.2188 23.3893 28.1902 23.1836C27.9914 21.7935 27.9834 21.7946 29.8683 21.7946C30.4473 21.7946 31.0247 21.7946 31.6037 21.7946C32.5008 21.7946 33.3963 21.7923 34.2934 21.7958C34.9869 21.7981 35.4784 21.9852 35.5262 22.5511C35.5675 23.0795 35.1651 23.449 34.392 23.4607Z" stroke="var(--stroke-0, white)" stroke-width="1.88358" mask="url(#path-1-inside-1_0_12)"/>
<path d="M94.7545 28.4026C94.6924 27.9818 94.7179 27.5527 94.7465 27.1283C94.8245 25.9743 94.4522 25.0121 92.701 24.5842C93.0445 24.4182 93.3038 24.2966 93.5567 24.168C94.6193 23.6314 94.9199 22.8925 94.6463 21.9934C94.2709 20.7623 92.973 20.0199 90.9847 20.0152C84.5426 19.9977 78.1006 20.0105 71.6586 20C71.1845 19.9988 71.0191 20.0748 71.0223 20.4478C71.0446 23.1263 71.043 25.806 71.0223 28.4845C71.0191 28.8434 71.148 28.9463 71.6426 28.9416C73.9634 28.9229 76.2857 28.9229 78.6064 28.9416C79.1011 28.9451 79.2427 28.8411 79.2299 28.481C79.1965 27.5679 79.2188 26.6524 79.2188 25.7382C79.2188 25.5043 79.1504 25.2728 79.6721 25.2799C81.4123 25.3009 83.1556 25.267 84.8942 25.3079C85.9694 25.3336 86.4943 25.7732 86.542 26.5835C86.5755 27.1563 86.5914 27.7327 86.5452 28.3044C86.5071 28.7698 86.6327 28.9615 87.366 28.9475C89.5706 28.9054 91.7768 28.9171 93.9814 28.9428C94.562 28.9498 94.8245 28.875 94.7545 28.4026ZM85.1821 23.4747C84.2865 23.4899 83.3894 23.4782 82.4939 23.4782C81.5682 23.4782 80.6424 23.4689 79.7183 23.4829C79.362 23.4887 79.2331 23.4244 79.2077 23.138C79.09 21.7911 79.0741 21.7923 80.8635 21.7923C82.3094 21.7923 83.7553 21.7865 85.2012 21.7946C86.1428 21.8005 86.5436 22.0472 86.5516 22.592C86.5564 23.1544 86.1046 23.4595 85.1821 23.4747Z" stroke="var(--stroke-0, white)" stroke-width="1.88358" mask="url(#path-1-inside-1_0_12)"/>
<path d="M69.7852 28.7452C67.3484 25.9346 64.902 23.1287 62.4779 20.3134C62.2313 20.0258 61.9259 20.0024 61.5315 20.0035C58.689 20.0106 55.8465 20.0152 53.0057 20C52.519 19.9977 52.2358 20.0971 51.975 20.4116C49.7242 23.131 47.4449 25.8376 45.183 28.5523C45.0955 28.6564 44.8569 28.7558 45.0414 28.9346C46.4603 28.9346 47.887 28.8762 49.3011 28.9533C50.3859 29.013 51.1383 28.8236 51.5248 28.0472C51.7316 27.6322 52.1372 27.5235 52.7353 27.534C54.5327 27.5644 56.3365 27.6065 58.1275 27.5235C59.3157 27.4674 60.1285 27.6801 60.5771 28.5114C60.7377 28.8095 61.0113 28.9498 61.506 28.9463C64.261 28.9253 67.0159 28.9358 69.8202 28.9358C69.7995 28.8224 69.8107 28.7745 69.7852 28.7452ZM53.3302 25.8808C54.1637 24.8859 54.9399 23.9599 55.7622 22.9778C56.6212 23.9681 57.4197 24.8871 58.2818 25.8808C56.5862 25.8808 55.0258 25.8808 53.3302 25.8808Z" stroke="var(--stroke-0, white)" stroke-width="1.88358" mask="url(#path-1-inside-1_0_12)"/>
</g>
</g>
</svg>
