<svg preserveAspectRatio="none" width="100%" height="100%" overflow="visible" style="display: block;" viewBox="0 0 104 54" fill="none" xmlns="http://www.w3.org/2000/svg">
<g id="co">
<g id="Vector">
<path d="M34.58 25.1089V26.5904H20V25.1089H34.58ZM30.4473 20H32.9759V29.0101C32.9759 29.9977 32.7403 30.8664 32.269 31.6161C31.7977 32.3659 31.1384 32.9518 30.291 33.3737C29.4436 33.7913 28.4535 34 27.3206 34C26.1877 34 25.1976 33.7913 24.3502 33.3737C23.5028 32.9518 22.8435 32.3659 22.3722 31.6161C21.9055 30.8664 21.6721 29.9977 21.6721 29.0101V20H24.1939V28.8013C24.1939 29.376 24.3208 29.8878 24.5745 30.3367C24.8328 30.7856 25.1953 31.138 25.6621 31.3939C26.1334 31.6453 26.6862 31.7711 27.3206 31.7711C27.9595 31.7711 28.5124 31.6453 28.9791 31.3939C29.4504 31.138 29.8129 30.7856 30.0667 30.3367C30.3204 29.8878 30.4473 29.376 30.4473 28.8013V20Z" fill="var(--fill-0, white)"/>
<path d="M38.6127 27.7315V33.7921H36.1521V23.4487H38.504V25.2062H38.6263C38.8665 24.6271 39.2494 24.167 39.7751 23.8258C40.3052 23.4846 40.96 23.314 41.7395 23.314C42.4599 23.314 43.0876 23.4666 43.6223 23.7719C44.1615 24.0772 44.5784 24.5194 44.873 25.0985C45.1721 25.6776 45.3193 26.3802 45.3148 27.2062V33.7921H42.8542V27.5834C42.8542 26.892 42.6729 26.351 42.3104 25.9604C41.9524 25.5699 41.4562 25.3746 40.8218 25.3746C40.3913 25.3746 40.0084 25.4689 39.6731 25.6574C39.3423 25.8415 39.0817 26.1086 38.8914 26.4588C38.7056 26.8089 38.6127 27.2332 38.6127 27.7315Z" fill="var(--fill-0, white)"/>
<path d="M50.0758 20V33.7913H47.6152V20H50.0758Z" fill="var(--fill-0, white)"/>
<path d="M56.9612 33.9941C55.9417 33.9941 55.0579 33.7719 54.3102 33.3274C53.5625 32.883 52.9825 32.2612 52.5701 31.4621C52.1623 30.663 51.9584 29.7292 51.9584 28.6608C51.9584 27.5923 52.1623 26.6563 52.5701 25.8527C52.9825 25.0491 53.5625 24.4251 54.3102 23.9807C55.0579 23.5362 55.9417 23.314 56.9612 23.314C57.9808 23.314 58.8642 23.5362 59.6119 23.9807C60.3596 24.4251 60.9374 25.0491 61.3454 25.8527C61.7576 26.6563 61.9638 27.5923 61.9638 28.6608C61.9638 29.7292 61.7576 30.663 61.3454 31.4621C60.9374 32.2612 60.3596 32.883 59.6119 33.3274C58.8642 33.7719 57.9808 33.9941 56.9612 33.9941ZM56.9747 32.0413C57.5277 32.0413 57.9896 31.8909 58.3614 31.5901C58.7331 31.2848 59.0092 30.8763 59.1904 30.3645C59.3763 29.8527 59.4694 29.2826 59.4694 28.654C59.4694 28.0211 59.3763 27.4487 59.1904 26.9369C59.0092 26.4206 58.7331 26.0098 58.3614 25.7046C57.9896 25.3993 57.5277 25.2466 56.9747 25.2466C56.4083 25.2466 55.937 25.3993 55.5611 25.7046C55.1893 26.0098 54.9107 26.4206 54.7248 26.9369C54.5436 27.4487 54.453 28.0211 54.453 28.654C54.453 29.2826 54.5436 29.8527 54.7248 30.3645C54.9107 30.8763 55.1893 31.2848 55.5611 31.5901C55.937 31.8909 56.4083 32.0413 56.9747 32.0413Z" fill="var(--fill-0, white)"/>
<path d="M68.4046 33.9941C67.3623 33.9941 66.4672 33.7674 65.7195 33.314C64.9764 32.8605 64.4032 32.2343 63.9998 31.4352C63.6011 30.6316 63.4017 29.7068 63.4017 28.6608C63.4017 27.6103 63.6057 26.6832 64.0133 25.8796C64.4213 25.0715 64.9966 24.443 65.7401 23.9941C66.4878 23.5407 67.3712 23.314 68.3908 23.314C69.2383 23.314 69.9882 23.4689 70.6406 23.7786C71.2977 24.0839 71.8212 24.5171 72.211 25.0783C72.6005 25.635 72.8226 26.2859 72.877 27.0312H70.5251C70.4299 26.5328 70.2035 26.1176 69.8453 25.7854C69.4921 25.4487 69.0184 25.2803 68.4249 25.2803C67.9217 25.2803 67.48 25.415 67.0994 25.6844C66.7188 25.9492 66.422 26.3308 66.2088 26.8291C66.0006 27.3274 65.8964 27.9245 65.8964 28.6204C65.8964 29.3252 66.0006 29.9313 66.2088 30.4385C66.4174 30.9414 66.7095 31.3297 67.0859 31.6036C67.4665 31.8729 67.9128 32.0076 68.4249 32.0076C68.7874 32.0076 69.1115 31.9403 69.3968 31.8056C69.6868 31.6664 69.9292 31.4666 70.1243 31.2062C70.319 30.9458 70.4526 30.6294 70.5251 30.2568H72.877C72.818 30.9885 72.6005 31.6372 72.2245 32.2029C71.8485 32.764 71.3364 33.204 70.6882 33.5227C70.0404 33.837 69.2792 33.9941 68.4046 33.9941Z" fill="var(--fill-0, white)"/>
<path d="M76.7473 30.5455L76.7405 27.6027H77.135L80.887 23.4478H83.7623L79.1467 28.5387H78.6371L76.7473 30.5455ZM74.5042 33.7913V20H76.9647V33.7913H74.5042ZM81.0568 33.7913L77.6581 29.0842L79.3166 27.367L84 33.7913H81.0568Z" fill="var(--fill-0, white)"/>
</g>
</g>
</svg>
