<svg preserveAspectRatio="none" width="100%" height="100%" overflow="visible" style="display: block;" viewBox="0 0 105 58" fill="none" xmlns="http://www.w3.org/2000/svg">
<g id="co">
<g id="Vector">
<mask id="path-1-inside-1_0_10" fill="white">
<path fill-rule="evenodd" clip-rule="evenodd" d="M36.4953 22.3555L34.1827 23.6606L23.0155 29.9608C22.9777 29.6418 22.9587 29.3204 22.9586 28.9987C22.9601 27.715 23.2644 26.4539 23.8413 25.3405C24.4182 24.2271 25.2477 23.3 26.2477 22.6509C27.2476 22.0019 28.3833 21.6535 29.5422 21.6402C30.7011 21.6269 31.8431 21.9491 32.855 22.5751L34.1786 21.8281L34.3761 21.7165C33.1209 20.7074 31.6313 20.1172 30.0831 20.0157C28.5349 19.9142 26.9927 20.3056 25.6389 21.1437C24.285 21.9817 23.176 23.2314 22.4427 24.7451C21.7095 26.2589 21.3826 27.9735 21.5008 29.6863C21.5227 30.0084 21.4582 30.3304 21.3154 30.6119C21.1725 30.8934 20.9577 31.1219 20.698 31.2686L20 31.6628V33.5016L22.055 32.3415L22.7205 31.9652L23.3763 31.5953L35.1489 24.9512L36.4717 24.2051L39.206 22.6615V20.8236L36.4953 22.3555ZM39.206 24.5021L24.045 33.0525L22.7221 33.8004L20 35.3368V37.1738L22.7034 35.6482L25.016 34.3432L36.1946 28.0339C36.2326 28.3552 36.2515 28.678 36.2515 29.0023C36.2508 30.2875 35.9466 31.5502 35.3691 32.6649C34.7917 33.7797 33.961 34.7078 32.9596 35.357C31.9582 36.0063 30.821 36.3541 29.6607 36.3661C28.5004 36.378 27.3575 36.0536 26.3454 35.425L26.2641 35.4727L24.8291 36.2827C26.0844 37.2922 27.5743 37.8827 29.1228 37.9843C30.6713 38.0858 32.2138 37.6944 33.5678 36.856C34.9219 36.0177 36.031 34.7676 36.7642 33.2534C37.4974 31.7392 37.8239 30.0242 37.7052 28.3111C37.6833 27.9891 37.7477 27.6672 37.8904 27.3857C38.033 27.1042 38.2477 26.8756 38.5072 26.7288L39.206 26.3346V24.5021ZM57.9246 30.6539C57.9246 27.6684 59.7236 25.7784 62.0427 25.7784C64.6454 25.7784 66.1763 28.1725 66.0024 31.1606H59.4709C59.518 33.1875 60.8433 34.1658 62.0898 34.1658C63.3526 34.1658 64.0465 33.5367 64.4089 32.6106H65.8919C65.5132 34.2189 64.157 35.5645 62.0898 35.5645C59.4075 35.5645 57.9246 33.4323 57.9246 30.6539ZM62.0427 27.141C60.78 27.141 59.6131 27.907 59.4863 29.797H64.4877C64.4406 28.4695 63.5728 27.141 62.0427 27.141ZM49.1918 28.0654L47.8701 27.7332C46.7935 27.4704 46.0012 26.9124 46.0012 25.7937C46.0012 24.3779 47.5451 23.9414 48.4308 23.9414C49.5684 23.9414 50.8921 24.4481 51.2708 25.8981H52.8334C52.3751 23.4679 50.5581 22.4383 48.4942 22.4383C46.648 22.4383 44.3606 23.4697 44.3606 25.8981C44.3606 27.9952 45.9224 28.9744 47.5004 29.3587L48.9265 29.6908C50.3623 30.0581 51.3878 30.5819 51.3878 31.9274C51.3878 33.1875 50.4257 34.0596 48.7217 34.0596C46.9389 34.0596 45.8663 33.1506 45.5665 31.4036H43.9852C44.2851 33.9237 45.989 35.5627 48.6868 35.5627C50.962 35.5627 53.0414 34.2342 53.0414 31.7699C53.0414 29.2192 50.9437 28.4848 49.1918 28.0654ZM54.6885 23.5742H56.1243V25.9332H57.7332V27.209H56.1243V32.7843C56.1243 33.7626 56.1869 34.0074 57.0076 34.0074H57.7332V35.335H56.6923C55.0671 35.335 54.6885 34.9331 54.6885 32.9755V27.2094H53.3469V25.9332H54.6885V23.5742ZM84.5742 25.8828C83.4537 25.935 82.6021 26.5128 82.1763 27.5775V25.935H80.7713V35.3363H82.2072V30.4086C82.2072 28.3115 82.8702 27.5285 84.1956 27.5285C84.4653 27.5285 84.7335 27.5519 85 27.5987V25.8994C84.8583 25.8859 84.7164 25.8804 84.5742 25.8828ZM79.405 29.6242L79.3896 31.7915C79.3733 33.3792 79.4367 34.4449 79.6098 35.3386H78.1585C78.097 34.9105 78.0602 34.4797 78.048 34.0461C77.528 35.0263 76.6601 35.5663 75.1455 35.5663C73.552 35.5663 72.2267 34.5871 72.2267 32.8572C72.2267 30.6341 74.4987 29.9743 77.9692 29.554V29.3272C77.9692 27.5973 77.1176 27.0384 76.0442 27.0384C74.8456 27.0384 74.1671 27.7377 74.1038 28.9078H72.6208C72.7468 26.8809 74.3882 25.7451 76.0288 25.7451C78.4112 25.7451 79.4213 26.9502 79.405 29.6242ZM75.4608 34.308C76.8023 34.308 78.0797 33.6258 78.0797 31.4072V30.8123C75.4762 31.0922 73.8202 31.5287 73.8202 32.8221C73.8202 33.714 74.4353 34.308 75.4608 34.308ZM68.4035 22.6597H66.9677V35.3359H68.4035V22.6597ZM69.8385 22.6597H71.2744V35.3359H69.8385V22.6597Z"/>
</mask>
<path fill-rule="evenodd" clip-rule="evenodd" d="M36.4953 22.3555L34.1827 23.6606L23.0155 29.9608C22.9777 29.6418 22.9587 29.3204 22.9586 28.9987C22.9601 27.715 23.2644 26.4539 23.8413 25.3405C24.4182 24.2271 25.2477 23.3 26.2477 22.6509C27.2476 22.0019 28.3833 21.6535 29.5422 21.6402C30.7011 21.6269 31.8431 21.9491 32.855 22.5751L34.1786 21.8281L34.3761 21.7165C33.1209 20.7074 31.6313 20.1172 30.0831 20.0157C28.5349 19.9142 26.9927 20.3056 25.6389 21.1437C24.285 21.9817 23.176 23.2314 22.4427 24.7451C21.7095 26.2589 21.3826 27.9735 21.5008 29.6863C21.5227 30.0084 21.4582 30.3304 21.3154 30.6119C21.1725 30.8934 20.9577 31.1219 20.698 31.2686L20 31.6628V33.5016L22.055 32.3415L22.7205 31.9652L23.3763 31.5953L35.1489 24.9512L36.4717 24.2051L39.206 22.6615V20.8236L36.4953 22.3555ZM39.206 24.5021L24.045 33.0525L22.7221 33.8004L20 35.3368V37.1738L22.7034 35.6482L25.016 34.3432L36.1946 28.0339C36.2326 28.3552 36.2515 28.678 36.2515 29.0023C36.2508 30.2875 35.9466 31.5502 35.3691 32.6649C34.7917 33.7797 33.961 34.7078 32.9596 35.357C31.9582 36.0063 30.821 36.3541 29.6607 36.3661C28.5004 36.378 27.3575 36.0536 26.3454 35.425L26.2641 35.4727L24.8291 36.2827C26.0844 37.2922 27.5743 37.8827 29.1228 37.9843C30.6713 38.0858 32.2138 37.6944 33.5678 36.856C34.9219 36.0177 36.031 34.7676 36.7642 33.2534C37.4974 31.7392 37.8239 30.0242 37.7052 28.3111C37.6833 27.9891 37.7477 27.6672 37.8904 27.3857C38.033 27.1042 38.2477 26.8756 38.5072 26.7288L39.206 26.3346V24.5021ZM57.9246 30.6539C57.9246 27.6684 59.7236 25.7784 62.0427 25.7784C64.6454 25.7784 66.1763 28.1725 66.0024 31.1606H59.4709C59.518 33.1875 60.8433 34.1658 62.0898 34.1658C63.3526 34.1658 64.0465 33.5367 64.4089 32.6106H65.8919C65.5132 34.2189 64.157 35.5645 62.0898 35.5645C59.4075 35.5645 57.9246 33.4323 57.9246 30.6539ZM62.0427 27.141C60.78 27.141 59.6131 27.907 59.4863 29.797H64.4877C64.4406 28.4695 63.5728 27.141 62.0427 27.141ZM49.1918 28.0654L47.8701 27.7332C46.7935 27.4704 46.0012 26.9124 46.0012 25.7937C46.0012 24.3779 47.5451 23.9414 48.4308 23.9414C49.5684 23.9414 50.8921 24.4481 51.2708 25.8981H52.8334C52.3751 23.4679 50.5581 22.4383 48.4942 22.4383C46.648 22.4383 44.3606 23.4697 44.3606 25.8981C44.3606 27.9952 45.9224 28.9744 47.5004 29.3587L48.9265 29.6908C50.3623 30.0581 51.3878 30.5819 51.3878 31.9274C51.3878 33.1875 50.4257 34.0596 48.7217 34.0596C46.9389 34.0596 45.8663 33.1506 45.5665 31.4036H43.9852C44.2851 33.9237 45.989 35.5627 48.6868 35.5627C50.962 35.5627 53.0414 34.2342 53.0414 31.7699C53.0414 29.2192 50.9437 28.4848 49.1918 28.0654ZM54.6885 23.5742H56.1243V25.9332H57.7332V27.209H56.1243V32.7843C56.1243 33.7626 56.1869 34.0074 57.0076 34.0074H57.7332V35.335H56.6923C55.0671 35.335 54.6885 34.9331 54.6885 32.9755V27.2094H53.3469V25.9332H54.6885V23.5742ZM84.5742 25.8828C83.4537 25.935 82.6021 26.5128 82.1763 27.5775V25.935H80.7713V35.3363H82.2072V30.4086C82.2072 28.3115 82.8702 27.5285 84.1956 27.5285C84.4653 27.5285 84.7335 27.5519 85 27.5987V25.8994C84.8583 25.8859 84.7164 25.8804 84.5742 25.8828ZM79.405 29.6242L79.3896 31.7915C79.3733 33.3792 79.4367 34.4449 79.6098 35.3386H78.1585C78.097 34.9105 78.0602 34.4797 78.048 34.0461C77.528 35.0263 76.6601 35.5663 75.1455 35.5663C73.552 35.5663 72.2267 34.5871 72.2267 32.8572C72.2267 30.6341 74.4987 29.9743 77.9692 29.554V29.3272C77.9692 27.5973 77.1176 27.0384 76.0442 27.0384C74.8456 27.0384 74.1671 27.7377 74.1038 28.9078H72.6208C72.7468 26.8809 74.3882 25.7451 76.0288 25.7451C78.4112 25.7451 79.4213 26.9502 79.405 29.6242ZM75.4608 34.308C76.8023 34.308 78.0797 33.6258 78.0797 31.4072V30.8123C75.4762 31.0922 73.8202 31.5287 73.8202 32.8221C73.8202 33.714 74.4353 34.308 75.4608 34.308ZM68.4035 22.6597H66.9677V35.3359H68.4035V22.6597ZM69.8385 22.6597H71.2744V35.3359H69.8385V22.6597Z" fill="var(--fill-0, white)" stroke="var(--stroke-0, white)" stroke-width="2.4068" mask="url(#path-1-inside-1_0_10)"/>
</g>
</g>
</svg>
