<svg width="32" height="26" viewBox="0 0 32 25.8462" fill="none" xmlns="http://www.w3.org/2000/svg">
<path id="&#226;&#128;&#156;" d="M32 21.3018C32 22.6903 31.5897 23.7949 30.7692 24.6154C29.9487 25.4359 28.8442 25.8462 27.4556 25.8462H22.9112C21.5227 25.8462 20.4181 25.4359 19.5976 24.6154C18.7771 23.7949 18.3669 22.6903 18.3669 21.3018V16.1893L26.6036 0L30.2012 0.946752L27.2663 12.213H27.4556C28.8442 12.213 29.9487 12.6233 30.7692 13.4438C31.5897 14.2643 32 15.3688 32 16.7574V21.3018ZM13.6331 21.3018C13.6331 22.6903 13.2229 23.7949 12.4024 24.6154C11.5819 25.4359 10.4773 25.8462 9.08876 25.8462H4.54438C3.15582 25.8462 2.05128 25.4359 1.23077 24.6154C0.410257 23.7949 0 22.6903 0 21.3018V16.1893L8.23669 0L11.8343 0.946752L8.89941 12.213H9.08876C10.4773 12.213 11.5819 12.6233 12.4024 13.4438C13.2229 14.2643 13.6331 15.3688 13.6331 16.7574V21.3018Z" fill="var(--fill-0, #BBA9FF)"/>
</svg>
